<svg width="50" height="50" viewBox="0 0 50 50" fill="none" xmlns="http://www.w3.org/2000/svg">
<path d="M0 10C0 4.47715 4.47715 0 10 0H40C45.5228 0 50 4.47715 50 10V40C50 45.5228 45.5228 50 40 50H10C4.47715 50 0 45.5228 0 40V10Z" fill="black"/>
<path d="M29.6364 24C33.0518 24 35.8182 20.6437 35.8182 16.5C35.8182 12.3562 33.0518 9 29.6364 9C26.2209 9 23.4545 12.3562 23.4545 16.5C23.4545 20.6437 26.2209 24 29.6364 24ZM15.7273 20.25V14.625H12.6364V20.25H8V24H12.6364V29.625H15.7273V24H20.3636V20.25H15.7273ZM29.6364 27.75C25.51 27.75 17.2727 30.2625 17.2727 35.25V39H42V35.25C42 30.2625 33.7627 27.75 29.6364 27.75Z" fill="white"/>
</svg>
