<svg width="85" height="85" viewBox="0 0 85 85" fill="none" xmlns="http://www.w3.org/2000/svg">
<g clip-path="url(#clip0_19_926)">
<path d="M19.2259 0H65.7741C76.3991 0 85 8.60094 85 19.2259V65.7741C85 76.3991 76.3991 85 65.7741 85H19.2259C8.60094 85 0 76.3991 0 65.7741V19.2259C0 8.60094 8.60094 0 19.2259 0Z" fill="#008CFF"/>
<path d="M19.2259 0H65.7741C76.3991 0 85 8.60094 85 19.2259V65.7741C85 76.3991 76.3991 85 65.7741 85H19.2259C8.60094 85 0 76.3991 0 65.7741V19.2259C0 8.60094 8.60094 0 19.2259 0Z" fill="url(#paint0_linear_19_926)"/>
<path d="M42.1409 19.5352L43.8621 16.5623C44.9246 14.7051 47.2919 14.0771 49.1534 15.1386C51.0106 16.2011 51.6396 18.5726 50.575 20.4298L33.9947 49.1301H45.985C49.8737 49.1301 52.0497 53.6988 50.3625 56.8619H15.2012C13.0549 56.8619 11.3337 55.1406 11.3337 52.9944C11.3337 50.8481 13.0549 49.1269 15.2012 49.1269H25.058L37.6784 27.2553L33.7397 20.4149C33.2276 19.5245 33.0897 18.4673 33.3562 17.4753C33.6227 16.4833 34.2719 15.6376 35.1613 15.1237C36.052 14.6118 37.1094 14.4742 38.1014 14.7411C39.0934 15.0081 39.939 15.6577 40.4526 16.5474L42.1398 19.5352H42.1409ZM27.2266 60.8441L23.5078 67.2914C22.4453 69.1486 20.0759 69.7755 18.2187 68.713C16.3614 67.6505 15.7335 65.2843 16.7949 63.4228L19.5574 58.6426C22.6812 57.6789 25.2184 58.4216 27.2266 60.8441ZM59.2397 49.1492H69.2994C71.4457 49.1492 73.1669 50.8704 73.1669 53.0167C73.1669 55.1629 71.4457 56.8842 69.2994 56.8842H63.7107L67.4794 63.4292C68.5419 65.2854 67.915 67.6367 66.0577 68.7183C65.1672 69.2303 64.1099 69.368 63.1179 69.1013C62.1259 68.8346 61.2802 68.1852 60.7665 67.2956C54.4159 56.2807 49.6485 48.0378 46.4812 42.5468C43.2427 36.958 45.5568 31.3523 47.8412 29.4494C50.3837 33.8003 54.1747 40.3772 59.2418 49.1492H59.2397Z" fill="white"/>
</g>
<defs>
<linearGradient id="paint0_linear_19_926" x1="42.4958" y1="-0.006375" x2="42.4958" y2="85.0043" gradientUnits="userSpaceOnUse">
<stop stop-color="#0ED4FC"/>
<stop offset="1" stop-color="#0C57EF"/>
</linearGradient>
<clipPath id="clip0_19_926">
<rect width="85" height="85" fill="white"/>
</clipPath>
</defs>
</svg>
