<svg width="85" height="85" viewBox="0 0 85 85" fill="none" xmlns="http://www.w3.org/2000/svg">
<g clip-path="url(#clip0_18_849)">
<g filter="url(#filter0_i_18_849)">
<path d="M19.2259 0H65.7741C76.3991 0 85 8.60094 85 19.2259V65.7741C85 76.3991 76.3991 85 65.7741 85H19.2259C8.60094 85 0 76.3991 0 65.7741V19.2259C0 8.60094 8.60094 0 19.2259 0Z" fill="#FFFEFF"/>
<path d="M19.2259 0.53125H65.7741C76.1058 0.53125 84.4688 8.89419 84.4688 19.2259V65.7741C84.4688 76.1058 76.1058 84.4688 65.7741 84.4688H19.2259C8.89419 84.4688 0.53125 76.1058 0.53125 65.7741V19.2259C0.53125 8.89419 8.89419 0.53125 19.2259 0.53125Z" fill="white" stroke="black" stroke-opacity="0.05" stroke-width="1.0625"/>
<path d="M53.363 51.6481C51.3953 53.3842 48.9388 55.5454 44.4837 55.5454H41.82C38.5964 55.5454 35.6639 54.3798 33.5644 52.2676C31.5148 50.2042 30.3864 47.379 30.3864 44.3126V40.6874C30.3864 37.621 31.5148 34.7969 33.5654 32.7324C35.6639 30.6202 38.5964 29.4567 41.82 29.4567H44.4837C48.9441 29.4567 51.3953 31.6157 53.363 33.3519C55.4062 35.1422 57.1678 36.7062 61.8683 36.7062C62.5844 36.7062 63.3006 36.6499 64.0082 36.5362L63.9923 36.4958C63.7106 35.8006 63.3804 35.126 63.0041 34.4771L59.8623 29.0647C58.4431 26.6224 56.406 24.5967 53.9559 23.1912C51.5003 21.7822 48.7184 21.0411 45.8873 21.0417H39.6036C36.771 21.0417 33.9883 21.7834 31.5361 23.1912C29.0855 24.5965 27.048 26.6222 25.6286 29.0647L22.4878 34.476C21.0729 36.9134 20.3277 39.6817 20.3277 42.5C20.3277 45.3183 21.0729 48.0866 22.4878 50.524L25.6286 55.9353C27.0481 58.3777 29.0855 60.4034 31.5361 61.8088C33.9914 63.2176 36.7729 63.9587 39.6036 63.9582H45.8873C48.7199 63.9582 51.5026 63.2177 53.9559 61.8088C56.4064 60.4034 58.4439 58.3777 59.8634 55.9353L63.0041 50.5325C63.3803 49.8844 63.7107 49.2086 63.9923 48.5137L64.0082 48.4744C63.3006 48.3576 62.5844 48.2981 61.8683 48.2959C57.1678 48.2959 55.4062 49.8514 53.363 51.6502" fill="#006BFF"/>
<path d="M44.4847 32.741H41.8211C36.9144 32.741 33.6908 36.226 33.6908 40.6885V44.3116C33.6908 48.7741 36.9144 52.2591 41.8211 52.2591H44.4858C51.6343 52.2591 51.0733 45.0086 61.8694 45.0086C62.8926 45.0086 63.9136 45.101 64.9187 45.288C65.2463 43.4438 65.2463 41.5563 64.9187 39.712C63.913 39.8982 62.8922 39.9917 61.8694 39.9915C51.0701 39.9915 51.6343 32.741 44.4858 32.741H44.4847Z" fill="#006BFF"/>
<path d="M71.1206 47.9368C69.28 46.5969 67.1602 45.6906 64.9198 45.2859V45.339C64.7268 46.4081 64.4252 47.4548 64.0199 48.4628C65.8718 48.7496 67.6292 49.469 69.1464 50.5633C69.1464 50.5782 69.1379 50.5952 69.1316 50.6122C67.172 56.9078 63.0165 62.2903 57.4217 65.7794C51.8114 69.28 45.1359 70.6635 38.5964 69.6809C32.062 68.704 26.0926 65.4222 21.7664 60.4286C17.4548 55.4504 15.0805 49.0858 15.0779 42.5C15.0802 35.9139 17.4546 29.5489 21.7664 24.5703C26.0926 19.5767 32.062 16.295 38.5964 15.3181C45.1359 14.3355 51.8114 15.719 57.4217 19.2196C63.0167 22.7089 67.1723 28.0918 69.1316 34.3878C69.1316 34.4048 69.1411 34.4218 69.1464 34.4367C67.6279 35.5321 65.8708 36.2509 64.0199 36.5341C64.4247 37.5435 64.7264 38.5921 64.9198 39.6621V39.712C67.1601 39.3081 69.2799 38.4025 71.1206 37.0632C72.8886 35.7616 72.5464 34.2922 72.2787 33.422C70.0853 26.3621 65.4285 20.3253 59.1568 16.4114C52.8691 12.4852 45.3864 10.9322 38.0556 12.0318C30.7299 13.1252 24.0371 16.8031 19.1866 22.4007C14.3522 27.9813 11.69 35.1166 11.6875 42.5C11.69 49.8834 14.3522 57.0188 19.1866 62.5993C24.0366 68.1971 30.7291 71.8754 38.0545 72.9693C45.386 74.0686 52.869 72.5147 59.1568 68.5876C65.4283 64.674 70.0851 58.6375 72.2787 51.578C72.5464 50.7078 72.8886 49.2384 71.1206 47.9379V47.9368Z" fill="#006BFF"/>
<path d="M64.0093 36.5351C63.3016 36.652 62.5855 36.7115 61.8683 36.7136C57.1689 36.7136 55.4073 35.1581 53.3662 33.3593C51.3963 31.6232 48.9451 29.462 44.4837 29.462H41.8211C38.5953 29.462 35.6649 30.6276 33.5654 32.7398C31.5148 34.8043 30.3875 37.6284 30.3875 40.6948V44.32C30.3875 47.3864 31.5159 50.2105 33.5654 52.275C35.6649 54.3872 38.5953 55.5507 41.8211 55.5507H44.4848C48.9451 55.5507 51.3963 53.3917 53.3651 51.6555C55.4073 49.8652 57.1689 48.3012 61.8683 48.3012C62.5855 48.3012 63.3016 48.3575 64.0093 48.4712C64.4151 47.4629 64.7169 46.4163 64.9092 45.3475V45.2943C63.9034 45.1086 62.8826 45.0154 61.8598 45.016C51.0595 45.016 51.6248 52.2675 44.4752 52.2675H41.8115C36.9049 52.2675 33.6813 48.7804 33.6813 44.32V40.6873C33.6813 36.227 36.9049 32.742 41.8115 32.742H44.4752C51.6258 32.742 51.0627 39.9893 61.8598 39.9893C62.883 39.9914 63.903 39.8979 64.9092 39.713V39.662C64.7156 38.592 64.4141 37.5443 64.0093 36.5351Z" fill="#0AE8F0"/>
<path d="M64.0093 36.5351C63.3016 36.652 62.5855 36.7115 61.8683 36.7136C57.1689 36.7136 55.4073 35.1581 53.3662 33.3593C51.3963 31.6232 48.9451 29.462 44.4837 29.462H41.8211C38.5953 29.462 35.6649 30.6276 33.5654 32.7398C31.5148 34.8043 30.3875 37.6284 30.3875 40.6948V44.32C30.3875 47.3864 31.5159 50.2105 33.5654 52.275C35.6649 54.3872 38.5953 55.5507 41.8211 55.5507H44.4848C48.9451 55.5507 51.3963 53.3917 53.3651 51.6555C55.4073 49.8652 57.1689 48.3012 61.8683 48.3012C62.5855 48.3012 63.3016 48.3575 64.0093 48.4712C64.4151 47.4629 64.7169 46.4163 64.9092 45.3475V45.2943C63.9034 45.1086 62.8826 45.0154 61.8598 45.016C51.0595 45.016 51.6248 52.2675 44.4752 52.2675H41.8115C36.9049 52.2675 33.6813 48.7804 33.6813 44.32V40.6873C33.6813 36.227 36.9049 32.742 41.8115 32.742H44.4752C51.6258 32.742 51.0627 39.9893 61.8598 39.9893C62.883 39.9914 63.903 39.8979 64.9092 39.713V39.662C64.7156 38.592 64.4141 37.5443 64.0093 36.5351Z" fill="#0AE8F0"/>
</g>
</g>
<defs>
<filter id="filter0_i_18_849" x="0" y="-1.0625" width="85" height="86.0625" filterUnits="userSpaceOnUse" color-interpolation-filters="sRGB">
<feFlood flood-opacity="0" result="BackgroundImageFix"/>
<feBlend mode="normal" in="SourceGraphic" in2="BackgroundImageFix" result="shape"/>
<feColorMatrix in="SourceAlpha" type="matrix" values="0 0 0 0 0 0 0 0 0 0 0 0 0 0 0 0 0 0 127 0" result="hardAlpha"/>
<feOffset dy="-1.0625"/>
<feGaussianBlur stdDeviation="0.53125"/>
<feComposite in2="hardAlpha" operator="arithmetic" k2="-1" k3="1"/>
<feColorMatrix type="matrix" values="0 0 0 0 0 0 0 0 0 0 0 0 0 0 0 0 0 0 0.12 0"/>
<feBlend mode="normal" in2="shape" result="effect1_innerShadow_18_849"/>
</filter>
<clipPath id="clip0_18_849">
<rect width="85" height="85" fill="white"/>
</clipPath>
</defs>
</svg>
