<svg width="85" height="85" viewBox="0 0 85 85" fill="none" xmlns="http://www.w3.org/2000/svg">
<g clip-path="url(#clip0_18_870)">
<path d="M0 30.6266C0 19.9059 0 14.5456 2.08675 10.4518C3.92187 6.85013 6.85013 3.92187 10.4518 2.08675C14.5456 0 19.9059 0 30.6266 0H54.3734C65.0941 0 70.4544 0 74.5482 2.08675C78.1499 3.92187 81.0781 6.85013 82.9133 10.4518C85 14.5456 85 19.9059 85 30.6266V54.3734C85 65.0941 85 70.4544 82.9133 74.5482C81.0781 78.1499 78.1499 81.0781 74.5482 82.9133C70.4544 85 65.0941 85 54.3734 85H30.6266C19.9059 85 14.5456 85 10.4518 82.9133C6.85013 81.0781 3.92187 78.1499 2.08675 74.5482C0 70.4544 0 65.0941 0 54.3734V30.6266Z" fill="#D7D6CD"/>
<path d="M38.1044 69.0126C52.9646 69.0126 65.1939 56.7832 65.1939 41.9231C65.1939 27.063 52.9646 14.8049 38.1044 14.8049C23.2443 14.8049 11.0149 27.063 11.0149 41.9231C11.0149 56.7832 23.2443 69.0126 38.1044 69.0126ZM38.1044 51.0011C29.3154 51.0011 22.695 54.7602 20.2959 58.2867C16.1932 53.8266 13.9219 47.9842 13.9347 41.9242C13.9347 28.5377 24.7191 17.7257 38.1044 17.7257C51.4898 17.7257 62.3029 28.5377 62.3029 41.9231C62.311 47.9965 60.0294 53.8498 55.913 58.3154C53.5426 54.7602 46.9221 51.0011 38.1044 51.0011ZM38.1044 46.3176C43.3372 46.3463 47.3843 41.8657 47.3843 36.0539C47.3843 30.5905 43.2788 25.9941 38.1044 25.9941C32.9301 25.9941 28.7948 30.5905 28.8533 36.0549C28.8533 41.8657 32.8716 46.2889 38.1044 46.3187V46.3176Z" fill="#A7A29B"/>
<mask id="mask0_18_870" style="mask-type:alpha" maskUnits="userSpaceOnUse" x="75" y="2" width="11" height="81">
<path d="M75.3174 2.15161H85.0011V82.8474H75.3174V2.15161Z" fill="#C4C4C4"/>
</mask>
<g mask="url(#mask0_18_870)">
<mask id="mask1_18_870" style="mask-type:alpha" maskUnits="userSpaceOnUse" x="0" y="0" width="85" height="85">
<path d="M0 30.6266C0 19.9059 0 14.5456 2.08675 10.4518C3.92187 6.85013 6.85013 3.92187 10.4518 2.08675C14.5456 0 19.9059 0 30.6266 0H54.3734C65.0941 0 70.4544 0 74.5482 2.08675C78.1499 3.92187 81.0781 6.85013 82.9133 10.4518C85 14.5456 85 19.9059 85 30.6266V54.3734C85 65.0941 85 70.4544 82.9133 74.5482C81.0781 78.1499 78.1499 81.0781 74.5482 82.9133C70.4544 85 65.0941 85 54.3734 85H30.6266C19.9059 85 14.5456 85 10.4518 82.9133C6.85013 81.0781 3.92187 78.1499 2.08675 74.5482C0 70.4544 0 65.0941 0 54.3734V30.6266Z" fill="#D7D6CD"/>
</mask>
<g mask="url(#mask1_18_870)">
<path d="M85 41.9624H75.3174V62.4049H85V41.9624Z" fill="#F09A37"/>
<path opacity="0.3" d="M72.0885 41.9624H79.6206V62.406H72.0885V41.9624Z" fill="url(#paint0_linear_18_870)"/>
<path opacity="0.3" d="M85 41.9624V46.2666H75.3164V41.9624H85Z" fill="url(#paint1_linear_18_870)" fill-opacity="0.68"/>
</g>
<mask id="mask2_18_870" style="mask-type:alpha" maskUnits="userSpaceOnUse" x="68" y="62" width="17" height="23">
<path d="M85 62.4049H68.8606V85H85V62.4049Z" fill="#FF9443"/>
</mask>
<g mask="url(#mask2_18_870)">
<path d="M0 30.6266C0 19.9059 0 14.5456 2.08675 10.4518C3.92187 6.85013 6.85013 3.92187 10.4518 2.08675C14.5456 0 19.9059 0 30.6266 0H54.3734C65.0941 0 70.4544 0 74.5482 2.08675C78.1499 3.92187 81.0781 6.85013 82.9133 10.4518C85 14.5456 85 19.9059 85 30.6266V54.3734C85 65.0941 85 70.4544 82.9133 74.5482C81.0781 78.1499 78.1499 81.0781 74.5482 82.9133C70.4544 85 65.0941 85 54.3734 85H30.6266C19.9059 85 14.5456 85 10.4518 82.9133C6.85013 81.0781 3.92187 78.1499 2.08675 74.5482C0 70.4544 0 65.0941 0 54.3734V30.6266Z" fill="#76D671"/>
<mask id="mask3_18_870" style="mask-type:alpha" maskUnits="userSpaceOnUse" x="0" y="0" width="85" height="85">
<path d="M0 30.6266C0 19.9059 0 14.5456 2.08675 10.4518C3.92187 6.85013 6.85013 3.92187 10.4518 2.08675C14.5456 0 19.9059 0 30.6266 0H54.3734C65.0941 0 70.4544 0 74.5482 2.08675C78.1499 3.92187 81.0781 6.85013 82.9133 10.4518C85 14.5456 85 19.9059 85 30.6266V54.3734C85 65.0941 85 70.4544 82.9133 74.5482C81.0781 78.1499 78.1499 81.0781 74.5482 82.9133C70.4544 85 65.0941 85 54.3734 85H30.6266C19.9059 85 14.5456 85 10.4518 82.9133C6.85013 81.0781 3.92187 78.1499 2.08675 74.5482C0 70.4544 0 65.0941 0 54.3734V30.6266Z" fill="#76D671"/>
</mask>
<g mask="url(#mask3_18_870)">
<path opacity="0.3" d="M72.0885 62.4049H79.6206V85H72.0885V62.4049Z" fill="url(#paint2_linear_18_870)"/>
<path opacity="0.3" d="M85 62.4049V65.6328H64.5564V62.4049H85Z" fill="url(#paint3_linear_18_870)" fill-opacity="0.68"/>
</g>
</g>
<mask id="mask4_18_870" style="mask-type:alpha" maskUnits="userSpaceOnUse" x="0" y="0" width="85" height="85">
<path d="M0 30.6266C0 19.9059 0 14.5456 2.08675 10.4518C3.92187 6.85013 6.85013 3.92187 10.4518 2.08675C14.5456 0 19.9059 0 30.6266 0H54.3734C65.0941 0 70.4544 0 74.5482 2.08675C78.1499 3.92187 81.0781 6.85013 82.9133 10.4518C85 14.5456 85 19.9059 85 30.6266V54.3734C85 65.0941 85 70.4544 82.9133 74.5482C81.0781 78.1499 78.1499 81.0781 74.5482 82.9133C70.4544 85 65.0941 85 54.3734 85H30.6266C19.9059 85 14.5456 85 10.4518 82.9133C6.85013 81.0781 3.92187 78.1499 2.08675 74.5482C0 70.4544 0 65.0941 0 54.3734V30.6266Z" fill="#D7D6CD"/>
</mask>
<g mask="url(#mask4_18_870)">
<path d="M85 21.5188H75.3174V41.9613H85V21.5188Z" fill="#77C5F5"/>
<path opacity="0.3" d="M72.0885 21.5188H79.6206V41.9624H72.0885V21.5188Z" fill="url(#paint4_linear_18_870)"/>
<path opacity="0.3" d="M85 21.5188V24.7467H64.5564V21.5188H85Z" fill="url(#paint5_linear_18_870)" fill-opacity="0.68"/>
<g filter="url(#filter0_i_18_870)">
<mask id="mask5_18_870" style="mask-type:alpha" maskUnits="userSpaceOnUse" x="0" y="0" width="85" height="85">
<path d="M0 30.6266C0 19.9059 0 14.5456 2.08675 10.4518C3.92187 6.85013 6.85013 3.92187 10.4518 2.08675C14.5456 0 19.9059 0 30.6266 0H54.3734C65.0941 0 70.4544 0 74.5482 2.08675C78.1499 3.92187 81.0781 6.85013 82.9133 10.4518C85 14.5456 85 19.9059 85 30.6266V54.3734C85 65.0941 85 70.4544 82.9133 74.5482C81.0781 78.1499 78.1499 81.0781 74.5482 82.9133C70.4544 85 65.0941 85 54.3734 85H30.6266C19.9059 85 14.5456 85 10.4518 82.9133C6.85013 81.0781 3.92187 78.1499 2.08675 74.5482C0 70.4544 0 65.0941 0 54.3734V30.6266Z" fill="#D7D6CD"/>
</mask>
<g mask="url(#mask5_18_870)">
<path d="M75.3174 2.15161H93.6084V21.5189H75.3174V2.15161Z" fill="#C4C4C4"/>
<path opacity="0.3" d="M72.0885 2.15161H79.6206V21.5189H72.0885V2.15161Z" fill="url(#paint6_linear_18_870)"/>
</g>
</g>
</g>
</g>
</g>
<defs>
<filter id="filter0_i_18_870" x="72.0885" y="2.15161" width="15.0896" height="19.7466" filterUnits="userSpaceOnUse" color-interpolation-filters="sRGB">
<feFlood flood-opacity="0" result="BackgroundImageFix"/>
<feBlend mode="normal" in="SourceGraphic" in2="BackgroundImageFix" result="shape"/>
<feColorMatrix in="SourceAlpha" type="matrix" values="0 0 0 0 0 0 0 0 0 0 0 0 0 0 0 0 0 0 127 0" result="hardAlpha"/>
<feOffset dx="2.17812" dy="0.379312"/>
<feGaussianBlur stdDeviation="1.23144"/>
<feComposite in2="hardAlpha" operator="arithmetic" k2="-1" k3="1"/>
<feColorMatrix type="matrix" values="0 0 0 0 0.615686 0 0 0 0 0.611765 0 0 0 0 0.6 0 0 0 0.8 0"/>
<feBlend mode="normal" in2="shape" result="effect1_innerShadow_18_870"/>
</filter>
<linearGradient id="paint0_linear_18_870" x1="72.0885" y1="52.1837" x2="78.829" y2="52.1837" gradientUnits="userSpaceOnUse">
<stop/>
<stop offset="1" stop-opacity="0"/>
</linearGradient>
<linearGradient id="paint1_linear_18_870" x1="80.1582" y1="41.9624" x2="80.1582" y2="45.815" gradientUnits="userSpaceOnUse">
<stop/>
<stop offset="1" stop-opacity="0"/>
</linearGradient>
<linearGradient id="paint2_linear_18_870" x1="72.0885" y1="73.7025" x2="78.829" y2="73.7025" gradientUnits="userSpaceOnUse">
<stop/>
<stop offset="1" stop-opacity="0"/>
</linearGradient>
<linearGradient id="paint3_linear_18_870" x1="74.7788" y1="62.4049" x2="74.7788" y2="65.2938" gradientUnits="userSpaceOnUse">
<stop/>
<stop offset="1" stop-opacity="0"/>
</linearGradient>
<linearGradient id="paint4_linear_18_870" x1="72.0885" y1="31.74" x2="78.829" y2="31.74" gradientUnits="userSpaceOnUse">
<stop/>
<stop offset="1" stop-opacity="0"/>
</linearGradient>
<linearGradient id="paint5_linear_18_870" x1="74.7788" y1="21.5188" x2="74.7788" y2="24.4077" gradientUnits="userSpaceOnUse">
<stop/>
<stop offset="1" stop-opacity="0"/>
</linearGradient>
<linearGradient id="paint6_linear_18_870" x1="72.0885" y1="11.8352" x2="78.829" y2="11.8352" gradientUnits="userSpaceOnUse">
<stop/>
<stop offset="1" stop-opacity="0"/>
</linearGradient>
<clipPath id="clip0_18_870">
<rect width="85" height="85" fill="white"/>
</clipPath>
</defs>
</svg>
