<svg width="85" height="85" viewBox="0 0 85 85" fill="none" xmlns="http://www.w3.org/2000/svg">
<g clip-path="url(#clip0_31_60)">
<g filter="url(#filter0_i_31_60)">
<path d="M19.2259 0H65.7741C76.3991 0 85 8.60094 85 19.2259V65.7741C85 76.3991 76.3991 85 65.7741 85H19.2259C8.60094 85 0 76.3991 0 65.7741V19.2259C0 8.60094 8.60094 0 19.2259 0Z" fill="#5865F2"/>
<path d="M64.5915 22.4145C60.4551 20.5358 56.0943 19.1971 51.6163 18.4312C51.5755 18.4235 51.5334 18.4288 51.4958 18.4463C51.4583 18.4638 51.4272 18.4928 51.4069 18.5289C50.8134 19.596 50.2743 20.6925 49.7919 21.8142C44.961 21.0882 40.0486 21.0882 35.2176 21.8142C34.7317 20.6896 34.1836 19.5928 33.5761 18.5289C33.5551 18.4937 33.5241 18.4655 33.4869 18.4481C33.4498 18.4307 33.4083 18.4248 33.3678 18.4312C28.889 19.1957 24.5276 20.5349 20.3915 22.4156C20.3566 22.43 20.3269 22.4549 20.3065 22.4868C12.0424 34.7076 9.77713 46.6268 10.8885 58.3993C10.8916 58.4282 10.9006 58.4562 10.9148 58.4816C10.9291 58.507 10.9483 58.5292 10.9714 58.5469C16.4241 62.5101 21.7058 64.9156 26.8898 66.5104C26.9299 66.5223 26.9727 66.5218 27.0125 66.5089C27.0524 66.496 27.0873 66.4713 27.1129 66.4381C28.3416 64.7836 29.4312 63.0301 30.3705 61.1958C30.3835 61.1705 30.3909 61.1428 30.3923 61.1145C30.3937 61.0861 30.389 61.0578 30.3786 61.0314C30.3681 61.0051 30.3521 60.9812 30.3316 60.9616C30.3112 60.9419 30.2868 60.9268 30.26 60.9174C28.5435 60.2671 26.8809 59.4827 25.2875 58.5714C25.2586 58.5548 25.2343 58.5312 25.2168 58.5029C25.1992 58.4746 25.1889 58.4424 25.1868 58.4092C25.1847 58.376 25.1909 58.3427 25.2047 58.3124C25.2186 58.2821 25.2397 58.2558 25.2663 58.2356C25.6009 57.9881 25.9356 57.7299 26.2544 57.4706C26.2827 57.4473 26.317 57.4322 26.3534 57.4271C26.3898 57.4221 26.4269 57.4272 26.4605 57.4419C36.8943 62.1563 48.1886 62.1563 58.4981 57.4419C58.5318 57.426 58.5694 57.4199 58.6064 57.4244C58.6434 57.429 58.6785 57.4439 58.7074 57.4674C59.0261 57.7278 59.3608 57.9881 59.6976 58.2356C59.7243 58.2555 59.7457 58.2817 59.7598 58.3118C59.7739 58.342 59.7804 58.3751 59.7786 58.4083C59.7768 58.4416 59.7668 58.4739 59.7495 58.5023C59.7323 58.5307 59.7082 58.5545 59.6796 58.5714C58.0895 59.4905 56.4251 60.2745 54.7039 60.9153C54.6773 60.9253 54.6532 60.9408 54.6331 60.9608C54.613 60.9808 54.5973 61.0049 54.5872 61.0314C54.5771 61.0579 54.5726 61.0862 54.5743 61.1146C54.5759 61.1429 54.5835 61.1706 54.5966 61.1958C55.5509 63.0197 56.6383 64.7708 57.8499 66.4349C57.8747 66.4692 57.9094 66.4948 57.9494 66.5083C57.9894 66.5219 58.0326 66.5226 58.0731 66.5104C63.2825 64.9166 68.5642 62.5101 74.018 58.5469C74.0414 58.53 74.061 58.5083 74.0752 58.4832C74.0895 58.458 74.0983 58.4302 74.1009 58.4014C75.429 44.7908 71.8739 32.9694 64.6744 22.4889C64.6565 22.455 64.6271 22.4286 64.5915 22.4145ZM31.9281 51.2306C28.7874 51.2306 26.1991 48.3767 26.1991 44.8715C26.1991 41.3674 28.7374 38.5124 31.9281 38.5124C35.1443 38.5124 37.7081 41.3918 37.6571 44.8715C37.6571 48.3778 35.1188 51.2306 31.9281 51.2306ZM53.1112 51.2306C49.9704 51.2306 47.3822 48.3767 47.3822 44.8715C47.3822 41.3674 49.9194 38.5124 53.1112 38.5124C56.3274 38.5124 58.8912 41.3918 58.8402 44.8715C58.8402 48.3778 56.3274 51.2306 53.1112 51.2306Z" fill="white"/>
</g>
</g>
<defs>
<filter id="filter0_i_31_60" x="0" y="-1.0625" width="85" height="86.0625" filterUnits="userSpaceOnUse" color-interpolation-filters="sRGB">
<feFlood flood-opacity="0" result="BackgroundImageFix"/>
<feBlend mode="normal" in="SourceGraphic" in2="BackgroundImageFix" result="shape"/>
<feColorMatrix in="SourceAlpha" type="matrix" values="0 0 0 0 0 0 0 0 0 0 0 0 0 0 0 0 0 0 127 0" result="hardAlpha"/>
<feOffset dy="-1.0625"/>
<feGaussianBlur stdDeviation="0.53125"/>
<feComposite in2="hardAlpha" operator="arithmetic" k2="-1" k3="1"/>
<feColorMatrix type="matrix" values="0 0 0 0 0 0 0 0 0 0 0 0 0 0 0 0 0 0 0.12 0"/>
<feBlend mode="normal" in2="shape" result="effect1_innerShadow_31_60"/>
</filter>
<clipPath id="clip0_31_60">
<rect width="85" height="85" fill="white"/>
</clipPath>
</defs>
</svg>
