<svg width="85" height="85" viewBox="0 0 85 85" fill="none" xmlns="http://www.w3.org/2000/svg">
<g clip-path="url(#clip0_5_218)">
<g filter="url(#filter0_i_5_218)">
<path d="M19.2259 0H65.7741C76.3991 0 85 8.60094 85 19.2259V65.7741C85 76.3991 76.3991 85 65.7741 85H19.2259C8.60094 85 0 76.3991 0 65.7741V19.2259C0 8.60094 8.60094 0 19.2259 0Z" fill="url(#paint0_linear_5_218)"/>
<path d="M59.4193 54.7517L61.3286 42.2843H49.3871V34.1934C49.3871 30.7827 51.0553 27.4571 56.4039 27.4571H61.8333V16.8427C61.8333 16.8427 56.9064 16.0002 52.1953 16.0002C42.3598 16.0002 35.9327 21.9714 35.9327 32.7813V42.2843H24.9996V54.7506H35.9327V85.4144L42.6594 85.4154H49.3871V54.7517H59.4193Z" fill="white"/>
</g>
</g>
<defs>
<filter id="filter0_i_5_218" x="0" y="-1.0625" width="85" height="86.4779" filterUnits="userSpaceOnUse" color-interpolation-filters="sRGB">
<feFlood flood-opacity="0" result="BackgroundImageFix"/>
<feBlend mode="normal" in="SourceGraphic" in2="BackgroundImageFix" result="shape"/>
<feColorMatrix in="SourceAlpha" type="matrix" values="0 0 0 0 0 0 0 0 0 0 0 0 0 0 0 0 0 0 127 0" result="hardAlpha"/>
<feOffset dy="-1.0625"/>
<feGaussianBlur stdDeviation="0.53125"/>
<feComposite in2="hardAlpha" operator="arithmetic" k2="-1" k3="1"/>
<feColorMatrix type="matrix" values="0 0 0 0 0 0 0 0 0 0 0 0 0 0 0 0 0 0 0.12 0"/>
<feBlend mode="normal" in2="shape" result="effect1_innerShadow_5_218"/>
</filter>
<linearGradient id="paint0_linear_5_218" x1="42.5" y1="0" x2="42.5" y2="85" gradientUnits="userSpaceOnUse">
<stop stop-color="#1BAFFF"/>
<stop offset="1" stop-color="#0062E0"/>
</linearGradient>
<clipPath id="clip0_5_218">
<rect width="85" height="85" fill="white"/>
</clipPath>
</defs>
</svg>
