<svg width="85" height="85" viewBox="0 0 85 85" fill="none" xmlns="http://www.w3.org/2000/svg">
<g clip-path="url(#clip0_19_916)">
<g filter="url(#filter0_i_19_916)">
<path d="M19.2259 0H65.7741C76.3991 0 85 8.60094 85 19.2259V65.7741C85 76.3991 76.3991 85 65.7741 85H19.2259C8.60094 85 0 76.3991 0 65.7741V19.2259C0 8.60094 8.60094 0 19.2259 0Z" fill="#FFFEFF"/>
<path d="M19.2259 0.53125H65.7741C76.1058 0.53125 84.4688 8.89419 84.4688 19.2259V65.7741C84.4688 76.1058 76.1058 84.4688 65.7741 84.4688H19.2259C8.89419 84.4688 0.53125 76.1058 0.53125 65.7741V19.2259C0.53125 8.89419 8.89419 0.53125 19.2259 0.53125Z" fill="white" stroke="black" stroke-opacity="0.05" stroke-width="1.0625"/>
<path fill-rule="evenodd" clip-rule="evenodd" d="M21.3371 42.9877V24.1931C21.3371 22.0086 21.7749 19.9973 23.2603 18.3366C24.8338 16.5888 26.9323 15.9768 29.1178 15.9768C32.1449 15.9184 35.1326 15.9375 38.1342 15.9566C39.6397 15.9672 41.1485 15.9768 42.6668 15.9768C45.9011 15.9768 48.1737 17.5493 50.3593 19.7349C53.9431 23.494 57.6141 27.2531 61.2861 30.8369C63.5588 33.1107 64.6074 35.6447 64.6074 38.8801C64.5649 42.6817 64.5649 46.4844 64.5649 50.2871C64.5649 54.0897 64.5649 57.8914 64.5203 61.6941C64.5203 63.0934 64.2579 64.5787 63.7341 65.8909C62.5972 68.8627 60.0621 70.0857 57.0031 70.0857C54.0303 70.1441 51.0584 70.125 48.0866 70.1059C46.6002 70.0952 45.1148 70.0857 43.6284 70.0857H29.3803C27.4571 70.0857 25.6211 69.7361 24.0465 68.5132C21.8631 66.8514 21.25 64.4916 21.25 61.9576C21.3371 55.6622 21.3371 49.3691 21.3371 42.9877ZM40.4812 21.658V34.5961C40.5684 38.267 42.3173 40.1901 45.9882 40.1901C48.6657 40.2486 51.3049 40.2294 53.9569 40.2103C55.2872 40.1997 56.6206 40.1901 57.9647 40.1901H58.9263V60.9078C58.9263 61.4316 58.8381 61.9565 58.7509 62.4803C58.4885 63.5301 57.7022 64.1421 56.6536 64.3163C56.1287 64.4045 55.692 64.4045 55.1661 64.4045H30.7796C30.2547 64.4045 29.7298 64.4045 29.2931 64.3163C28.0691 64.1421 27.1957 63.2676 27.0204 62.0436C26.9333 61.5198 26.9333 61.0821 26.9333 60.5582V25.33C26.9333 24.8922 26.9333 24.4556 27.0204 24.0189C27.1957 22.7077 28.0691 21.658 29.3803 21.658H40.4812ZM51.8447 28.8256C49.6814 26.6401 47.5076 24.4439 45.2891 22.1829C45.2891 22.5154 45.254 22.7428 45.2285 22.9086C45.214 22.9864 45.2051 23.0653 45.2019 23.1444V33.6345C45.2019 35.1199 45.6386 35.5576 47.1251 35.5576H57.4398C57.5546 35.5576 57.6693 35.5406 57.7979 35.5215C57.9647 35.4981 58.1549 35.4705 58.4014 35.4705C56.2052 33.2286 54.0303 31.0335 51.8458 28.8256H51.8447Z" fill="#313131"/>
<path d="M42.8421 49.7186H34.3634C33.6632 49.7186 33.1394 49.5433 32.7898 48.9323C32.1778 47.8826 32.8769 46.7468 34.1009 46.6586C34.6248 46.5715 35.2378 46.6586 35.7616 46.6586H51.2338C52.632 46.6586 53.4193 47.7083 52.8944 48.8442C52.5449 49.5433 51.9329 49.8057 51.2338 49.8057C48.3491 49.7186 45.5515 49.7186 42.8421 49.7186ZM42.7539 57.7607H34.2741C33.4879 57.7607 32.963 57.4982 32.7016 56.712C32.4381 56.0128 32.6134 55.4008 33.2254 55.0513C33.575 54.7888 34.0117 54.7007 34.3623 54.7007H51.2327C52.3696 54.7007 52.9805 55.3127 53.0687 56.2742C53.0687 57.2358 52.3685 57.8478 51.2327 57.8478C48.348 57.7607 45.5504 57.7607 42.7539 57.7607Z" fill="#313131"/>
</g>
</g>
<defs>
<filter id="filter0_i_19_916" x="0" y="-1.0625" width="85" height="86.0625" filterUnits="userSpaceOnUse" color-interpolation-filters="sRGB">
<feFlood flood-opacity="0" result="BackgroundImageFix"/>
<feBlend mode="normal" in="SourceGraphic" in2="BackgroundImageFix" result="shape"/>
<feColorMatrix in="SourceAlpha" type="matrix" values="0 0 0 0 0 0 0 0 0 0 0 0 0 0 0 0 0 0 127 0" result="hardAlpha"/>
<feOffset dy="-1.0625"/>
<feGaussianBlur stdDeviation="0.53125"/>
<feComposite in2="hardAlpha" operator="arithmetic" k2="-1" k3="1"/>
<feColorMatrix type="matrix" values="0 0 0 0 0 0 0 0 0 0 0 0 0 0 0 0 0 0 0.12 0"/>
<feBlend mode="normal" in2="shape" result="effect1_innerShadow_19_916"/>
</filter>
<clipPath id="clip0_19_916">
<rect width="85" height="85" fill="white"/>
</clipPath>
</defs>
</svg>
