<svg width="85" height="85" viewBox="0 0 85 85" fill="none" xmlns="http://www.w3.org/2000/svg">
<g clip-path="url(#clip0_18_830)">
<g filter="url(#filter0_i_18_830)">
<path d="M19.2259 0H65.7741C76.3991 0 85 8.60094 85 19.2259V65.7741C85 76.3991 76.3991 85 65.7741 85H19.2259C8.60094 85 0 76.3991 0 65.7741V19.2259C0 8.60094 8.60094 0 19.2259 0Z" fill="#FFFEFF"/>
<path d="M19.2259 0.53125H65.7741C76.1058 0.53125 84.4688 8.89419 84.4688 19.2259V65.7741C84.4688 76.1058 76.1058 84.4688 65.7741 84.4688H19.2259C8.89419 84.4688 0.53125 76.1058 0.53125 65.7741V19.2259C0.53125 8.89419 8.89419 0.53125 19.2259 0.53125Z" fill="white" stroke="black" stroke-opacity="0.05" stroke-width="1.0625"/>
<path d="M48.7868 11.7969C46.6266 11.1166 44.3749 10.7708 42.1101 10.7716C35.3207 10.7716 29.2432 13.8348 25.1781 18.6617L35.6203 27.4401L48.7868 11.7969Z" fill="#1A73E8"/>
<path d="M25.1781 18.6617C21.8303 22.6378 19.9963 27.6696 20.0005 32.8674C20.0005 37.0186 20.8261 40.3952 22.1893 43.4084L35.6192 27.4391L25.1781 18.6617Z" fill="#EA4335"/>
<path d="M42.109 24.4269C43.7212 24.4279 45.2996 24.8897 46.6581 25.7579C48.0166 26.6261 49.0987 27.8645 49.7768 29.3272C50.4549 30.7899 50.7007 32.416 50.4854 34.0138C50.2701 35.6116 49.6026 37.1146 48.5616 38.3456L61.7153 22.7014C59.0154 17.4993 54.3607 13.5818 48.7741 11.8097L35.6309 27.4529C36.4229 26.5045 37.4137 25.7418 38.5332 25.2189C39.6526 24.6959 40.8734 24.4256 42.109 24.4269Z" fill="#4285F4"/>
<path d="M42.1079 41.3323C39.8664 41.3309 37.7171 40.4398 36.1321 38.8548C34.5472 37.2698 33.6561 35.1205 33.6547 32.879C33.6493 30.8929 34.3497 28.9694 35.6309 27.4518L22.1882 43.4212C24.4885 48.5105 28.3029 52.599 32.2288 57.7511L48.5616 38.3456C47.768 39.2829 46.7796 40.0358 45.6651 40.5518C44.5507 41.0678 43.3371 41.3346 42.109 41.3333L42.1079 41.3323Z" fill="#FBBC04"/>
<path d="M48.2354 63.0413C55.6134 51.5132 64.2048 46.273 64.2048 32.8674C64.2048 29.1912 63.3037 25.7274 61.7164 22.6759L32.2426 57.7522C33.4932 59.3906 34.7554 61.1288 35.9816 63.0541C40.4579 69.9816 39.2201 74.1338 42.109 74.1338C44.9969 74.1338 43.7591 69.9688 48.2364 63.0413H48.2354Z" fill="#34A853"/>
</g>
</g>
<defs>
<filter id="filter0_i_18_830" x="0" y="-1.0625" width="85" height="86.0625" filterUnits="userSpaceOnUse" color-interpolation-filters="sRGB">
<feFlood flood-opacity="0" result="BackgroundImageFix"/>
<feBlend mode="normal" in="SourceGraphic" in2="BackgroundImageFix" result="shape"/>
<feColorMatrix in="SourceAlpha" type="matrix" values="0 0 0 0 0 0 0 0 0 0 0 0 0 0 0 0 0 0 127 0" result="hardAlpha"/>
<feOffset dy="-1.0625"/>
<feGaussianBlur stdDeviation="0.53125"/>
<feComposite in2="hardAlpha" operator="arithmetic" k2="-1" k3="1"/>
<feColorMatrix type="matrix" values="0 0 0 0 0 0 0 0 0 0 0 0 0 0 0 0 0 0 0.12 0"/>
<feBlend mode="normal" in2="shape" result="effect1_innerShadow_18_830"/>
</filter>
<clipPath id="clip0_18_830">
<rect width="85" height="85" fill="white"/>
</clipPath>
</defs>
</svg>
