<svg width="85" height="85" viewBox="0 0 85 85" fill="none" xmlns="http://www.w3.org/2000/svg">
<g clip-path="url(#clip0_5_208)">
<g filter="url(#filter0_i_5_208)">
<path d="M19.2259 0H65.7741C76.3991 0 85 8.60094 85 19.2259V65.7741C85 76.3991 76.3991 85 65.7741 85H19.2259C8.60094 85 0 76.3991 0 65.7741V19.2259C0 8.60094 8.60094 0 19.2259 0Z" fill="url(#paint0_radial_5_208)"/>
<path d="M19.2259 0H65.7741C76.3991 0 85 8.60094 85 19.2259V65.7741C85 76.3991 76.3991 85 65.7741 85H19.2259C8.60094 85 0 76.3991 0 65.7741V19.2259C0 8.60094 8.60094 0 19.2259 0Z" fill="url(#paint1_radial_5_208)"/>
<path d="M41.1846 11.1308H53.3269C55.8567 11.1308 58.4885 11.3326 61.0183 12.0413C65.4702 13.2558 68.9106 15.7856 71.2385 19.7317C72.6548 22.1606 73.2615 24.7913 73.5654 27.5241C73.7673 29.9519 73.8693 32.3808 73.8693 34.8096V52.8211C73.8693 55.5539 73.6674 58.2856 72.9587 61.0183C71.4404 66.4817 68.1009 70.3269 62.8394 72.3509C60.3096 73.3635 57.5769 73.6663 54.8452 73.7683C48.1663 73.8693 41.4885 73.9702 34.8096 73.9702C31.9759 73.9702 29.0413 73.8693 26.3096 73.4644C22.3635 72.9587 18.9221 71.4404 16.0884 68.5058C13.4587 65.7741 12.0413 62.4346 11.5356 58.6904C10.9289 53.6308 11.0298 48.5711 11.0298 43.4116C11.0298 39.1616 11.1308 35.0115 11.1308 30.7615C11.2317 27.8269 11.4346 24.8923 12.5471 22.0596C14.5711 16.7971 18.3164 13.5596 23.7798 12.0413C26.3086 11.3337 28.9404 11.2317 31.5711 11.1308H41.1846ZM68.3039 42.602C68.3039 40.1721 68.4048 37.8452 68.3039 35.4163C68.2019 32.4817 68.102 29.4461 67.7971 26.5126C67.5923 24.4482 66.7429 22.5007 65.3693 20.9461C63.0424 18.2144 60.0058 17 56.5654 16.7971C53.2259 16.5952 49.7866 16.4943 46.4461 16.4943C40.375 16.4943 34.3039 16.5952 28.2317 16.7971C26.0057 16.8991 23.8808 17.4048 21.9587 18.6193C18.8211 20.5424 17.2019 23.4759 16.8991 27.0173C16.5952 30.0539 16.4943 33.0894 16.3933 36.125C16.3933 41.9943 16.3933 47.7615 16.4943 53.6308C16.4943 55.6548 16.7981 57.7798 17.2029 59.7019C17.8086 62.3337 19.3279 64.4587 21.5539 65.9759C23.7798 67.4943 26.4106 68 29.0413 68.1009C32.1789 68.2019 35.2144 68.3028 38.3509 68.3028C44.3222 68.3028 50.2913 68.2019 56.2615 68.1009C58.7913 68 61.2213 67.3944 63.2443 65.875C65.773 64.0539 67.2924 61.5241 67.6961 58.4874C68 56.2615 68.1009 54.0356 68.2029 51.8096C68.3039 48.7741 68.3039 45.7374 68.3039 42.6009V42.602Z" fill="white"/>
<path d="M58.3886 42.5C58.3886 51.5058 51.204 58.5894 42.1982 58.5894C33.3944 58.5894 26.2097 51.3039 26.2097 42.3991C26.2097 33.5952 33.4953 26.3096 42.4001 26.3096C51.204 26.4106 58.3886 33.5952 58.3886 42.5ZM31.7751 42.5C31.7751 48.3693 36.5309 53.125 42.4001 53.125C48.2694 53.125 53.0251 48.3693 53.0251 42.5C53.0251 36.7328 48.2694 31.9759 42.4001 31.9759C36.4299 31.9759 31.7751 36.6308 31.7751 42.5ZM59.0941 22.0596C61.2191 22.0596 62.8384 23.6789 62.8384 25.7019C62.8384 27.7259 61.2191 29.4461 59.1951 29.4461C57.1721 29.4461 55.4519 27.8279 55.4519 25.8039C55.4519 23.6789 57.0701 22.0596 59.0941 22.0596Z" fill="white"/>
</g>
</g>
<defs>
<filter id="filter0_i_5_208" x="0" y="-1.0625" width="85" height="86.0625" filterUnits="userSpaceOnUse" color-interpolation-filters="sRGB">
<feFlood flood-opacity="0" result="BackgroundImageFix"/>
<feBlend mode="normal" in="SourceGraphic" in2="BackgroundImageFix" result="shape"/>
<feColorMatrix in="SourceAlpha" type="matrix" values="0 0 0 0 0 0 0 0 0 0 0 0 0 0 0 0 0 0 127 0" result="hardAlpha"/>
<feOffset dy="-1.0625"/>
<feGaussianBlur stdDeviation="0.53125"/>
<feComposite in2="hardAlpha" operator="arithmetic" k2="-1" k3="1"/>
<feColorMatrix type="matrix" values="0 0 0 0 0 0 0 0 0 0 0 0 0 0 0 0 0 0 0.12 0"/>
<feBlend mode="normal" in2="shape" result="effect1_innerShadow_5_208"/>
</filter>
<radialGradient id="paint0_radial_5_208" cx="0" cy="0" r="1" gradientUnits="userSpaceOnUse" gradientTransform="translate(5.50162 83.1374) scale(107.918)">
<stop offset="0.09" stop-color="#FA8F21"/>
<stop offset="0.78" stop-color="#D82D7E"/>
</radialGradient>
<radialGradient id="paint1_radial_5_208" cx="0" cy="0" r="1" gradientUnits="userSpaceOnUse" gradientTransform="translate(58.8763 80.4089) scale(94.9692)">
<stop offset="0.64" stop-color="#8C3AAA" stop-opacity="0"/>
<stop offset="1" stop-color="#8C3AAA"/>
</radialGradient>
<clipPath id="clip0_5_208">
<rect width="85" height="85" fill="white"/>
</clipPath>
</defs>
</svg>
