<svg width="85" height="85" viewBox="0 0 85 85" fill="none" xmlns="http://www.w3.org/2000/svg">
<g clip-path="url(#clip0_18_864)">
<g filter="url(#filter0_i_18_864)">
<path d="M19.2259 0H65.7741C76.3991 0 85 8.60094 85 19.2259V65.7741C85 76.3991 76.3991 85 65.7741 85H19.2259C8.60094 85 0 76.3991 0 65.7741V19.2259C0 8.60094 8.60094 0 19.2259 0Z" fill="#FFFEFF"/>
<path d="M19.2259 0.53125H65.7741C76.1058 0.53125 84.4688 8.89419 84.4688 19.2259V65.7741C84.4688 76.1058 76.1058 84.4688 65.7741 84.4688H19.2259C8.89419 84.4688 0.53125 76.1058 0.53125 65.7741V19.2259C0.53125 8.89419 8.89419 0.53125 19.2259 0.53125Z" fill="white" stroke="black" stroke-opacity="0.05" stroke-width="1.0625"/>
<path d="M41.7775 36.6488L46.3994 32.0269C46.5619 31.8644 47.0486 31.9462 47.2919 32.0269C49.9683 32.9194 51.7523 34.7841 53.2111 37.1354C56.5367 42.6498 55.8068 49.2989 51.3464 53.9219C48.5084 56.8405 45.5887 59.6785 42.7508 62.5175C36.2631 69.004 26.7761 68.4367 21.1809 61.1384C17.7746 56.678 16.9639 51.8128 19.3152 46.7043C19.9633 45.2444 21.0184 43.8664 22.1542 42.6498C23.8563 40.7033 25.8028 39.0012 27.6686 37.1354C27.7493 37.0547 27.9108 36.9729 28.1541 36.8114C27.6675 38.676 27.6675 40.3792 28.0734 42.0814C28.2359 42.8124 28.3974 43.4605 28.6408 44.1097C28.8033 44.5145 28.7215 44.8396 28.3974 45.0829C27.5803 45.8061 26.8211 46.5923 26.1269 47.4342C23.2082 51.2454 24.1814 56.2732 28.4793 59.1111C31.5605 61.2191 35.4524 60.8143 38.2096 58.1379C41.0341 55.3948 43.8185 52.6107 46.5619 49.7866C50.779 45.407 48.7507 38.352 42.7508 36.7306C42.4267 36.8114 42.1026 36.8114 41.7775 36.6488Z" fill="#313131"/>
<path d="M57.9955 47.1102C58.6447 44.5145 58.3206 42.0006 57.4281 39.5685C57.3474 39.406 57.5099 39.0001 57.6725 38.8386C58.3206 38.1087 58.9687 37.5413 59.6169 36.8114C62.4559 33.4857 62.2125 29.189 59.0505 26.027C55.8875 22.7821 51.5089 22.458 48.2651 25.3778C45.1251 28.2069 42.1212 31.1834 39.2636 34.2975C35.2899 38.7568 37.3182 45.3262 43.0748 47.0284C43.3999 47.1102 43.724 47.1909 44.1299 47.3535C43.724 47.7583 43.3999 48.1642 42.9941 48.4882C41.9401 49.5422 40.8053 50.5962 39.7502 51.732C39.4262 52.1379 39.1021 52.1379 38.6962 51.9754C37.2364 51.4887 35.8583 50.678 34.8043 49.5422C29.3707 43.7845 29.1274 36.0804 34.4792 30.243C37.6422 26.8366 40.8861 23.512 44.3732 20.4308C49.8876 15.4838 57.9147 15.8089 63.1858 21.0789C65.5371 23.4313 67.2403 26.1077 67.8077 29.4323C68.5376 33.9734 67.1595 37.8654 64.0783 41.1899C62.2125 43.2172 60.1853 45.0829 58.2388 47.0284C58.2388 47.0284 58.158 47.0284 57.9955 47.1102Z" fill="#313131"/>
</g>
</g>
<defs>
<filter id="filter0_i_18_864" x="0" y="-1.0625" width="85" height="86.0625" filterUnits="userSpaceOnUse" color-interpolation-filters="sRGB">
<feFlood flood-opacity="0" result="BackgroundImageFix"/>
<feBlend mode="normal" in="SourceGraphic" in2="BackgroundImageFix" result="shape"/>
<feColorMatrix in="SourceAlpha" type="matrix" values="0 0 0 0 0 0 0 0 0 0 0 0 0 0 0 0 0 0 127 0" result="hardAlpha"/>
<feOffset dy="-1.0625"/>
<feGaussianBlur stdDeviation="0.53125"/>
<feComposite in2="hardAlpha" operator="arithmetic" k2="-1" k3="1"/>
<feColorMatrix type="matrix" values="0 0 0 0 0 0 0 0 0 0 0 0 0 0 0 0 0 0 0.12 0"/>
<feBlend mode="normal" in2="shape" result="effect1_innerShadow_18_864"/>
</filter>
<clipPath id="clip0_18_864">
<rect width="85" height="85" fill="white"/>
</clipPath>
</defs>
</svg>
