<svg width="85" height="85" viewBox="0 0 85 85" fill="none" xmlns="http://www.w3.org/2000/svg">
<g clip-path="url(#clip0_39_2)">
<g filter="url(#filter0_i_39_2)">
<path d="M19.2259 0H65.7741C76.3991 0 85 8.60094 85 19.2259V65.7741C85 76.3991 76.3991 85 65.7741 85H19.2259C8.60094 85 0 76.3991 0 65.7741V19.2259C0 8.60094 8.60094 0 19.2259 0Z" fill="#FFFEFF"/>
<path d="M19.2259 0.53125H65.7741C76.1058 0.53125 84.4688 8.89419 84.4688 19.2259V65.7741C84.4688 76.1058 76.1058 84.4688 65.7741 84.4688H19.2259C8.89419 84.4688 0.53125 76.1058 0.53125 65.7741V19.2259C0.53125 8.89419 8.89419 0.53125 19.2259 0.53125Z" fill="white" stroke="black" stroke-opacity="0.05" stroke-width="1.0625"/>
<path d="M35.0976 53.8975C32.9226 53.8975 31.5276 51.5759 32.5412 49.6507L42.0484 31.6934L35.1124 17.6004C34.0393 15.4403 30.9836 15.3819 29.8074 17.4835L12.0562 49.5763C10.9831 51.5005 12.3792 53.8667 14.5839 53.8667H26.4722V65.6519C26.4719 66.036 26.5473 66.4163 26.6942 66.7712C26.841 67.1261 27.0564 67.4486 27.328 67.7201C27.5996 67.9917 27.922 68.2071 28.2769 68.3539C28.6318 68.5008 29.0121 68.5762 29.3962 68.5759H35.275C35.6592 68.5763 36.0396 68.501 36.3946 68.3542C36.7496 68.2074 37.0722 67.9921 37.3439 67.7205C37.6156 67.4489 37.831 67.1264 37.978 66.7715C38.1249 66.4165 38.2003 66.0361 38.2001 65.6519V53.8975H35.0986H35.0976Z" fill="#39DF9B"/>
<path d="M73.3051 49.5763L55.5401 17.4834C54.3639 15.3669 51.3071 15.4403 50.2339 17.6003L43.1811 31.7369L52.7616 49.6209C53.7901 51.5461 52.394 53.8826 50.2052 53.8826H47.0454V65.6232C47.0454 66.4066 47.3566 67.1579 47.9105 67.7118C48.4644 68.2657 49.2157 68.5769 49.9991 68.5769H55.8322C56.6156 68.5769 57.3669 68.2657 57.9209 67.7118C58.4748 67.1579 58.786 66.4066 58.786 65.6232V53.8688H70.7774C72.9821 53.8688 74.3782 51.5026 73.3061 49.5784L73.3051 49.5763Z" fill="#28BE7A"/>
</g>
</g>
<defs>
<filter id="filter0_i_39_2" x="0" y="-1.0625" width="85" height="86.0625" filterUnits="userSpaceOnUse" color-interpolation-filters="sRGB">
<feFlood flood-opacity="0" result="BackgroundImageFix"/>
<feBlend mode="normal" in="SourceGraphic" in2="BackgroundImageFix" result="shape"/>
<feColorMatrix in="SourceAlpha" type="matrix" values="0 0 0 0 0 0 0 0 0 0 0 0 0 0 0 0 0 0 127 0" result="hardAlpha"/>
<feOffset dy="-1.0625"/>
<feGaussianBlur stdDeviation="0.53125"/>
<feComposite in2="hardAlpha" operator="arithmetic" k2="-1" k3="1"/>
<feColorMatrix type="matrix" values="0 0 0 0 0 0 0 0 0 0 0 0 0 0 0 0 0 0 0.12 0"/>
<feBlend mode="normal" in2="shape" result="effect1_innerShadow_39_2"/>
</filter>
<clipPath id="clip0_39_2">
<rect width="85" height="85" fill="white"/>
</clipPath>
</defs>
</svg>
