<svg width="85" height="85" viewBox="0 0 85 85" fill="none" xmlns="http://www.w3.org/2000/svg">
<g clip-path="url(#clip0_19_910)">
<g filter="url(#filter0_i_19_910)">
<path d="M19.2259 0H65.7741C76.3991 0 85 8.60094 85 19.2259V65.7741C85 76.3991 76.3991 85 65.7741 85H19.2259C8.60094 85 0 76.3991 0 65.7741V19.2259C0 8.60094 8.60094 0 19.2259 0Z" fill="#FFFEFF"/>
<path d="M19.2259 0.53125H65.7741C76.1058 0.53125 84.4688 8.89419 84.4688 19.2259V65.7741C84.4688 76.1058 76.1058 84.4688 65.7741 84.4688H19.2259C8.89419 84.4688 0.53125 76.1058 0.53125 65.7741V19.2259C0.53125 8.89419 8.89419 0.53125 19.2259 0.53125Z" fill="white" stroke="black" stroke-opacity="0.05" stroke-width="1.0625"/>
<path fill-rule="evenodd" clip-rule="evenodd" d="M41.9294 15.0004C36.5915 15.014 31.3774 16.6096 26.9459 19.5855C22.5144 22.5615 19.0645 26.7841 17.032 31.72C14.9996 36.6559 14.4758 42.0835 15.5268 47.317C16.5779 52.5504 19.1567 57.3549 22.9372 61.1234C26.7178 64.8918 31.5306 67.455 36.7674 68.4892C42.0043 69.5234 47.4301 68.9821 52.3595 66.9337C57.2888 64.8854 61.5003 61.4219 64.4619 56.9808C67.4235 52.5398 69.0023 47.3205 68.9988 41.9826C68.9847 34.8155 66.1253 27.9473 61.0491 22.8877C55.973 17.828 49.0955 14.9911 41.9284 15.0004H41.9294ZM41.9294 66.1778C37.1491 66.1665 32.4793 64.7387 28.51 62.0749C24.5406 59.411 21.4497 55.6306 19.6277 51.211C17.8057 46.7915 17.3343 41.9311 18.2731 37.2438C19.2119 32.5566 21.5187 28.2526 24.9022 24.8757C28.2857 21.4987 32.5941 19.2002 37.2832 18.2705C41.9723 17.3407 46.8317 17.8215 51.2477 19.652C55.6637 21.4825 59.4382 24.5807 62.0944 28.5552C64.7506 32.5297 66.1693 37.2022 66.1714 41.9826C66.1621 48.4036 63.6032 54.5582 59.0573 59.093C54.5113 63.6278 48.3505 66.1716 41.9294 66.1651V66.1778Z" fill="#313131"/>
<path d="M52.785 40.2772V38.0491C52.7838 36.7284 52.5254 35.4206 52.0243 34.1986C51.5282 32.9862 50.797 31.8841 49.8727 30.9559C48.0133 29.0593 45.5026 27.9968 42.8868 28H41.1113C38.4976 27.9979 35.9901 29.0604 34.1307 30.9559C33.2064 31.8834 32.4754 32.9853 31.9802 34.1976C31.4803 35.4201 31.2241 36.7284 31.2258 38.0491V40.2772L29.9986 42.5594V45.8458C30.0008 47.3152 30.2887 48.7687 30.8433 50.1223C31.394 51.4685 32.2054 52.6926 33.2308 53.7242C35.3101 55.8279 38.1076 57.0041 41.0189 56.9999H42.9962C45.9011 56.9999 48.6891 55.8248 50.7609 53.7253C51.7886 52.6945 52.6019 51.4703 53.1537 50.1234C53.7094 48.7698 53.9973 47.3152 53.9994 45.8458V42.5594L52.7839 40.2772H52.785ZM43.1556 50.3624V52.9932C43.1566 53.1866 43.1109 53.3757 43.0217 53.5457C42.9324 53.7157 42.8028 53.8591 42.6456 53.9622H42.1643C42.1072 53.9711 42.0492 53.9711 41.9921 53.9622H41.8774C41.8297 53.9675 41.7816 53.9675 41.7339 53.9622H41.5161C41.3546 53.8547 41.2224 53.7086 41.1315 53.5372C41.0392 53.3641 40.9904 53.1713 40.9891 52.9751V50.3624C40.3197 50.0913 39.7674 49.5928 39.4294 48.9546C39.0845 48.3074 38.9709 47.5619 39.1074 46.8413C39.2412 46.1252 39.6189 45.4775 40.1763 45.0085C40.7242 44.5476 41.4197 44.2994 42.1356 44.3094H42.1993C42.9112 44.2988 43.605 44.5463 44.1575 45.0085C44.7149 45.4775 45.0926 46.1252 45.2264 46.8413C45.3632 47.5617 45.25 48.3073 44.9055 48.9546C44.5672 49.593 44.0145 50.0916 43.3447 50.3624H43.1556ZM48.365 40.3494H35.6363V38.0481C35.6377 37.3184 35.7809 36.5959 36.0581 35.9209C36.3343 35.2473 36.7381 34.6385 37.2481 34.1285C37.7501 33.611 38.3502 33.1986 39.0133 32.9155C39.6764 32.6324 40.3892 32.4841 41.1103 32.4795H42.8868C43.6081 32.4838 44.3213 32.6319 44.9846 32.9153C45.648 33.1986 46.2482 33.6114 46.75 34.1296C47.2568 34.6396 47.6606 35.2494 47.9368 35.922C48.2138 36.5971 48.3573 37.3194 48.3597 38.0491L48.3661 40.3484L48.365 40.3494Z" fill="#00AFF0"/>
</g>
</g>
<defs>
<filter id="filter0_i_19_910" x="0" y="-1.0625" width="85" height="86.0625" filterUnits="userSpaceOnUse" color-interpolation-filters="sRGB">
<feFlood flood-opacity="0" result="BackgroundImageFix"/>
<feBlend mode="normal" in="SourceGraphic" in2="BackgroundImageFix" result="shape"/>
<feColorMatrix in="SourceAlpha" type="matrix" values="0 0 0 0 0 0 0 0 0 0 0 0 0 0 0 0 0 0 127 0" result="hardAlpha"/>
<feOffset dy="-1.0625"/>
<feGaussianBlur stdDeviation="0.53125"/>
<feComposite in2="hardAlpha" operator="arithmetic" k2="-1" k3="1"/>
<feColorMatrix type="matrix" values="0 0 0 0 0 0 0 0 0 0 0 0 0 0 0 0 0 0 0.12 0"/>
<feBlend mode="normal" in2="shape" result="effect1_innerShadow_19_910"/>
</filter>
<clipPath id="clip0_19_910">
<rect width="85" height="85" fill="white"/>
</clipPath>
</defs>
</svg>
