<svg width="85" height="85" viewBox="0 0 85 85" fill="none" xmlns="http://www.w3.org/2000/svg">
<g clip-path="url(#clip0_18_858)">
<g filter="url(#filter0_i_18_858)">
<path d="M19.2259 0H65.7741C76.3991 0 85 8.60094 85 19.2259V65.7741C85 76.3991 76.3991 85 65.7741 85H19.2259C8.60094 85 0 76.3991 0 65.7741V19.2259C0 8.60094 8.60094 0 19.2259 0Z" fill="url(#paint0_linear_18_858)"/>
<path d="M42.6349 19.431C31.5371 19.431 22.5367 28.4325 22.5367 39.5293C22.5367 46.4058 26.0026 52.4992 31.2853 56.133C31.2853 56.133 31.5658 56.3848 31.7613 56.133V51.493C30.0534 49.9733 28.687 48.1087 27.7523 46.0224C26.8175 43.936 26.3356 41.6752 26.3383 39.389C26.3383 30.4162 33.6058 23.1487 42.5786 23.1487C51.5514 23.1487 58.8189 30.4162 58.8189 39.389C58.8189 44.2532 56.6663 48.6137 53.2844 51.6046L53.312 56.133C53.4236 56.2445 53.9835 56.1606 53.9835 56.1606C59.2662 52.5268 62.7321 46.461 62.7321 39.5569C62.7321 28.4325 53.7317 19.431 42.6349 19.431Z" fill="white"/>
<path d="M42.9431 9.56358C26.6188 9.39676 13.0337 22.5898 12.7543 38.9141C12.5311 52.3037 21.0843 63.7086 33.048 67.761C33.1033 67.7886 33.1872 67.7333 33.1872 67.6494L32.6283 63.596C32.6283 63.5407 32.5731 63.4844 32.5168 63.4568C27.7834 61.4658 23.742 58.1234 20.8983 53.8477C18.0545 49.572 16.5344 44.5528 16.5283 39.4177C16.5283 25.2174 28.0447 13.5331 42.2439 13.31C56.8076 13.1145 68.6874 24.854 68.6874 39.389C68.6874 50.2626 62.0064 59.6264 52.5587 63.5396C52.4748 63.5683 52.4184 63.6523 52.3908 63.7638L52.0551 67.6207C52.0551 67.7057 52.1114 67.761 52.1953 67.7333C63.9912 63.7362 72.5167 52.5821 72.5167 39.4177C72.5443 23.0371 59.3236 9.73145 42.9431 9.56251V9.56358Z" fill="white"/>
<path d="M42.6349 44.0576C43.5637 44.0576 44.4833 43.8747 45.3413 43.5193C46.1993 43.1639 46.9789 42.643 47.6356 41.9863C48.2923 41.3296 48.8132 40.55 49.1686 39.692C49.524 38.834 49.7069 37.9143 49.7069 36.9856C49.7069 36.0569 49.524 35.1373 49.1686 34.2793C48.8132 33.4213 48.2923 32.6417 47.6356 31.985C46.9789 31.3283 46.1993 30.8074 45.3413 30.452C44.4833 30.0966 43.5637 29.9136 42.6349 29.9136C40.7593 29.9136 38.9605 30.6587 37.6343 31.985C36.308 33.3112 35.5629 35.11 35.5629 36.9856C35.5629 38.8612 36.308 40.66 37.6343 41.9863C38.9605 43.3126 40.7593 44.0576 42.6349 44.0576ZM35.564 50.4029C38.1076 44.7844 49.2607 46.1263 49.9035 51.0457C50.6579 56.6366 48.1429 71.3108 47.192 73.0713C45.4314 76.2588 39.9808 75.7 38.1076 73.3518C37.0738 72.0662 33.7748 54.3724 35.564 50.4018V50.4029Z" fill="white"/>
</g>
</g>
<defs>
<filter id="filter0_i_18_858" x="0" y="-1.0625" width="85" height="86.0625" filterUnits="userSpaceOnUse" color-interpolation-filters="sRGB">
<feFlood flood-opacity="0" result="BackgroundImageFix"/>
<feBlend mode="normal" in="SourceGraphic" in2="BackgroundImageFix" result="shape"/>
<feColorMatrix in="SourceAlpha" type="matrix" values="0 0 0 0 0 0 0 0 0 0 0 0 0 0 0 0 0 0 127 0" result="hardAlpha"/>
<feOffset dy="-1.0625"/>
<feGaussianBlur stdDeviation="0.53125"/>
<feComposite in2="hardAlpha" operator="arithmetic" k2="-1" k3="1"/>
<feColorMatrix type="matrix" values="0 0 0 0 0 0 0 0 0 0 0 0 0 0 0 0 0 0 0.12 0"/>
<feBlend mode="normal" in2="shape" result="effect1_innerShadow_18_858"/>
</filter>
<linearGradient id="paint0_linear_18_858" x1="42.5" y1="0" x2="42.5" y2="85" gradientUnits="userSpaceOnUse">
<stop stop-color="#D66EFC"/>
<stop offset="1" stop-color="#842BC1"/>
</linearGradient>
<clipPath id="clip0_18_858">
<rect width="85" height="85" fill="white"/>
</clipPath>
</defs>
</svg>
