<svg width="85" height="85" viewBox="0 0 85 85" fill="none" xmlns="http://www.w3.org/2000/svg">
<g clip-path="url(#clip0_5_222)">
<g filter="url(#filter0_i_5_222)">
<path d="M19.2259 0H65.7741C76.3991 0 85 8.60094 85 19.2259V65.7741C85 76.3991 76.3991 85 65.7741 85H19.2259C8.60094 85 0 76.3991 0 65.7741V19.2259C0 8.60094 8.60094 0 19.2259 0Z" fill="url(#paint0_linear_5_222)"/>
<path d="M15.5996 23.3006C15.3999 20.5998 16.4996 18.7 18.7999 17.2996C19.7986 16.7004 20.7995 16.0002 21.7993 15.3999C23.5992 14.3002 25.2992 14.5998 26.4998 16.3997C28.5993 19.5001 30.6 22.5006 32.6995 25.6009C34.1997 27.8003 34.0999 29.3006 32.3999 31.3002C31.9005 31.9005 31.399 32.5008 30.9995 33.1001C29.5991 34.9 29.4992 36.5001 30.7997 38.3998C32.3999 40.5992 34.1997 42.6998 35.9996 44.8003C38.7993 48.0006 42.0994 50.7004 45.5993 53.3003C47.4991 54.6996 49.3 54.5998 51.1987 53.4002C51.8001 52.9996 52.4992 52.5003 53.0995 52.0997C54.8994 50.7004 56.2997 50.6005 58.2994 51.8001C61.3997 53.7997 64.6 55.6995 67.6993 57.7001C69.9996 59.1005 70.3991 60.6008 69.1996 62.9999C68.4994 64.3004 67.6993 65.5 66.7994 66.7006C65.4999 68.6003 63.5991 69.1996 61.3997 69.1996C58.6999 69.3005 56.1999 68.6003 53.7997 67.6005C47.0996 64.8996 41.1995 60.9004 35.8997 56.1C29.3994 50.2998 23.8 43.7006 19.5999 35.9996C17.8001 32.5996 16.2998 29.0998 15.7994 25.3003C15.6995 24.6001 15.6995 23.8999 15.5996 23.2996V23.3006Z" fill="white"/>
</g>
</g>
<defs>
<filter id="filter0_i_5_222" x="0" y="-1.0625" width="85" height="86.0625" filterUnits="userSpaceOnUse" color-interpolation-filters="sRGB">
<feFlood flood-opacity="0" result="BackgroundImageFix"/>
<feBlend mode="normal" in="SourceGraphic" in2="BackgroundImageFix" result="shape"/>
<feColorMatrix in="SourceAlpha" type="matrix" values="0 0 0 0 0 0 0 0 0 0 0 0 0 0 0 0 0 0 127 0" result="hardAlpha"/>
<feOffset dy="-1.0625"/>
<feGaussianBlur stdDeviation="0.53125"/>
<feComposite in2="hardAlpha" operator="arithmetic" k2="-1" k3="1"/>
<feColorMatrix type="matrix" values="0 0 0 0 0 0 0 0 0 0 0 0 0 0 0 0 0 0 0.12 0"/>
<feBlend mode="normal" in2="shape" result="effect1_innerShadow_5_222"/>
</filter>
<linearGradient id="paint0_linear_5_222" x1="42.5" y1="0" x2="42.5" y2="85" gradientUnits="userSpaceOnUse">
<stop stop-color="#8BFB6B"/>
<stop offset="1" stop-color="#19DB1C"/>
</linearGradient>
<clipPath id="clip0_5_222">
<rect width="85" height="85" fill="white"/>
</clipPath>
</defs>
</svg>
