<svg width="85" height="85" viewBox="0 0 85 85" fill="none" xmlns="http://www.w3.org/2000/svg">
<g clip-path="url(#clip0_31_26)">
<g filter="url(#filter0_i_31_26)">
<path d="M19.2259 0H65.7741C76.3991 0 85 8.60094 85 19.2259V65.7741C85 76.3991 76.3991 85 65.7741 85H19.2259C8.60094 85 0 76.3991 0 65.7741V19.2259C0 8.60094 8.60094 0 19.2259 0Z" fill="url(#paint0_linear_31_26)"/>
<path d="M62.9574 27.9905C62.8998 28.35 62.8361 28.7084 62.7661 29.0657C60.3001 41.4821 51.8606 45.7725 41.0837 45.7725H35.5959C34.2784 45.7725 33.167 46.7107 32.9609 47.9857L30.1516 65.4564L29.3569 70.4087C29.223 71.2459 29.8807 72.0003 30.7424 72.0003H40.4749C41.6277 72.0003 42.6063 71.179 42.7879 70.0644L42.8836 69.5799L44.7164 58.1772L44.8333 57.5514C45.0139 56.4336 45.9946 55.6123 47.1474 55.6123H48.603C58.0327 55.6123 65.4139 51.8585 67.5718 40.9955C68.4728 36.4586 68.0074 32.6687 65.6221 30.0039C64.8996 29.2007 64.005 28.5334 62.9574 27.9905Z" fill="#ADD0E5"/>
<path d="M60.3787 26.9811C59.5905 26.7575 58.7893 26.5829 57.9796 26.4584C56.4995 26.2246 54.8792 26.113 53.142 26.113H38.4816C38.1204 26.113 37.7783 26.1927 37.4712 26.3372C36.7944 26.656 36.2918 27.2839 36.1707 28.0521L33.0523 47.4194L32.9619 47.9846C33.1681 46.7096 34.2794 45.7714 35.5969 45.7714H41.0837C51.8617 45.7714 60.3001 41.48 62.7672 29.0647C62.8416 28.697 62.9032 28.34 62.9584 27.9894C62.3067 27.6541 61.6282 27.3734 60.9301 27.15C60.7469 27.0904 60.5627 27.0337 60.3776 26.98L60.3787 26.9811Z" fill="#E6EFF6"/>
<path d="M36.1707 28.0521C36.2309 27.6821 36.3809 27.3326 36.6077 27.0342C36.8344 26.7358 37.1309 26.4975 37.4712 26.3404C37.7793 26.1948 38.1204 26.1151 38.4816 26.1151H53.142C54.8781 26.1151 56.4995 26.2267 57.9796 26.4604C58.9804 26.6146 59.9679 26.8455 60.9333 27.1511C61.6601 27.388 62.3358 27.6674 62.9606 27.9904C63.6937 23.4004 62.9542 20.2767 60.4244 17.4483C57.6343 14.3331 52.5991 12.9996 46.1571 12.9996H27.4529C26.1364 12.9996 25.0144 13.9389 24.8104 15.2149L17.0213 63.6331C16.8672 64.5914 17.6216 65.4563 18.6065 65.4563H30.1537L33.0533 47.4204L36.1717 28.0521H36.1707Z" fill="white"/>
</g>
</g>
<defs>
<filter id="filter0_i_31_26" x="0" y="-1.0625" width="85" height="86.0625" filterUnits="userSpaceOnUse" color-interpolation-filters="sRGB">
<feFlood flood-opacity="0" result="BackgroundImageFix"/>
<feBlend mode="normal" in="SourceGraphic" in2="BackgroundImageFix" result="shape"/>
<feColorMatrix in="SourceAlpha" type="matrix" values="0 0 0 0 0 0 0 0 0 0 0 0 0 0 0 0 0 0 127 0" result="hardAlpha"/>
<feOffset dy="-1.0625"/>
<feGaussianBlur stdDeviation="0.53125"/>
<feComposite in2="hardAlpha" operator="arithmetic" k2="-1" k3="1"/>
<feColorMatrix type="matrix" values="0 0 0 0 0 0 0 0 0 0 0 0 0 0 0 0 0 0 0.12 0"/>
<feBlend mode="normal" in2="shape" result="effect1_innerShadow_31_26"/>
</filter>
<linearGradient id="paint0_linear_31_26" x1="9.00044" y1="4.49969" x2="79.4994" y2="80.9997" gradientUnits="userSpaceOnUse">
<stop stop-color="#002B6F"/>
<stop offset="1" stop-color="#0097D9"/>
</linearGradient>
<clipPath id="clip0_31_26">
<rect width="85" height="85" fill="white"/>
</clipPath>
</defs>
</svg>
