<svg width="85" height="85" viewBox="0 0 85 85" fill="none" xmlns="http://www.w3.org/2000/svg">
<g clip-path="url(#clip0_31_20)">
<g filter="url(#filter0_i_31_20)">
<path d="M19.2259 0H65.7741C76.3991 0 85 8.60094 85 19.2259V65.7741C85 76.3991 76.3991 85 65.7741 85H19.2259C8.60094 85 0 76.3991 0 65.7741V19.2259C0 8.60094 8.60094 0 19.2259 0Z" fill="#FFFEFF"/>
<path d="M19.2259 0.53125H65.7741C76.1058 0.53125 84.4688 8.89419 84.4688 19.2259V65.7741C84.4688 76.1058 76.1058 84.4688 65.7741 84.4688H19.2259C8.89419 84.4688 0.53125 76.1058 0.53125 65.7741V19.2259C0.53125 8.89419 8.89419 0.53125 19.2259 0.53125Z" fill="white" stroke="black" stroke-opacity="0.05" stroke-width="1.0625"/>
<path d="M42.5287 8.00057C23.4589 8.00057 7.99956 23.4345 7.99956 42.4713C7.99956 57.0828 17.0946 69.5671 29.9391 74.5885C29.6267 71.8643 29.3707 67.6653 30.0528 64.686C30.6776 61.9915 34.0882 47.55 34.0882 47.55C34.0882 47.55 33.065 45.4781 33.065 42.4436C33.065 37.6486 35.8498 34.0733 39.3168 34.0733C42.2726 34.0733 43.6942 36.2864 43.6942 38.9246C43.6942 41.8763 41.8179 46.3016 40.8234 50.4156C39.9989 53.8485 42.5563 56.6578 45.9383 56.6578C52.0774 56.6578 56.7938 50.1882 56.7938 40.8828C56.7938 32.6272 50.8544 26.8674 42.3576 26.8674C32.5253 26.8674 26.7559 34.2156 26.7559 41.8189C26.7559 44.7695 27.8927 47.9474 29.3133 49.6782C29.5981 50.0182 29.6267 50.3306 29.5407 50.6706C29.2857 51.749 28.6886 54.1035 28.5738 54.5859C28.4325 55.2106 28.0638 55.352 27.4093 55.0406C23.0903 53.0261 20.3904 46.7553 20.3904 41.6776C20.3904 30.8114 28.2912 20.8239 43.2108 20.8239C55.1746 20.8239 64.4959 29.3345 64.4959 40.7405C64.4959 52.6288 56.9936 62.1902 46.5928 62.1902C43.0971 62.1902 39.8002 60.3733 38.692 58.2175L36.5319 66.4179C35.7648 69.4248 33.6621 73.1701 32.2405 75.4683C35.5555 76.4869 39.0044 77.0033 42.4724 77.0004C61.54 77.0004 76.9994 61.5654 76.9994 42.5286C77.0568 23.4345 61.5974 7.99951 42.5287 7.99951V8.00057Z" fill="#E60023"/>
</g>
</g>
<defs>
<filter id="filter0_i_31_20" x="0" y="-1.0625" width="85" height="86.0625" filterUnits="userSpaceOnUse" color-interpolation-filters="sRGB">
<feFlood flood-opacity="0" result="BackgroundImageFix"/>
<feBlend mode="normal" in="SourceGraphic" in2="BackgroundImageFix" result="shape"/>
<feColorMatrix in="SourceAlpha" type="matrix" values="0 0 0 0 0 0 0 0 0 0 0 0 0 0 0 0 0 0 127 0" result="hardAlpha"/>
<feOffset dy="-1.0625"/>
<feGaussianBlur stdDeviation="0.53125"/>
<feComposite in2="hardAlpha" operator="arithmetic" k2="-1" k3="1"/>
<feColorMatrix type="matrix" values="0 0 0 0 0 0 0 0 0 0 0 0 0 0 0 0 0 0 0.12 0"/>
<feBlend mode="normal" in2="shape" result="effect1_innerShadow_31_20"/>
</filter>
<clipPath id="clip0_31_20">
<rect width="85" height="85" fill="white"/>
</clipPath>
</defs>
</svg>
