<svg width="85" height="85" viewBox="0 0 85 85" fill="none" xmlns="http://www.w3.org/2000/svg">
<g clip-path="url(#clip0_18_845)">
<g filter="url(#filter0_i_18_845)">
<path d="M19.2259 0H65.7741C76.3991 0 85 8.60094 85 19.2259V65.7741C85 76.3991 76.3991 85 65.7741 85H19.2259C8.60094 85 0 76.3991 0 65.7741V19.2259C0 8.60094 8.60094 0 19.2259 0Z" fill="url(#paint0_linear_18_845)"/>
<path d="M9.00149 44.8056C8.96576 44.805 8.93027 44.8116 8.89714 44.8251C8.864 44.8385 8.83391 44.8584 8.80863 44.8837C8.78336 44.909 8.76342 44.9391 8.75001 44.9722C8.7366 45.0053 8.72998 45.0408 8.73056 45.0765L8.22162 48.8686L8.73056 52.5927C8.76456 52.7627 8.86549 52.8636 9.00149 52.8636C9.13643 52.8636 9.23843 52.7616 9.27243 52.5927L9.88231 48.8686L9.27243 45.0765C9.2677 45.0062 9.23764 44.94 9.18782 44.8902C9.138 44.8404 9.07179 44.8103 9.00149 44.8056ZM11.8139 42.7401C11.7799 42.5712 11.679 42.4692 11.543 42.4692C11.5073 42.4686 11.4718 42.4752 11.4386 42.4886C11.4055 42.502 11.3754 42.522 11.3501 42.5472C11.3249 42.5725 11.3049 42.6026 11.2915 42.6357C11.2781 42.6689 11.2715 42.7044 11.2721 42.7401L10.5942 48.9026L11.2721 54.928C11.3061 55.098 11.407 55.199 11.543 55.199C11.5787 55.1996 11.6142 55.1929 11.6474 55.1795C11.6805 55.1661 11.7106 55.1462 11.7359 55.1209C11.7611 55.0956 11.7811 55.0655 11.7945 55.0324C11.8079 54.9993 11.8145 54.9638 11.8139 54.928L12.5938 48.9026L11.8139 42.7401ZM22.4549 37.0525C22.3212 37.0558 22.1939 37.1103 22.0993 37.2049C22.0048 37.2994 21.9502 37.4267 21.947 37.5604L21.4051 48.8686L21.947 56.1807C21.9502 56.3144 22.0048 56.4417 22.0993 56.5363C22.1939 56.6308 22.3212 56.6854 22.4549 56.6886C22.5887 56.6856 22.7163 56.6312 22.8111 56.5366C22.9059 56.442 22.9606 56.3146 22.9638 56.1807L23.5737 48.8686L22.9638 37.5604C22.9298 37.2895 22.7258 37.0525 22.4549 37.0525ZM16.9309 40.9806C16.728 40.9806 16.5591 41.1495 16.524 41.3865L15.9141 48.8686L16.5251 56.1138C16.5251 56.3507 16.7269 56.5197 16.9309 56.5197C17.1349 56.5197 17.3039 56.3497 17.3379 56.1138L18.0157 48.8675L17.3379 41.3865C17.3365 41.279 17.2932 41.1763 17.2172 41.1003C17.1411 41.0242 17.0384 40.9809 16.9309 40.9795V40.9806ZM28.0128 56.7226C28.3517 56.7226 28.6227 56.4517 28.6567 56.0798L29.1986 48.9026L28.6567 33.8364C28.6508 33.6675 28.5811 33.5073 28.4616 33.3879C28.342 33.2686 28.1816 33.1991 28.0128 33.1935C27.6739 33.1935 27.4029 33.4645 27.3689 33.8364L26.894 48.9026L27.3689 56.0798C27.4029 56.4517 27.6739 56.7226 28.0128 56.7226ZM39.4666 56.7566C39.9415 56.7566 40.3144 56.3847 40.3484 55.8769L40.7203 48.9026L40.3484 31.501C40.3443 31.2685 40.2501 31.0467 40.0855 30.8823C39.921 30.718 39.6991 30.624 39.4666 30.6202C38.9927 30.6202 38.6197 30.992 38.5857 31.501L38.2468 48.9026L38.5868 55.9098C38.5868 56.3507 38.9927 56.7566 39.4666 56.7566ZM33.7057 56.7226C33.9027 56.7212 34.0913 56.6425 34.2308 56.5034C34.3703 56.3642 34.4496 56.1759 34.4516 55.9789L34.8925 48.9026L34.4516 33.7354C34.4499 33.5382 34.3707 33.3496 34.2312 33.2102C34.0916 33.0709 33.9029 32.992 33.7057 32.9906C33.5089 32.9925 33.3208 33.0715 33.1815 33.2105C33.0423 33.3496 32.9631 33.5376 32.9609 33.7344L32.5539 48.9026L32.9609 55.9789C32.9609 56.3847 33.2998 56.7226 33.7057 56.7226ZM19.6764 56.6546C19.9134 56.6546 20.1163 56.4527 20.1503 56.2147L20.7942 48.9026L20.1503 41.9284C20.1163 41.6574 19.9474 41.4874 19.6764 41.4874C19.4395 41.4874 19.2355 41.6914 19.2015 41.9284L18.6256 48.8686L19.2015 56.1807C19.2355 56.4517 19.4395 56.6557 19.6764 56.6557V56.6546ZM14.2205 56.2487C14.3103 56.2484 14.3963 56.2127 14.4598 56.1491C14.5234 56.0856 14.5592 55.9996 14.5594 55.9098L15.2713 48.8686L14.5594 41.5554C14.5254 41.3525 14.3894 41.2175 14.2194 41.2175C14.13 41.2181 14.0444 41.2539 13.9811 41.3171C13.9179 41.3804 13.8821 41.466 13.8816 41.5554L13.2377 48.8686L13.8816 55.9098C13.9156 56.1138 14.0516 56.2498 14.2205 56.2498V56.2487ZM36.5521 33.4645C36.445 33.4631 36.3386 33.4831 36.2394 33.5234C36.1401 33.5638 36.05 33.6236 35.9742 33.6994C35.8984 33.7751 35.8386 33.8653 35.7983 33.9646C35.7579 34.0638 35.7379 34.1702 35.7393 34.2773L35.3674 48.9026L35.7393 55.9438C35.7393 56.3847 36.1112 56.7566 36.5521 56.7566C36.6593 56.7582 36.7658 56.7382 36.8652 56.698C36.9646 56.6577 37.0549 56.5979 37.1307 56.5221C37.2066 56.4463 37.2665 56.3561 37.3069 56.2568C37.3473 56.1574 37.3674 56.051 37.366 55.9438L37.7729 48.9026L37.366 34.2762C37.3673 34.1691 37.3471 34.0628 37.3066 33.9636C37.2662 33.8644 37.2062 33.7743 37.1304 33.6986C37.0545 33.6229 36.9642 33.5632 36.8649 33.523C36.7656 33.4828 36.6593 33.4629 36.5521 33.4645ZM25.2344 56.7226C25.3102 56.7233 25.3854 56.7089 25.4556 56.6802C25.5258 56.6515 25.5895 56.6091 25.6432 56.5555C25.6968 56.5019 25.7392 56.4381 25.7679 56.3679C25.7965 56.2978 25.811 56.2226 25.8102 56.1467L26.3861 48.8686L25.8102 34.9541C25.8057 34.8026 25.7434 34.6586 25.6362 34.5516C25.5289 34.4445 25.3848 34.3825 25.2333 34.3782C25.1575 34.3775 25.0823 34.3919 25.0121 34.4206C24.9419 34.4493 24.8781 34.4917 24.8245 34.5453C24.7709 34.5989 24.7285 34.6627 24.6998 34.7329C24.6711 34.8031 24.6567 34.8783 24.6574 34.9541L24.1496 48.8686L24.6574 56.1467C24.6574 56.4867 24.9284 56.7226 25.2344 56.7226ZM31.5371 56.0458L32.0121 48.9026L31.5371 33.3285C31.5363 33.1491 31.4646 32.9772 31.3376 32.8505C31.2106 32.7237 31.0387 32.6522 30.8592 32.6517C30.6798 32.6522 30.5079 32.7237 30.3809 32.8505C30.2539 32.9772 30.1822 33.1491 30.1814 33.3285L29.7404 48.9026L30.1814 56.0458C30.1814 56.4177 30.4863 56.7226 30.8592 56.7226C31.0387 56.722 31.2106 56.6506 31.3376 56.5238C31.4646 56.397 31.5363 56.2252 31.5371 56.0458ZM68.34 39.9309C67.224 39.9314 66.1189 40.1497 65.0866 40.5737C64.4087 32.9906 58.038 27.0321 50.2775 27.0321C48.3799 27.0321 46.5162 27.404 44.8896 28.0479C44.2457 28.2848 44.0757 28.5547 44.0757 29.0296V55.7409C44.0757 56.2487 44.4826 56.6886 44.9905 56.7226H68.374C73.0171 56.7226 76.8124 52.9645 76.8124 48.2927C76.7784 43.6889 72.9821 39.9309 68.34 39.9309ZM42.347 28.9956C42.2269 28.9952 42.1079 29.0185 41.9968 29.0643C41.8858 29.1101 41.7849 29.1774 41.6999 29.2623C41.615 29.3472 41.5477 29.4481 41.5019 29.5592C41.4562 29.6702 41.4328 29.7892 41.4332 29.9094L41.0592 48.8686L41.4322 55.7409C41.4322 56.2487 41.8391 56.6546 42.347 56.6546C42.4673 56.6553 42.5865 56.6322 42.6978 56.5865C42.8091 56.5409 42.9103 56.4736 42.9954 56.3887C43.0806 56.3037 43.1481 56.2027 43.194 56.0915C43.2399 55.9803 43.2633 55.8612 43.2629 55.7409L43.6687 48.8686L43.2629 29.9094C43.258 29.6682 43.1598 29.4383 42.9891 29.2679C42.8183 29.0976 42.5882 29 42.347 28.9956Z" fill="white"/>
</g>
</g>
<defs>
<filter id="filter0_i_18_845" x="0" y="-1.0625" width="85" height="86.0625" filterUnits="userSpaceOnUse" color-interpolation-filters="sRGB">
<feFlood flood-opacity="0" result="BackgroundImageFix"/>
<feBlend mode="normal" in="SourceGraphic" in2="BackgroundImageFix" result="shape"/>
<feColorMatrix in="SourceAlpha" type="matrix" values="0 0 0 0 0 0 0 0 0 0 0 0 0 0 0 0 0 0 127 0" result="hardAlpha"/>
<feOffset dy="-1.0625"/>
<feGaussianBlur stdDeviation="0.53125"/>
<feComposite in2="hardAlpha" operator="arithmetic" k2="-1" k3="1"/>
<feColorMatrix type="matrix" values="0 0 0 0 0 0 0 0 0 0 0 0 0 0 0 0 0 0 0.12 0"/>
<feBlend mode="normal" in2="shape" result="effect1_innerShadow_18_845"/>
</filter>
<linearGradient id="paint0_linear_18_845" x1="42.5" y1="0" x2="42.5" y2="85" gradientUnits="userSpaceOnUse">
<stop stop-color="#FF9B01"/>
<stop offset="1" stop-color="#FF1F00"/>
</linearGradient>
<clipPath id="clip0_18_845">
<rect width="85" height="85" fill="white"/>
</clipPath>
</defs>
</svg>
