<svg width="85" height="85" viewBox="0 0 85 85" fill="none" xmlns="http://www.w3.org/2000/svg">
<g filter="url(#filter0_i_18_266)">
<path d="M19.2259 0H65.7741C76.3991 0 85 8.60094 85 19.2259V65.7741C85 76.3991 76.3991 85 65.7741 85H19.2259C8.60094 85 0 76.3991 0 65.7741V19.2259C0 8.60094 8.60094 0 19.2259 0Z" fill="#FFFEFF"/>
<path d="M19.2259 0.53125H65.7741C76.1058 0.53125 84.4688 8.89419 84.4688 19.2259V65.7741C84.4688 76.1058 76.1058 84.4688 65.7741 84.4688H19.2259C8.89419 84.4688 0.53125 76.1058 0.53125 65.7741V19.2259C0.53125 8.89419 8.89419 0.53125 19.2259 0.53125Z" fill="white" stroke="black" stroke-opacity="0.05" stroke-width="1.0625"/>
<g filter="url(#filter1_d_18_266)">
<path d="M42.5 74.9062C60.69 74.9062 75.4375 60.1588 75.4375 41.9688C75.4375 23.7787 60.69 9.03125 42.5 9.03125C24.31 9.03125 9.5625 23.7787 9.5625 41.9688C9.5625 60.1588 24.31 74.9062 42.5 74.9062Z" fill="url(#paint0_linear_18_266)"/>
</g>
<path d="M42.5 72.436C59.3258 72.436 72.9661 58.7956 72.9661 41.9688C72.9661 25.142 59.3258 11.5016 42.4989 11.5016C25.6721 11.5016 12.0318 25.142 12.0318 41.9688C12.0318 58.7956 25.6732 72.436 42.4989 72.436H42.5Z" fill="url(#paint1_radial_18_266)"/>
<path d="M42.5521 18.9125C42.3459 18.9125 42.1653 18.7584 42.1653 18.5523V13.1739C42.1653 12.9688 42.3459 12.8137 42.5521 12.8137C42.7582 12.8137 42.9377 12.9688 42.9377 13.175V18.5523C42.9122 18.7584 42.7571 18.9125 42.5521 18.9125Z" fill="#F3F3F3"/>
<path d="M42.551 18.938C42.3194 18.938 42.1387 18.7574 42.1387 18.5523V13.174C42.1387 12.9689 42.3194 12.7883 42.551 12.7883C42.7826 12.7883 42.9622 12.9689 42.9622 13.174V18.5523C42.9622 18.7585 42.7561 18.938 42.551 18.938ZM42.551 12.8393C42.3704 12.8393 42.1897 12.9944 42.1897 13.174V18.5523C42.1897 18.733 42.3449 18.887 42.551 18.887C42.7316 18.887 42.9112 18.733 42.9112 18.5523V13.174C42.8857 12.9933 42.7306 12.8393 42.5499 12.8393H42.551Z" fill="white"/>
<path d="M45.1265 16.031C44.9204 16.0044 44.7653 15.8503 44.7653 15.6442L44.9459 13.2515C44.9509 13.2024 44.9656 13.1548 44.9891 13.1114C45.0125 13.068 45.0443 13.0297 45.0826 12.9986C45.1209 12.9675 45.1649 12.9443 45.2122 12.9303C45.2595 12.9162 45.3091 12.9116 45.3581 12.9168C45.5643 12.9423 45.7183 13.0974 45.7183 13.3035L45.5377 15.6963C45.5275 15.7952 45.4785 15.886 45.4014 15.9487C45.3243 16.0115 45.2254 16.0411 45.1265 16.031Z" fill="#F3F3F3"/>
<path d="M45.1244 16.0565C45.0201 16.0485 44.9227 16.0017 44.8513 15.9254C44.7799 15.8491 44.7397 15.7488 44.7387 15.6442L44.9193 13.2515C44.9448 13.0454 45.1254 12.8658 45.3571 12.8902C45.4612 12.8984 45.5585 12.9453 45.6298 13.0216C45.7012 13.0978 45.7415 13.198 45.7427 13.3025L45.5621 15.6963C45.5366 15.9279 45.3571 16.082 45.1254 16.0565H45.1244ZM45.3571 12.9434C45.1764 12.9434 44.9958 13.0709 44.9958 13.2515L44.8152 15.6453C44.8152 15.8249 44.9448 15.9789 45.1509 16.0044C45.3316 16.0044 45.5111 15.8769 45.5111 15.6963L45.6917 13.3025C45.6917 13.1219 45.5366 12.9689 45.356 12.9423L45.3571 12.9434Z" fill="white"/>
<path d="M47.056 19.3757C46.9591 19.3547 46.8736 19.2981 46.8165 19.217C46.7595 19.1359 46.735 19.0363 46.7479 18.938L47.8019 13.6627C47.8539 13.4576 48.0335 13.328 48.2396 13.3801C48.3365 13.4011 48.422 13.4577 48.4791 13.5388C48.5361 13.6199 48.5607 13.7195 48.5477 13.8178L47.4937 19.0931C47.4672 19.2727 47.2611 19.4012 47.056 19.3757Z" fill="#F3F3F3"/>
<path d="M47.0549 19.4013C46.951 19.3806 46.8587 19.3214 46.7966 19.2354C46.7345 19.1495 46.7072 19.0432 46.7203 18.938L47.7753 13.6627C47.8006 13.5578 47.8659 13.467 47.9571 13.4094C48.0484 13.3519 48.1585 13.3322 48.2641 13.3546C48.4957 13.4056 48.6253 13.6117 48.5988 13.8178L47.5437 19.0932C47.4916 19.2982 47.2866 19.4278 47.0549 19.4013ZM48.2641 13.4056C48.1759 13.3912 48.0854 13.4093 48.0096 13.4566C47.9338 13.5039 47.8777 13.5772 47.8518 13.6627L46.7978 18.9391C46.7838 19.0307 46.8052 19.1242 46.8577 19.2006C46.9102 19.277 46.9899 19.3305 47.0804 19.3503C47.1685 19.3642 47.2585 19.3458 47.3341 19.2985C47.4096 19.2513 47.4656 19.1784 47.4916 19.0932L48.5467 13.8178C48.5733 13.6117 48.4447 13.4566 48.2641 13.4056Z" fill="white"/>
<path d="M50.1415 17.0595C50.0924 17.0478 50.0462 17.0265 50.0054 16.9968C49.9646 16.9671 49.9301 16.9297 49.9038 16.8867C49.8775 16.8436 49.8601 16.7958 49.8523 16.7459C49.8446 16.6961 49.8468 16.6452 49.8589 16.5962L50.5027 14.28C50.5537 14.0749 50.7599 13.9719 50.9649 14.0229C51.014 14.0346 51.0603 14.0559 51.1011 14.0855C51.142 14.1152 51.1766 14.1526 51.2029 14.1956C51.2293 14.2386 51.2469 14.2865 51.2547 14.3363C51.2626 14.3862 51.2605 14.4371 51.2486 14.4861L50.6047 16.8024C50.5537 17.0085 50.3476 17.1105 50.1415 17.0595Z" fill="#F3F3F3"/>
<path d="M50.1436 17.085C49.9375 17.034 49.7824 16.8024 49.8599 16.5963L50.5038 14.28C50.5548 14.0749 50.7864 13.9464 50.9926 13.9974C51.1987 14.0494 51.3527 14.2811 51.2752 14.4861L50.6324 16.8024C50.5803 17.0085 50.3742 17.1371 50.1436 17.0861V17.085ZM50.9926 14.0749C50.8119 14.0229 50.6058 14.127 50.5548 14.3066L49.912 16.6228C49.8599 16.8024 49.963 16.983 50.1691 17.034C50.3497 17.0861 50.5548 16.983 50.6058 16.8024L51.2497 14.4861C51.2636 14.3981 51.2452 14.308 51.1979 14.2325C51.1507 14.1569 51.0778 14.101 50.9926 14.0749Z" fill="white"/>
<path d="M51.4037 20.6879C51.3576 20.6701 51.3155 20.6431 51.2799 20.6086C51.2444 20.5742 51.2162 20.5329 51.1969 20.4873C51.1777 20.4417 51.1679 20.3927 51.168 20.3432C51.1681 20.2937 51.1782 20.2447 51.1976 20.1992L53.2557 15.233C53.3332 15.0524 53.5649 14.9493 53.7444 15.0524C53.9506 15.13 54.0281 15.3616 53.9506 15.5412L51.8925 20.5083C51.8149 20.689 51.5833 20.791 51.4037 20.689V20.6879Z" fill="#F3F3F3"/>
<path d="M51.4027 20.7135C51.3039 20.6758 51.224 20.6006 51.1806 20.5042C51.1372 20.4078 51.1338 20.2981 51.1711 20.1992L53.2302 15.2331C53.3067 15.027 53.5383 14.9494 53.7699 15.027C53.8685 15.0648 53.9482 15.1401 53.9916 15.2364C54.035 15.3327 54.0386 15.4423 54.0016 15.5412L51.9435 20.5084C51.8404 20.7145 51.6088 20.8165 51.4027 20.7145V20.7135ZM53.7444 15.078C53.7022 15.0591 53.6566 15.0489 53.6104 15.0478C53.5642 15.0467 53.5182 15.0547 53.4751 15.0715C53.432 15.0883 53.3927 15.1135 53.3594 15.1456C53.3261 15.1777 53.2995 15.2161 53.2812 15.2586L51.2221 20.2247C51.1456 20.4053 51.2486 20.586 51.4282 20.6625C51.6088 20.74 51.8149 20.6625 51.8914 20.4818L53.9506 15.5157C53.9752 15.4301 53.9679 15.3385 53.93 15.258C53.8921 15.1774 53.8261 15.1134 53.7444 15.078Z" fill="white"/>
<path d="M54.8771 19.0411C54.6964 18.938 54.6199 18.7329 54.6964 18.5523L55.777 16.4167C55.8002 16.3723 55.8321 16.3329 55.8707 16.3009C55.9093 16.269 55.954 16.2451 56.002 16.2306C56.05 16.2162 56.1004 16.2115 56.1503 16.2168C56.2001 16.2221 56.2484 16.2373 56.2923 16.2616C56.4729 16.3657 56.5494 16.5708 56.4729 16.7503L55.3913 18.8859C55.3681 18.9303 55.3363 18.9695 55.2977 19.0013C55.2592 19.0332 55.2146 19.0571 55.1668 19.0715C55.1189 19.0859 55.0686 19.0907 55.0188 19.0855C54.9691 19.0802 54.9209 19.0652 54.8771 19.0411Z" fill="#F3F3F3"/>
<path d="M54.8781 19.0666C54.8299 19.044 54.7868 19.0118 54.7515 18.9721C54.7161 18.9323 54.6891 18.8858 54.6722 18.8354C54.6553 18.7849 54.6489 18.7315 54.6532 18.6785C54.6575 18.6255 54.6726 18.5738 54.6975 18.5268L55.7781 16.3912C55.8006 16.3429 55.8328 16.2996 55.8726 16.2641C55.9125 16.2287 55.9591 16.2016 56.0097 16.1847C56.0603 16.1678 56.1138 16.1614 56.1669 16.1659C56.2201 16.1703 56.2718 16.1855 56.3189 16.2106C56.3672 16.2331 56.4104 16.2653 56.4459 16.3051C56.4814 16.345 56.5084 16.3916 56.5253 16.4422C56.5422 16.4928 56.5486 16.5463 56.5442 16.5994C56.5398 16.6526 56.5246 16.7043 56.4995 16.7514L55.4179 18.887C55.3953 18.9352 55.3631 18.9783 55.3234 19.0137C55.2837 19.0491 55.2372 19.076 55.1867 19.0929C55.1362 19.1098 55.0829 19.1163 55.0298 19.1119C54.9768 19.1076 54.9252 19.0925 54.8781 19.0676V19.0666ZM56.2934 16.2616C56.1127 16.1851 55.9066 16.2361 55.8301 16.4167L54.7496 18.5523C54.672 18.7064 54.7496 18.9125 54.9036 19.0156C55.0843 19.0931 55.2893 19.0411 55.3669 18.8615L56.4474 16.7259C56.525 16.5707 56.4474 16.3646 56.2934 16.2616Z" fill="white"/>
<path d="M55.3934 22.8501C55.2128 22.7205 55.1618 22.4889 55.2904 22.3348L58.276 17.883C58.378 17.7023 58.6096 17.6768 58.7903 17.781C58.9709 17.9085 59.0219 18.1401 58.8933 18.2952L55.9077 22.7471C55.883 22.7902 55.8493 22.8274 55.809 22.8564C55.7687 22.8855 55.7226 22.9055 55.6739 22.9153C55.6252 22.925 55.575 22.9243 55.5267 22.913C55.4783 22.9018 55.4329 22.8804 55.3934 22.8501Z" fill="#F3F3F3"/>
<path d="M55.3913 22.8756C55.3057 22.8122 55.2456 22.7201 55.2222 22.6162C55.1988 22.5122 55.2136 22.4033 55.2638 22.3093L58.2484 17.8574C58.3098 17.7689 58.4038 17.7084 58.5097 17.6891C58.6157 17.6698 58.725 17.6932 58.8136 17.7544C58.9943 17.8829 59.0453 18.1401 58.9433 18.3207L55.9576 22.7726C55.8955 22.8604 55.8014 22.9204 55.6955 22.9397C55.5896 22.959 55.4804 22.936 55.3913 22.8756ZM58.7881 17.8064C58.6341 17.7034 58.4024 17.7289 58.2994 17.8829L55.3138 22.3348C55.29 22.372 55.2739 22.4136 55.2663 22.457C55.2587 22.5005 55.2598 22.545 55.2694 22.5881C55.2791 22.6311 55.2972 22.6719 55.3227 22.7079C55.3482 22.7439 55.3805 22.7746 55.4179 22.7981C55.5719 22.9011 55.8036 22.8756 55.9066 22.7205L58.8923 18.2952C58.9399 18.2156 58.9557 18.121 58.9364 18.0303C58.9171 17.9396 58.8641 17.8596 58.7881 17.8064Z" fill="white"/>
<path d="M59.1472 21.8981C58.9932 21.7685 58.9422 21.5369 59.0707 21.3828L60.5625 19.5043C60.6241 19.4296 60.7128 19.3823 60.8091 19.3728C60.9055 19.3632 61.0017 19.3922 61.0767 19.4533C61.2308 19.5808 61.2829 19.8135 61.1532 19.9675L59.6615 21.846C59.6 21.9209 59.5115 21.9684 59.4151 21.9781C59.3188 21.9879 59.2225 21.9591 59.1472 21.8981Z" fill="#F3F3F3"/>
<path d="M59.1239 21.9237C58.9432 21.794 58.9188 21.5369 59.0474 21.3573L60.5391 19.4788C60.6677 19.2982 60.9259 19.2727 61.1054 19.4278C61.2861 19.5553 61.3116 19.8135 61.183 19.9931L59.6902 21.8716C59.5627 22.0522 59.3045 22.0777 59.1239 21.9237ZM61.0544 19.4788C60.9004 19.3503 60.6932 19.3758 60.5657 19.5298L59.0729 21.4083C59.0218 21.4845 59.0013 21.5771 59.0155 21.6677C59.0297 21.7583 59.0775 21.8402 59.1494 21.8971C59.3045 22.0257 59.5106 22.0002 59.6381 21.8461L61.1309 19.9676C61.234 19.8135 61.2085 19.5819 61.0544 19.4788Z" fill="white"/>
<path d="M58.8912 25.7571C58.7371 25.6031 58.7371 25.3715 58.8912 25.2429L62.6992 21.4604C62.7675 21.3921 62.8602 21.3537 62.9568 21.3537C63.0535 21.3537 63.1462 21.3921 63.2145 21.4604C63.3431 21.5879 63.3686 21.8461 63.2145 21.9746L59.432 25.7571C59.3972 25.7938 59.3552 25.823 59.3087 25.843C59.2622 25.863 59.2122 25.8733 59.1616 25.8733C59.111 25.8733 59.0609 25.863 59.0144 25.843C58.968 25.823 58.926 25.7938 58.8912 25.7571Z" fill="#F3F3F3"/>
<path d="M58.8667 25.7837C58.7924 25.7082 58.7508 25.6065 58.7508 25.5006C58.7508 25.3946 58.7924 25.2929 58.8667 25.2174L62.6747 21.4349C62.7503 21.3606 62.852 21.319 62.9579 21.319C63.0638 21.319 63.1655 21.3606 63.2411 21.4349C63.315 21.5104 63.3565 21.6118 63.3565 21.7175C63.3565 21.8232 63.315 21.9247 63.2411 22.0002L59.4331 25.7827C59.3575 25.857 59.2558 25.8986 59.1499 25.8986C59.044 25.8986 58.9423 25.857 58.8667 25.7827V25.7837ZM63.2156 21.4593C63.1494 21.3972 63.062 21.3626 62.9712 21.3626C62.8804 21.3626 62.793 21.3972 62.7268 21.4593L58.9177 25.2418C58.8555 25.3082 58.8209 25.3958 58.8209 25.4867C58.8209 25.5777 58.8555 25.6653 58.9177 25.7317C58.9839 25.7938 59.0713 25.8284 59.1621 25.8284C59.2529 25.8284 59.3403 25.7938 59.4065 25.7317L63.2156 21.9492C63.3431 21.8206 63.3431 21.6145 63.2156 21.4604V21.4593Z" fill="white"/>
<path d="M62.7512 25.552C62.6237 25.3969 62.6237 25.1653 62.7778 25.0367L64.6053 23.4929C64.6806 23.4322 64.7769 23.4036 64.8731 23.4133C64.9694 23.4231 65.0579 23.4704 65.1196 23.545C65.2471 23.699 65.2471 23.9307 65.0941 24.0592L63.2666 25.603C63.1912 25.6638 63.095 25.6924 62.9987 25.6826C62.9025 25.6729 62.8139 25.6256 62.7523 25.551L62.7512 25.552Z" fill="#F3F3F3"/>
<path d="M62.7247 25.5776C62.5706 25.397 62.5972 25.1398 62.7502 25.0113L64.5777 23.4675C64.7317 23.3134 64.9889 23.3389 65.144 23.5185C65.2981 23.6991 65.2715 23.9562 65.1185 24.0848L63.291 25.6286C63.1369 25.7826 62.8787 25.7571 62.7247 25.5776ZM65.0919 23.545C64.9644 23.3899 64.7572 23.3899 64.6032 23.493L62.7757 25.0368C62.7102 25.0998 62.6711 25.1854 62.6664 25.2761C62.6617 25.3669 62.6916 25.456 62.7502 25.5255C62.8787 25.6796 63.0849 25.6796 63.2389 25.5776L65.0664 24.0327C65.2205 23.9052 65.2205 23.6991 65.0919 23.544V23.545Z" fill="white"/>
<path d="M61.7206 29.257C61.6903 29.2175 61.6687 29.1719 61.6575 29.1234C61.6462 29.0748 61.6455 29.0245 61.6554 28.9756C61.6652 28.9268 61.6855 28.8806 61.7147 28.8403C61.7439 28.7999 61.7814 28.7663 61.8248 28.7417L66.3021 25.7571C66.4828 25.654 66.7133 25.7061 66.8164 25.8602C66.8468 25.8996 66.8684 25.9451 66.8797 25.9936C66.891 26.0421 66.8919 26.0924 66.8821 26.1413C66.8723 26.1901 66.8522 26.2363 66.8231 26.2767C66.794 26.3171 66.7565 26.3508 66.7133 26.3755L62.2359 29.36C62.0819 29.4631 61.8503 29.411 61.7217 29.257H61.7206Z" fill="#F3F3F3"/>
<path d="M61.6962 29.257C61.6358 29.1679 61.6128 29.0587 61.6321 28.9528C61.6514 28.8469 61.7114 28.7528 61.7993 28.6907L66.2766 25.705C66.3217 25.6744 66.3726 25.6533 66.4262 25.6432C66.4798 25.6331 66.5349 25.6342 66.5881 25.6463C66.6412 25.6585 66.6913 25.6815 66.7351 25.7139C66.779 25.7463 66.8157 25.7874 66.8429 25.8347C66.903 25.9237 66.9258 26.0327 66.9065 26.1383C66.8873 26.2439 66.8275 26.3378 66.7399 26.3999L62.2625 29.3855C62.2176 29.4163 62.1667 29.4375 62.1132 29.4478C62.0598 29.458 62.0047 29.4571 61.9516 29.4452C61.8984 29.4332 61.8483 29.4104 61.8044 29.3782C61.7604 29.346 61.7236 29.3051 61.6962 29.258V29.257ZM66.7909 25.8857C66.7431 25.8109 66.6676 25.7581 66.5809 25.739C66.4942 25.7198 66.4035 25.7359 66.3287 25.7837L61.8503 28.7682C61.6962 28.8713 61.6452 29.0764 61.7738 29.257C61.8768 29.411 62.0819 29.4631 62.237 29.36L66.7144 26.3744C66.7863 26.3175 66.8341 26.2356 66.8483 26.145C66.8624 26.0544 66.8419 25.9618 66.7909 25.8857Z" fill="white"/>
<path d="M65.5584 29.7978C65.5329 29.7556 65.5159 29.7088 65.5085 29.66C65.5012 29.6113 65.5034 29.5616 65.5153 29.5137C65.5271 29.4658 65.5483 29.4208 65.5776 29.3811C65.6068 29.3414 65.6436 29.3079 65.6859 29.2825L67.7705 28.0989C67.9511 27.9958 68.1828 28.0734 68.2858 28.2529C68.3113 28.2952 68.3281 28.342 68.3355 28.3908C68.3428 28.4396 68.3404 28.4894 68.3285 28.5373C68.3165 28.5851 68.2952 28.6302 68.2659 28.6698C68.2365 28.7094 68.1996 28.7429 68.1573 28.7682L66.0726 29.9519C65.892 30.0549 65.6604 29.9774 65.5584 29.7967V29.7978Z" fill="#F3F3F3"/>
<path d="M65.5307 29.8233C65.4277 29.6172 65.4797 29.3855 65.6593 29.2825L67.7439 28.0989C67.9246 27.9958 68.1817 28.0734 68.2847 28.2529C68.3878 28.459 68.3358 28.6907 68.1562 28.7937L66.0716 29.9774C65.8909 30.0804 65.6338 30.0029 65.5307 29.8233ZM68.2582 28.2795C68.1562 28.0989 67.9501 28.0479 67.796 28.1499L65.7114 29.3345C65.6385 29.3837 65.5855 29.4573 65.562 29.542C65.5384 29.6267 65.5458 29.717 65.5828 29.7967C65.6859 29.9774 65.8909 30.0284 66.0461 29.9264L68.1296 28.7427C68.2848 28.6652 68.3357 28.459 68.2582 28.2795Z" fill="white"/>
<path d="M63.8307 33.2202C63.7542 33.014 63.8307 32.8079 64.0369 32.7314L69.003 30.6723C69.1836 30.5958 69.4152 30.6978 69.4917 30.8784C69.5693 31.0845 69.4917 31.2896 69.2867 31.3672L64.3206 33.4252C64.2751 33.4448 64.2262 33.4551 64.1767 33.4554C64.1272 33.4556 64.0782 33.4459 64.0325 33.4267C63.9869 33.4076 63.9456 33.3794 63.9111 33.3439C63.8766 33.3084 63.8496 33.2663 63.8318 33.2202H63.8307Z" fill="#F3F3F3"/>
<path d="M63.8063 33.2456C63.7665 33.1461 63.7656 33.0352 63.8038 32.935C63.842 32.8348 63.9165 32.7527 64.0124 32.7048L68.9786 30.6468C69.0775 30.6095 69.1871 30.6129 69.2835 30.6563C69.3799 30.6998 69.4552 30.7796 69.4928 30.8784C69.5325 30.9778 69.5334 31.0885 69.4952 31.1885C69.457 31.2886 69.3826 31.3705 69.2867 31.4181L64.3216 33.4773C64.2226 33.5149 64.1126 33.5116 64.016 33.4682C63.9194 33.4247 63.8439 33.3447 63.8063 33.2456ZM69.4418 30.9039C69.4063 30.8222 69.3423 30.7563 69.2618 30.7183C69.1812 30.6804 69.0896 30.6731 69.0041 30.6978L64.0379 32.7569C63.9954 32.7751 63.9569 32.8016 63.9247 32.8349C63.8925 32.8682 63.8673 32.9075 63.8505 32.9506C63.8337 32.9938 63.8256 33.0398 63.8268 33.0861C63.8279 33.1324 63.8383 33.1779 63.8573 33.2201C63.9349 33.4008 64.141 33.4773 64.2951 33.4263L69.2612 31.3671C69.3037 31.3489 69.3422 31.3224 69.3744 31.2891C69.4066 31.2559 69.4318 31.2165 69.4486 31.1734C69.4655 31.1303 69.4735 31.0842 69.4723 31.038C69.4712 30.9917 69.4608 30.9461 69.4418 30.9039Z" fill="white"/>
<path d="M67.4613 34.5068C67.3838 34.3007 67.4868 34.0945 67.6929 34.018L69.9571 33.2711C70.1378 33.1935 70.3694 33.3232 70.4204 33.5027C70.4979 33.7089 70.3949 33.9139 70.1888 33.9915L67.9246 34.7384C67.7439 34.8149 67.5389 34.7119 67.4613 34.5068Z" fill="#F3F3F3"/>
<path d="M67.4369 34.5313C67.4182 34.4808 67.4101 34.427 67.4131 34.3733C67.4161 34.3196 67.43 34.267 67.4542 34.2189C67.4783 34.1708 67.512 34.1282 67.5532 34.0936C67.5945 34.0591 67.6424 34.0334 67.694 34.0181L69.9571 33.2711C70.1632 33.1936 70.3949 33.3232 70.4724 33.5283C70.4914 33.5789 70.4998 33.6328 70.497 33.6868C70.4942 33.7408 70.4803 33.7936 70.4561 33.8419C70.432 33.8903 70.3982 33.9332 70.3567 33.9679C70.3153 34.0026 70.2672 34.0283 70.2153 34.0436L67.9511 34.7895C67.8487 34.8162 67.74 34.8048 67.6452 34.7576C67.5505 34.7103 67.4761 34.6303 67.4358 34.5323L67.4369 34.5313ZM70.4214 33.5538C70.3694 33.3742 70.1632 33.2711 69.9837 33.3232L67.7195 34.0691C67.5389 34.1201 67.4613 34.3262 67.5134 34.5068C67.5644 34.6875 67.7705 34.7895 67.9511 34.7385L70.2142 33.9915C70.2978 33.9584 70.3657 33.8947 70.4041 33.8135C70.4426 33.7322 70.4488 33.6394 70.4214 33.5538Z" fill="white"/>
<path d="M65.144 37.5689C65.0919 37.3628 65.2205 37.1567 65.4266 37.1312L70.7019 36.1016C70.907 36.0506 71.0876 36.2047 71.1386 36.4098C71.1907 36.6159 71.0621 36.822 70.856 36.8486L65.5807 37.8771C65.3746 37.9026 65.1695 37.7751 65.1429 37.5689H65.144Z" fill="#F3F3F3"/>
<path d="M65.0919 37.569C65.0696 37.4634 65.0892 37.3533 65.1468 37.262C65.2043 37.1708 65.2952 37.1055 65.4001 37.0802L70.6764 36.0496C70.8825 35.9986 71.0876 36.1537 71.1397 36.3853C71.1621 36.4909 71.1424 36.601 71.0848 36.6923C71.0273 36.7835 70.9364 36.8488 70.8316 36.8741L65.5552 37.9026C65.3501 37.9546 65.144 37.8006 65.0919 37.5679V37.569ZM71.0876 36.4108C71.0727 36.3227 71.0241 36.2439 70.9522 36.191C70.8802 36.138 70.7905 36.1151 70.7019 36.1271L65.4266 37.1578C65.246 37.1822 65.1185 37.3883 65.1695 37.569C65.195 37.7496 65.3756 37.8771 65.5552 37.8516L70.8305 36.822C71.0111 36.771 71.1386 36.5904 71.0876 36.4108Z" fill="white"/>
<path d="M68.4388 39.5505C68.4133 39.3444 68.5419 39.1638 68.7469 39.1383L71.1153 38.8546C71.1643 38.8496 71.2139 38.8543 71.2611 38.8685C71.3083 38.8827 71.3523 38.906 71.3905 38.9372C71.4287 38.9684 71.4603 39.0068 71.4837 39.0502C71.507 39.0937 71.5215 39.1413 71.5264 39.1903C71.553 39.3954 71.4234 39.576 71.2183 39.6015L68.8511 39.8842C68.6704 39.9107 68.4643 39.7567 68.4388 39.5505Z" fill="#F3F3F3"/>
<path d="M68.4144 39.5505C68.3878 39.3188 68.5419 39.1127 68.748 39.0872L71.1152 38.8035C71.1677 38.7984 71.2207 38.8037 71.2711 38.8191C71.3216 38.8345 71.3685 38.8597 71.4091 38.8933C71.4498 38.9268 71.4835 38.9681 71.5081 39.0147C71.5328 39.0613 71.5481 39.1123 71.553 39.1648C71.5785 39.3953 71.4244 39.6015 71.2183 39.627L68.8511 39.9107C68.7986 39.9158 68.7456 39.9105 68.6952 39.8951C68.6447 39.8797 68.5978 39.8545 68.5572 39.8209C68.5165 39.7874 68.4829 39.7461 68.4582 39.6995C68.4335 39.6529 68.4182 39.6019 68.4133 39.5494L68.4144 39.5505ZM71.5275 39.1892C71.502 39.0097 71.3214 38.8545 71.1408 38.8811L68.7735 39.1637C68.6855 39.1791 68.6069 39.228 68.5542 39.3001C68.5015 39.3722 68.4788 39.462 68.4909 39.5505C68.5164 39.73 68.697 39.8852 68.8766 39.8586L71.2438 39.576C71.3318 39.5608 71.4105 39.5122 71.4634 39.4403C71.5162 39.3684 71.5392 39.2788 71.5275 39.1903V39.1892Z" fill="white"/>
<path d="M65.5573 42.0463C65.5573 41.8402 65.7114 41.6595 65.9186 41.6595H71.2948C71.502 41.6595 71.6561 41.8402 71.6561 42.0463C71.6561 42.2524 71.502 42.432 71.2948 42.432H65.9186C65.7114 42.432 65.5573 42.2514 65.5573 42.0463Z" fill="#F3F3F3"/>
<path d="M65.5307 42.0463C65.5307 41.8147 65.7114 41.634 65.9164 41.634H71.2948C71.5009 41.634 71.6805 41.8147 71.6805 42.0463C71.6805 42.2779 71.4999 42.4575 71.2948 42.4575H65.9164C65.7103 42.4575 65.5307 42.2768 65.5307 42.0463ZM71.6295 42.0718C71.6295 41.8912 71.4744 41.7116 71.2937 41.7116H65.9175C65.7369 41.7116 65.5817 41.8657 65.5817 42.0718C65.5817 42.2524 65.7369 42.432 65.9164 42.432H71.2948C71.4754 42.4065 71.6295 42.2513 71.6295 42.0718Z" fill="white"/>
<path d="M68.4133 44.6452C68.4388 44.4391 68.5939 44.2839 68.799 44.2839L71.1928 44.4646C71.2917 44.475 71.3824 44.5243 71.445 44.6016C71.5076 44.6789 71.5369 44.7779 71.5264 44.8768C71.5009 45.0829 71.3458 45.237 71.1408 45.237L68.748 45.0564C68.5674 45.0309 68.4133 44.8502 68.4133 44.6452Z" fill="#F3F3F3"/>
<path d="M68.3878 44.6452C68.3958 44.541 68.4426 44.4436 68.5189 44.3721C68.5952 44.3007 68.6955 44.2605 68.8001 44.2595L71.1928 44.4391C71.3989 44.4646 71.5785 44.6452 71.553 44.8768C71.5451 44.9809 71.4984 45.0782 71.4223 45.1495C71.3462 45.2209 71.2462 45.2612 71.1418 45.2625L68.748 45.0819C68.5419 45.0564 68.3878 44.8503 68.3878 44.6452ZM71.5275 44.8768C71.5323 44.8326 71.5281 44.7879 71.515 44.7454C71.5019 44.7029 71.4803 44.6635 71.4514 44.6297C71.4226 44.5959 71.3871 44.5683 71.3472 44.5487C71.3073 44.529 71.2638 44.5178 71.2194 44.5156L68.8256 44.336C68.6449 44.336 68.4909 44.4646 68.4643 44.6707C68.4596 44.7149 68.464 44.7596 68.4773 44.8021C68.4905 44.8445 68.5122 44.8838 68.5412 44.9175C68.5701 44.9513 68.6057 44.9787 68.6456 44.9982C68.6856 45.0177 68.7291 45.0288 68.7735 45.0309L71.1673 45.2115C71.3479 45.2115 71.502 45.0575 71.5275 44.8768Z" fill="white"/>
<path d="M65.0919 46.5237C65.113 46.4268 65.1696 46.3413 65.2507 46.2843C65.3318 46.2272 65.4314 46.2027 65.5297 46.2156L70.8039 47.2696C71.0101 47.3216 71.1386 47.5012 71.0876 47.7073C71.0664 47.8041 71.0097 47.8894 70.9286 47.9465C70.8476 48.0035 70.7482 48.0281 70.6499 48.0155L65.3756 46.9625C65.195 46.936 65.0675 46.7309 65.093 46.5248L65.0919 46.5237Z" fill="#F3F3F3"/>
<path d="M65.0675 46.5237C65.0882 46.4199 65.1473 46.3277 65.233 46.2657C65.3187 46.2036 65.4246 46.1762 65.5297 46.189L70.805 47.244C70.9099 47.2694 71.0008 47.3346 71.0583 47.4259C71.1158 47.5171 71.1355 47.6272 71.1131 47.7328C71.0925 47.8366 71.0334 47.9287 70.9477 47.9908C70.862 48.0528 70.756 48.0802 70.6509 48.0675L65.3756 47.0124C65.1695 46.9614 65.0409 46.7553 65.0675 46.5237ZM71.0621 47.7328C71.0762 47.6447 71.058 47.5546 71.0107 47.479C70.9634 47.4034 70.8903 47.3475 70.805 47.3216L65.5297 46.2665C65.4381 46.2528 65.3447 46.2743 65.2684 46.3268C65.192 46.3792 65.1385 46.4587 65.1185 46.5492C65.1043 46.6373 65.1226 46.7277 65.1698 46.8034C65.2171 46.8792 65.2902 46.9353 65.3756 46.9614L70.6509 48.0154C70.8571 48.042 71.0111 47.9123 71.0621 47.7328Z" fill="white"/>
<path d="M67.4093 49.6113C67.421 49.5622 67.4423 49.516 67.4719 49.4752C67.5016 49.4344 67.539 49.3999 67.5821 49.3736C67.6251 49.3473 67.673 49.3298 67.7228 49.3221C67.7726 49.3144 67.8235 49.3166 67.8725 49.3287L70.1888 49.9715C70.3938 50.0235 70.4969 50.2297 70.4459 50.4347C70.4217 50.5335 70.3594 50.6187 70.2726 50.6717C70.1858 50.7246 70.0815 50.7411 69.9826 50.7174L67.6664 50.0745C67.4603 50.0235 67.3583 49.8174 67.4093 49.6113Z" fill="#F3F3F3"/>
<path d="M67.3827 49.6113C67.4337 49.4052 67.6653 49.2511 67.8714 49.3287L70.1877 49.9715C70.2883 50.0015 70.3736 50.0689 70.4261 50.1597C70.4787 50.2506 70.4945 50.3581 70.4703 50.4603C70.4193 50.6664 70.1877 50.8215 69.9816 50.744L67.6653 50.1001C67.4592 50.0491 67.3306 49.843 67.3827 49.6113ZM70.3938 50.4613C70.4448 50.2807 70.3417 50.0746 70.1611 50.0225L67.8449 49.3797C67.6653 49.3276 67.4857 49.4307 67.4337 49.6368C67.3827 49.8175 67.4857 50.0236 67.6653 50.0746L69.9816 50.7174C70.0698 50.7318 70.1602 50.7136 70.236 50.6663C70.3119 50.619 70.3679 50.5458 70.3938 50.4603V50.4613Z" fill="white"/>
<path d="M63.7819 50.8459C63.8584 50.6409 64.09 50.5633 64.2706 50.6409L69.2368 52.6989C69.4174 52.7765 69.5194 53.0081 69.4429 53.1877C69.3653 53.3938 69.1348 53.4714 68.9541 53.3938L63.9869 51.3357C63.7819 51.2582 63.7043 51.0265 63.7819 50.847V50.8459Z" fill="#F3F3F3"/>
<path d="M63.7543 50.8205C63.7921 50.7216 63.8676 50.6417 63.9641 50.5983C64.0607 50.5549 64.1705 50.5515 64.2696 50.5888L69.2357 52.648C69.4418 52.7245 69.5183 52.9561 69.4418 53.1877C69.4234 53.2369 69.3954 53.282 69.3595 53.3204C69.3236 53.3588 69.2805 53.3897 69.2326 53.4113C69.1847 53.4329 69.133 53.4449 69.0804 53.4464C69.0279 53.448 68.9756 53.4391 68.9265 53.4204L63.9604 51.3613C63.7543 51.2582 63.6778 51.0266 63.7543 50.8205ZM69.3897 53.1622C69.4086 53.12 69.4189 53.0744 69.42 53.0282C69.4211 52.9819 69.413 52.936 69.3962 52.8929C69.3794 52.8498 69.3542 52.8105 69.3221 52.7772C69.29 52.7439 69.2516 52.7173 69.2091 52.699L64.243 50.6409C64.0624 50.5633 63.8828 50.6664 63.8063 50.847C63.7288 51.0266 63.8063 51.2327 63.9869 51.3092L68.952 53.3683C69.1326 53.4204 69.3387 53.3428 69.3897 53.1622Z" fill="white"/>
<path d="M65.4543 54.3203C65.5573 54.1397 65.7624 54.0632 65.943 54.1397L68.0786 55.2213C68.2592 55.2978 68.3368 55.5294 68.2338 55.7355C68.1307 55.9162 67.9246 55.9927 67.745 55.9162L65.6094 54.8345C65.4288 54.7325 65.3512 54.4999 65.4543 54.3203Z" fill="#F3F3F3"/>
<path d="M65.4288 54.2938C65.4514 54.2455 65.4837 54.2024 65.5235 54.167C65.5634 54.1317 65.6101 54.1048 65.6606 54.088C65.7112 54.0712 65.7647 54.0648 65.8178 54.0693C65.8709 54.0739 65.9225 54.0891 65.9696 54.1142L68.1052 55.1958C68.1533 55.2185 68.1963 55.2507 68.2316 55.2905C68.2668 55.3303 68.2937 55.3768 68.3105 55.4273C68.3273 55.4777 68.3336 55.5311 68.3292 55.5841C68.3248 55.6371 68.3097 55.6886 68.2848 55.7356C68.2622 55.7838 68.23 55.8269 68.1903 55.8623C68.1505 55.8977 68.104 55.9246 68.0536 55.9415C68.0031 55.9584 67.9497 55.9649 67.8967 55.9605C67.8437 55.9562 67.792 55.9411 67.745 55.9162L65.6094 54.8346C65.4033 54.7581 65.3257 54.4999 65.4288 54.2948V54.2938ZM68.2072 55.7101C68.2848 55.5295 68.2338 55.3233 68.0531 55.2468L65.9175 54.1663C65.7634 54.0887 65.5573 54.1663 65.4543 54.3203C65.3778 54.501 65.4288 54.706 65.6083 54.7836L67.7439 55.8641C67.9246 55.9417 68.1307 55.8896 68.2072 55.7101Z" fill="white"/>
<path d="M61.6718 54.809C61.8003 54.6284 62.0064 54.5774 62.186 54.706L66.6634 57.6916C66.844 57.7936 66.8695 58.0263 66.7664 58.2059C66.6379 58.3865 66.4318 58.4375 66.2522 58.3089L61.7748 55.3233C61.5942 55.1958 61.5432 54.9631 61.6718 54.809Z" fill="#F3F3F3"/>
<path d="M61.6463 54.7836C61.7096 54.6982 61.8014 54.6382 61.9051 54.6147C62.0088 54.5911 62.1175 54.6054 62.2115 54.655L66.6889 57.6406C66.8695 57.7681 66.9205 57.9997 66.7919 58.2059C66.7287 58.2914 66.6369 58.3515 66.5332 58.3751C66.4294 58.3987 66.3207 58.3842 66.2267 58.3344L61.7483 55.3488C61.5421 55.2213 61.5166 54.9631 61.6452 54.7836H61.6463ZM66.7144 58.1804C66.8174 58.0263 66.7919 57.7936 66.6379 57.6916L62.1605 54.706C62.0854 54.6583 61.9944 54.6423 61.9075 54.6616C61.8207 54.681 61.745 54.734 61.6973 54.8091C61.5942 54.9631 61.6197 55.1958 61.7737 55.2978L66.2522 58.2834C66.3273 58.3311 66.4183 58.3471 66.5051 58.3278C66.592 58.3084 66.6676 58.2554 66.7154 58.1804H66.7144Z" fill="white"/>
<path d="M62.6227 58.5405C62.7502 58.3865 62.9829 58.3344 63.1369 58.464L65.0154 59.9303C65.1695 60.0578 65.1961 60.2905 65.0675 60.4445C64.9389 60.5986 64.7062 60.6507 64.5522 60.5221L62.6737 59.0559C62.5987 58.9942 62.5512 58.9054 62.5416 58.8087C62.5321 58.7121 62.5612 58.6157 62.6227 58.5405Z" fill="#F3F3F3"/>
<path d="M62.5983 58.5151C62.7258 58.3344 62.9839 58.3089 63.1635 58.4375L65.042 59.9038C65.2226 60.0323 65.2481 60.2905 65.1196 60.4701C64.991 60.6507 64.7328 60.6762 64.5533 60.5476L62.6748 59.0814C62.4941 58.9518 62.4686 58.6946 62.5983 58.5151ZM65.0686 60.4446C65.1961 60.2905 65.1706 60.0844 65.0165 59.9558L63.138 58.4896C63.0618 58.4385 62.9692 58.418 62.8787 58.4322C62.7881 58.4464 62.7062 58.4942 62.6493 58.5661C62.5207 58.7201 62.5462 58.9273 62.7003 59.0548L64.5787 60.5211C64.6549 60.5721 64.7475 60.5926 64.8381 60.5784C64.9287 60.5643 65.0106 60.5165 65.0675 60.4446H65.0686Z" fill="white"/>
<path d="M58.7892 58.2835C58.9433 58.1294 59.1749 58.1294 59.3034 58.2835L63.1125 62.066C63.1805 62.1343 63.2187 62.2267 63.2187 62.3231C63.2187 62.4195 63.1805 62.5119 63.1125 62.5802C62.9584 62.7343 62.7258 62.7343 62.5983 62.5802L58.7892 58.7977C58.7272 58.7264 58.6931 58.6351 58.6931 58.5406C58.6931 58.4461 58.7272 58.3548 58.7892 58.2835Z" fill="#F3F3F3"/>
<path d="M58.7881 58.2569C58.8637 58.1826 58.9653 58.1409 59.0713 58.1409C59.1772 58.1409 59.2789 58.1826 59.3544 58.2569L63.1624 62.0394C63.2367 62.1149 63.2784 62.2166 63.2784 62.3225C63.2784 62.4285 63.2367 62.5302 63.1624 62.6057C63.087 62.6797 62.9855 62.7211 62.8798 62.7211C62.7741 62.7211 62.6727 62.6797 62.5972 62.6057L58.7881 58.8232C58.7462 58.789 58.7123 58.7459 58.6891 58.697C58.6658 58.6481 58.6538 58.5947 58.6538 58.5406C58.6538 58.4864 58.6658 58.433 58.6891 58.3841C58.7123 58.3352 58.7462 58.2921 58.7881 58.2579V58.2569ZM63.1114 62.5547C63.1736 62.4885 63.2082 62.4011 63.2082 62.3103C63.2082 62.2195 63.1736 62.1321 63.1114 62.0659L59.3034 58.2834C59.2371 58.2215 59.1498 58.1871 59.0591 58.1871C58.9683 58.1871 58.881 58.2215 58.8147 58.2834C58.7525 58.3496 58.7179 58.437 58.7179 58.5278C58.7179 58.6186 58.7525 58.706 58.8147 58.7722L62.6227 62.5547C62.7513 62.7087 62.9574 62.7087 63.1114 62.5547Z" fill="white"/>
<path d="M59.0219 62.1169C59.1759 61.9894 59.4076 61.9894 59.5361 62.1424L61.1065 63.9444C61.1673 64.0198 61.1959 64.116 61.1861 64.2123C61.1764 64.3085 61.1291 64.3971 61.0544 64.4587C60.9004 64.5873 60.6688 64.5873 60.5402 64.4332L58.9688 62.6323C58.8413 62.5037 58.8668 62.271 59.0208 62.1169H59.0219Z" fill="#F3F3F3"/>
<path d="M58.9953 62.1169C59.0741 62.0462 59.1774 62.0093 59.2831 62.0141C59.3889 62.0189 59.4885 62.0649 59.5606 62.1424L61.1309 63.9444C61.285 64.0985 61.2584 64.3556 61.0789 64.5107C61 64.5813 60.8965 64.618 60.7908 64.613C60.6851 64.6081 60.5856 64.5618 60.5136 64.4842L58.9433 62.6832C58.8158 62.5026 58.8158 62.2455 58.9953 62.1169ZM61.0534 64.4587C61.2074 64.3312 61.2074 64.124 61.1054 63.9699L59.5351 62.169C59.4722 62.1033 59.3867 62.0641 59.2959 62.0591C59.2052 62.0542 59.1159 62.084 59.0463 62.1424C58.8923 62.272 58.8923 62.4782 58.9953 62.6312L60.5646 64.4332C60.6932 64.5872 60.8993 64.5872 61.0534 64.4587Z" fill="white"/>
<path d="M55.3159 61.1394C55.3553 61.1092 55.4007 61.0878 55.4491 61.0765C55.4975 61.0653 55.5477 61.0645 55.5964 61.0743C55.6451 61.0841 55.6911 61.1041 55.7314 61.1331C55.7718 61.1621 55.8054 61.1994 55.8301 61.2425L58.8147 65.6944C58.9178 65.875 58.8668 66.1055 58.7116 66.2086C58.6722 66.2388 58.6268 66.2603 58.5784 66.2715C58.53 66.2827 58.4798 66.2835 58.4311 66.2737C58.3824 66.264 58.3364 66.2439 58.2961 66.2149C58.2558 66.1859 58.2221 66.1486 58.1974 66.1055L55.2118 61.6537C55.1098 61.4741 55.1608 61.2425 55.3148 61.1394H55.3159Z" fill="#F3F3F3"/>
<path d="M55.3137 61.1139C55.4029 61.0536 55.5121 61.0306 55.6179 61.0499C55.7238 61.0691 55.8179 61.1291 55.8801 61.217L58.8657 65.6689C58.8963 65.7139 58.9174 65.7647 58.9275 65.8182C58.9376 65.8717 58.9365 65.9267 58.9243 65.9798C58.9122 66.0329 58.8891 66.0829 58.8567 66.1266C58.8244 66.1704 58.7833 66.207 58.7361 66.2341C58.6471 66.2946 58.538 66.3178 58.4321 66.2987C58.3262 66.2796 58.232 66.2198 58.1697 66.1321L55.1852 61.6803C55.1537 61.6355 55.1319 61.5846 55.1213 61.5309C55.1106 61.4772 55.1114 61.4219 55.1235 61.3685C55.1357 61.3151 55.1588 61.2649 55.1916 61.221C55.2244 61.1772 55.266 61.1407 55.3137 61.1139ZM58.7106 66.1831C58.7856 66.1353 58.8386 66.0597 58.858 65.9728C58.8773 65.886 58.8613 65.795 58.8136 65.7199L55.828 61.268C55.726 61.1139 55.5199 61.0874 55.3392 61.1915C55.302 61.2151 55.2697 61.2458 55.2444 61.2819C55.219 61.3179 55.201 61.3587 55.1914 61.4017C55.1818 61.4448 55.1809 61.4893 55.1885 61.5327C55.1962 61.5761 55.2124 61.6176 55.2362 61.6548L58.2218 66.1066C58.3249 66.2341 58.5565 66.2862 58.7106 66.1831Z" fill="white"/>
<path d="M54.7729 64.9474C54.8582 64.8963 54.9603 64.8812 55.0567 64.9053C55.1531 64.9294 55.236 64.9908 55.2872 65.076L56.4719 67.1606C56.5739 67.3412 56.4963 67.5729 56.3168 67.6749C56.2746 67.7003 56.2279 67.7173 56.1792 67.7246C56.1306 67.732 56.0809 67.7297 56.0332 67.7179C55.9854 67.706 55.9404 67.6849 55.9008 67.6556C55.8613 67.6264 55.8278 67.5896 55.8025 67.5474L54.6189 65.4627C54.5413 65.2821 54.5934 65.0505 54.7729 64.9474Z" fill="#F3F3F3"/>
<path d="M54.7751 64.9219C54.9812 64.8189 55.2128 64.8709 55.3159 65.0505L56.4995 67.1351C56.6026 67.3157 56.5505 67.5729 56.3454 67.6749C56.1393 67.7779 55.9077 67.7269 55.8036 67.5474L54.621 65.4627C54.5179 65.2821 54.5689 65.0505 54.7751 64.9219ZM56.3189 67.6494C56.474 67.5474 56.5505 67.3412 56.4474 67.1861L55.2638 65.1025C55.2148 65.0292 55.1411 64.9759 55.0562 64.9521C54.9712 64.9283 54.8806 64.9357 54.8006 64.9729C54.6465 65.076 54.5689 65.2821 54.6731 65.4362L55.8556 67.5208C55.9332 67.6749 56.1638 67.7524 56.3189 67.6494Z" fill="white"/>
<path d="M51.3517 63.2496C51.5578 63.172 51.7639 63.2496 51.8404 63.4302L53.9251 68.3963C54.0026 68.5769 53.8996 68.8075 53.7189 68.8851C53.5394 68.9626 53.3078 68.8851 53.2302 68.7044L51.1466 63.7383C51.0691 63.5577 51.1721 63.3271 51.3517 63.2496Z" fill="#F3F3F3"/>
<path d="M51.3528 63.2241C51.4522 63.1846 51.5628 63.1838 51.6628 63.222C51.7627 63.2602 51.8447 63.3345 51.8925 63.4302L53.9771 68.3963C54.0141 68.4953 54.0105 68.6048 53.9672 68.7011C53.9238 68.7974 53.8441 68.8727 53.7455 68.9106C53.6461 68.9503 53.5354 68.9512 53.4354 68.913C53.3353 68.8748 53.2534 68.8003 53.2058 68.7044L51.1211 63.7383C51.0436 63.5577 51.1466 63.3271 51.3528 63.2241ZM53.6945 68.8596C53.8751 68.782 53.9516 68.5759 53.8751 68.4218L51.7894 63.4557C51.7129 63.2751 51.5068 63.1986 51.3273 63.2751C51.1466 63.3526 51.0691 63.5587 51.1466 63.7128L53.2313 68.6789C53.3343 68.8596 53.5139 68.9361 53.6945 68.8596Z" fill="white"/>
<path d="M50.0905 66.9035C50.2966 66.8259 50.5027 66.929 50.5792 67.1351L51.3262 69.3993C51.4027 69.5799 51.2741 69.8116 51.0946 69.8626C50.8884 69.9401 50.6823 69.8371 50.6058 69.6309L49.8589 67.3667C49.7824 67.1861 49.8854 66.9811 50.0905 66.9035Z" fill="#F3F3F3"/>
<path d="M50.065 66.878C50.1639 66.841 50.2735 66.8446 50.3698 66.888C50.4661 66.9314 50.5414 67.011 50.5793 67.1097L51.3262 69.3738C51.4027 69.58 51.2741 69.8116 51.068 69.8881C50.9691 69.9254 50.8594 69.9219 50.763 69.8785C50.6666 69.8351 50.5914 69.7553 50.5538 69.6565L49.8079 67.3933C49.7812 67.2909 49.7925 67.1822 49.8398 67.0875C49.8871 66.9927 49.9671 66.9183 50.065 66.878ZM51.068 69.8371C51.2486 69.785 51.3517 69.58 51.2996 69.3993L50.5538 67.1352C50.5028 66.9545 50.2966 66.878 50.116 66.929C49.9354 66.9811 49.8334 67.1862 49.8844 67.3668L50.6313 69.631C50.6443 69.6747 50.6664 69.7151 50.6961 69.7497C50.7257 69.7842 50.7624 69.8122 50.8036 69.8316C50.8448 69.8511 50.8897 69.8616 50.9352 69.8626C50.9808 69.8635 51.026 69.8548 51.068 69.8371Z" fill="white"/>
<path d="M47.056 64.5618C47.2621 64.5108 47.4683 64.6393 47.4938 64.8455L48.5743 70.1208C48.6253 70.3258 48.4713 70.5065 48.2662 70.5575C48.0601 70.6095 47.8539 70.481 47.8284 70.2748L46.7468 64.9995C46.7377 64.9018 46.7637 64.8041 46.8202 64.7238C46.8766 64.6436 46.9599 64.5861 47.0549 64.5618H47.056Z" fill="#F3F3F3"/>
<path d="M47.0539 64.5362C47.1594 64.5139 47.2695 64.5335 47.3608 64.5911C47.4521 64.6486 47.5173 64.7395 47.5426 64.8444L48.6232 70.1207C48.6752 70.3258 48.5201 70.5574 48.3151 70.5829C48.2095 70.6053 48.0994 70.5856 48.0081 70.5281C47.9169 70.4705 47.8516 70.3797 47.8263 70.2748L46.7447 64.9995C46.6937 64.7934 46.8222 64.5872 47.0528 64.5362H47.0539ZM48.263 70.5319C48.4436 70.5064 48.5711 70.3258 48.5456 70.1197L47.4651 64.8444C47.4396 64.6648 47.2334 64.5362 47.0539 64.5872C46.8732 64.6138 46.7457 64.7934 46.7702 64.9995L47.8518 70.2748C47.9028 70.4554 48.0824 70.5574 48.263 70.5319Z" fill="white"/>
<path d="M45.0989 67.9075C45.1972 67.8946 45.2968 67.9191 45.3779 67.9762C45.4589 68.0333 45.5156 68.1188 45.5366 68.2157L45.8448 70.5829C45.8552 70.6818 45.8259 70.7808 45.7633 70.8581C45.7007 70.9354 45.61 70.9847 45.5111 70.9952C45.4128 71.0081 45.3132 70.9836 45.2322 70.9265C45.1511 70.8694 45.0944 70.784 45.0734 70.687L44.7653 68.3187C44.7551 68.22 44.7846 68.1213 44.8471 68.0442C44.9097 67.9671 45.0002 67.918 45.0989 67.9075Z" fill="#F3F3F3"/>
<path d="M45.0999 67.881C45.3316 67.8555 45.5377 68.0106 45.5632 68.2157L45.8713 70.5829C45.8817 70.6886 45.8497 70.794 45.7823 70.8761C45.715 70.9582 45.6178 71.0102 45.5122 71.0207C45.2806 71.0462 45.0744 70.8921 45.0489 70.686L44.7408 68.3187C44.7304 68.2131 44.7624 68.1076 44.8298 68.0255C44.8971 67.9435 44.9943 67.8915 45.0999 67.881ZM45.4856 70.9697C45.6662 70.9431 45.8203 70.7635 45.7948 70.5829L45.4867 68.2157C45.4713 68.1277 45.4224 68.0491 45.3503 67.9964C45.2782 67.9437 45.1884 67.921 45.0999 67.933C44.9193 67.9585 44.7652 68.1392 44.7918 68.3187L45.0999 70.686C45.1254 70.8666 45.3061 70.9941 45.4856 70.9686V70.9697Z" fill="white"/>
<path d="M42.4479 65.025C42.6541 65.025 42.8336 65.1791 42.8336 65.3863V70.7625C42.8336 70.9697 42.653 71.1238 42.4479 71.1238C42.2418 71.1238 42.0623 70.9697 42.0623 70.7625V65.3863C42.0878 65.1801 42.2429 65.025 42.4479 65.025Z" fill="#F3F3F3"/>
<path d="M42.449 64.9995C42.6806 64.9995 42.8613 65.1801 42.8613 65.3852V70.7636C42.8613 70.9697 42.6806 71.1493 42.449 71.1493C42.2174 71.1493 42.0378 70.9686 42.0378 70.7636V65.3852C42.0378 65.1791 42.2429 64.9995 42.449 64.9995ZM42.449 71.0983C42.6296 71.0983 42.8092 70.9442 42.8092 70.7636V65.3852C42.8092 65.2046 42.6551 65.0505 42.449 65.0505C42.2684 65.0505 42.0888 65.2056 42.0888 65.3852V70.7636C42.1143 70.9442 42.2694 71.0983 42.449 71.0983Z" fill="white"/>
<path d="M39.8756 67.9075C40.0807 67.933 40.2358 68.0871 40.2358 68.2932L40.0552 70.686C40.045 70.7849 39.996 70.8757 39.9189 70.9384C39.8418 71.0012 39.7429 71.0308 39.644 71.0207C39.4379 70.9952 39.2827 70.84 39.2827 70.635L39.4634 68.2412C39.4684 68.1921 39.4831 68.1445 39.5065 68.1011C39.53 68.0577 39.5618 68.0194 39.6001 67.9883C39.6384 67.9572 39.6824 67.934 39.7297 67.9199C39.777 67.9059 39.8266 67.9013 39.8756 67.9065V67.9075Z" fill="#F3F3F3"/>
<path d="M39.8756 67.881C39.98 67.8887 40.0777 67.9354 40.1494 68.0117C40.221 68.0881 40.2613 68.1886 40.2624 68.2932L40.0818 70.686C40.0563 70.8921 39.8767 71.0717 39.6451 71.0472C39.5407 71.0395 39.443 70.9929 39.3713 70.9165C39.2997 70.8402 39.2594 70.7397 39.2583 70.635L39.4389 68.2412C39.4644 68.0095 39.6451 67.8555 39.8767 67.881H39.8756ZM39.644 70.9941C39.8246 70.9941 40.0053 70.8666 40.0053 70.686L40.1859 68.2932C40.1859 68.1126 40.0563 67.9586 39.8501 67.932C39.6695 67.932 39.4899 68.0616 39.4899 68.2422L39.3093 70.635C39.3093 70.8156 39.4644 70.9697 39.6451 70.9952L39.644 70.9941Z" fill="white"/>
<path d="M37.944 64.5618C38.0411 64.5825 38.1268 64.6391 38.1841 64.7202C38.2414 64.8013 38.2661 64.901 38.2532 64.9995L37.1981 70.2748C37.1471 70.4809 36.9665 70.6095 36.7604 70.5574C36.6635 70.5364 36.578 70.4798 36.5209 70.3987C36.4639 70.3176 36.4393 70.218 36.4523 70.1197L37.5073 64.8444C37.5328 64.6648 37.7389 64.5363 37.944 64.5618Z" fill="#F3F3F3"/>
<path d="M37.944 64.5363C38.048 64.5569 38.1403 64.6162 38.2024 64.7021C38.2645 64.7881 38.2917 64.8943 38.2787 64.9995L37.2236 70.2748C37.1983 70.3797 37.1331 70.4706 37.0418 70.5281C36.9505 70.5857 36.8404 70.6053 36.7349 70.583C36.6309 70.5623 36.5386 70.503 36.4765 70.4171C36.4144 70.3312 36.3872 70.2249 36.4002 70.1197L37.4553 64.8444C37.5063 64.6393 37.7124 64.5097 37.944 64.5363ZM36.7349 70.532C36.8229 70.5461 36.9131 70.5278 36.9887 70.4805C37.0643 70.4332 37.1202 70.3602 37.1461 70.2748L38.2011 64.9995C38.2154 64.9077 38.1942 64.8139 38.1416 64.7373C38.0891 64.6607 38.0093 64.607 37.9185 64.5873C37.8302 64.5732 37.7397 64.5916 37.6639 64.639C37.5881 64.6865 37.5321 64.7598 37.5063 64.8455L36.4512 70.1197C36.4257 70.3258 36.5543 70.481 36.7349 70.532Z" fill="white"/>
<path d="M34.8574 66.878C34.9066 66.8896 34.953 66.9108 34.9939 66.9404C35.0348 66.97 35.0694 67.0074 35.0958 67.0505C35.1222 67.0936 35.1397 67.1414 35.1475 67.1913C35.1553 67.2412 35.1531 67.2922 35.1411 67.3412L34.4972 69.6575C34.4462 69.8625 34.2401 69.9656 34.034 69.9146C33.9601 69.8971 33.8931 69.8579 33.8416 69.802C33.7901 69.7462 33.7565 69.6762 33.745 69.6012C33.7373 69.5513 33.7394 69.5004 33.7514 69.4513L34.3942 67.1351C34.4462 66.929 34.6524 66.827 34.8574 66.878Z" fill="#F3F3F3"/>
<path d="M34.8574 66.8525C35.0636 66.9035 35.2187 67.1351 35.1411 67.3413L34.4972 69.6575C34.4675 69.7582 34.4002 69.8437 34.3092 69.8963C34.2183 69.9489 34.1107 69.9646 34.0085 69.9401C33.8024 69.8891 33.6483 69.6575 33.7259 69.4514L34.3687 67.1351C34.4208 66.929 34.6258 66.8004 34.8574 66.8514V66.8525ZM34.0085 69.8626C34.1891 69.9146 34.3942 69.8116 34.4462 69.631L35.0891 67.3147C35.1411 67.1351 35.0381 66.9556 34.8319 66.9035C34.6513 66.8514 34.4462 66.9545 34.3942 67.1351L33.7514 69.4514C33.7373 69.5394 33.7555 69.6296 33.8028 69.7052C33.8501 69.7808 33.9232 69.8367 34.0085 69.8626Z" fill="white"/>
<path d="M33.5973 63.2496C33.8034 63.3261 33.881 63.5577 33.8034 63.7383L31.7454 68.7045C31.6678 68.8851 31.4362 68.9881 31.2566 68.8851C31.076 68.782 30.9729 68.577 31.0505 68.3963L33.1086 63.4291C33.1861 63.2496 33.4167 63.1465 33.5973 63.2496Z" fill="#F3F3F3"/>
<path d="M33.5962 63.224C33.6952 63.2615 33.7753 63.3366 33.819 63.433C33.8626 63.5295 33.8662 63.6392 33.8289 63.7383L31.7687 68.7044C31.6922 68.9105 31.4606 68.9881 31.229 68.9105C31.1302 68.8729 31.0504 68.7977 31.0069 68.7013C30.9635 68.6049 30.9601 68.4952 30.9974 68.3963L33.0554 63.4291C33.1585 63.224 33.3901 63.121 33.5962 63.224ZM31.2556 68.8595C31.4362 68.936 31.6412 68.8595 31.7188 68.6789L33.7769 63.7128C33.8544 63.5322 33.7514 63.3515 33.5718 63.275C33.5296 63.2562 33.484 63.2459 33.4378 63.2448C33.3915 63.2437 33.3456 63.2518 33.3025 63.2686C33.2594 63.2854 33.2201 63.3106 33.1868 63.3427C33.1535 63.3748 33.1269 63.4132 33.1086 63.4557L31.0494 68.4218C31.0248 68.5074 31.0321 68.599 31.07 68.6795C31.1079 68.7601 31.1739 68.8241 31.2556 68.8595Z" fill="white"/>
<path d="M30.1219 64.8964C30.3025 64.9995 30.379 65.2046 30.3025 65.3852L29.2209 67.5208C29.1976 67.565 29.1657 67.6041 29.1271 67.6359C29.0885 67.6677 29.0439 67.6914 28.9961 67.7057C28.9482 67.7201 28.8979 67.7247 28.8482 67.7194C28.7985 67.7141 28.7504 67.699 28.7066 67.6749C28.526 67.5729 28.4495 67.3667 28.526 67.1861L29.6076 65.0505C29.6309 65.0063 29.6628 64.9671 29.7014 64.9354C29.74 64.9036 29.7845 64.8799 29.8324 64.8656C29.8803 64.8512 29.9306 64.8466 29.9802 64.8519C30.0299 64.8572 30.0781 64.8723 30.1219 64.8964Z" fill="#F3F3F3"/>
<path d="M30.1219 64.8709C30.1701 64.8935 30.2132 64.9257 30.2486 64.9654C30.284 65.0051 30.3109 65.0516 30.3278 65.1021C30.3447 65.1526 30.3512 65.2059 30.3468 65.259C30.3425 65.312 30.3274 65.3636 30.3025 65.4107L29.2209 67.5463C29.1983 67.5945 29.1661 67.6376 29.1264 67.673C29.0867 67.7084 29.0402 67.7353 28.9897 67.7522C28.9392 67.7691 28.8859 67.7756 28.8328 67.7712C28.7798 67.7669 28.7282 67.7518 28.6811 67.7269C28.6328 67.7043 28.5896 67.6722 28.5541 67.6323C28.5186 67.5925 28.4916 67.5459 28.4747 67.4953C28.4578 67.4447 28.4514 67.3912 28.4558 67.3381C28.4602 67.2849 28.4754 67.2332 28.5005 67.1861L29.5811 65.0505C29.6036 65.0022 29.6358 64.9589 29.6756 64.9234C29.7155 64.888 29.7621 64.8609 29.8127 64.844C29.8633 64.8271 29.9168 64.8207 29.9699 64.8252C30.0231 64.8296 30.0748 64.8448 30.1219 64.8699V64.8709ZM28.7066 67.6759C28.8873 67.7524 29.0923 67.7014 29.1688 67.5208L30.2504 65.3852C30.3269 65.2311 30.2504 65.025 30.0964 64.9219C29.9158 64.8454 29.7096 64.8964 29.6331 65.076L28.5515 67.2116C28.475 67.3667 28.5515 67.5729 28.7066 67.6749V67.6759Z" fill="white"/>
<path d="M29.6087 61.0884C29.7893 61.2159 29.8403 61.4486 29.7117 61.6027L26.7261 66.0545C26.6241 66.2352 26.3914 66.2607 26.2119 66.1576C26.0312 66.029 25.9802 65.7963 26.1088 65.6423L29.0944 61.1904C29.1193 61.1474 29.153 61.1102 29.1933 61.0813C29.2337 61.0524 29.2797 61.0325 29.3284 61.0228C29.3771 61.0132 29.4273 61.014 29.4756 61.0253C29.524 61.0367 29.5693 61.0582 29.6087 61.0884Z" fill="#F3F3F3"/>
<path d="M29.6076 61.0619C29.7882 61.1915 29.8392 61.4486 29.7362 61.6282L26.7506 66.0801C26.6892 66.1686 26.5952 66.2291 26.4892 66.2484C26.3833 66.2677 26.274 66.2443 26.1853 66.1831C26.0996 66.1198 26.0396 66.0277 26.016 65.9238C25.9924 65.8199 26.0069 65.711 26.0567 65.6168L29.0424 61.1649C29.1045 61.0774 29.1984 61.0176 29.304 60.9983C29.4096 60.9791 29.5186 61.0019 29.6076 61.0619ZM26.2108 66.1321C26.3649 66.2341 26.5976 66.2086 26.6996 66.0546L29.6852 61.6027C29.7329 61.5276 29.7488 61.4366 29.7295 61.3497C29.7102 61.2629 29.6572 61.1872 29.5821 61.1394C29.4281 61.0364 29.1964 61.0629 29.0934 61.2159L26.1077 65.6423C26.0597 65.7217 26.0436 65.8163 26.0628 65.907C26.0819 65.9978 26.1348 66.0779 26.2108 66.1311V66.1321Z" fill="white"/>
<path d="M25.8506 62.0394C26.0057 62.169 26.0567 62.4006 25.9282 62.5547L24.4375 64.4332C24.3759 64.5082 24.287 64.5557 24.1904 64.5652C24.0938 64.5748 23.9973 64.5456 23.9222 64.4842C23.7681 64.3567 23.7161 64.124 23.8457 63.9699L25.3374 62.0914C25.3991 62.0164 25.4879 61.9689 25.5845 61.9594C25.6812 61.9498 25.7776 61.979 25.8527 62.0404L25.8506 62.0394Z" fill="#F3F3F3"/>
<path d="M25.8772 62.0149C26.0578 62.1424 26.0833 62.4006 25.9537 62.5802L24.4619 64.4587C24.3334 64.6393 24.0762 64.6648 23.8956 64.5107C23.715 64.3811 23.6895 64.124 23.8191 63.9444L25.3109 62.0659C25.4394 61.8853 25.6966 61.8598 25.8772 62.0149ZM23.9477 64.4587C24.1017 64.5872 24.3079 64.5617 24.4364 64.4077L25.9282 62.5292C25.9793 62.453 25.9997 62.3604 25.9856 62.2698C25.9714 62.1793 25.9236 62.0973 25.8517 62.0404C25.6966 61.9119 25.4904 61.9374 25.3629 62.0914L23.8701 63.9699C23.7671 64.124 23.7926 64.3556 23.9466 64.4587H23.9477Z" fill="white"/>
<path d="M26.1088 58.1804C26.2629 58.3344 26.2629 58.5661 26.1088 58.6946L22.3008 62.4771C22.2325 62.5455 22.1398 62.5838 22.0432 62.5838C21.9465 62.5838 21.8538 62.5455 21.7855 62.4771C21.658 62.3496 21.6314 62.0914 21.7855 61.9629L25.568 58.1804C25.6029 58.1435 25.6449 58.1142 25.6915 58.0941C25.738 58.0741 25.7882 58.0637 25.8389 58.0637C25.8897 58.0637 25.9399 58.0741 25.9864 58.0941C26.033 58.1142 26.075 58.1435 26.1099 58.1804H26.1088Z" fill="#F3F3F3"/>
<path d="M26.1343 58.1549C26.2083 58.2304 26.2497 58.3318 26.2497 58.4375C26.2497 58.5432 26.2083 58.6447 26.1343 58.7201L22.3263 62.5026C22.2508 62.5769 22.1491 62.6186 22.0432 62.6186C21.9372 62.6186 21.8355 62.5769 21.76 62.5026C21.686 62.4272 21.6446 62.3257 21.6446 62.22C21.6446 62.1143 21.686 62.0128 21.76 61.9374L25.568 58.1549C25.6435 58.0806 25.7452 58.0389 25.8512 58.0389C25.9571 58.0389 26.0588 58.0806 26.1343 58.1549ZM21.7855 62.4771C21.8518 62.539 21.9392 62.5735 22.0299 62.5735C22.1206 62.5735 22.2079 62.539 22.2743 62.4771L26.0833 58.6946C26.1455 58.6284 26.1801 58.5411 26.1801 58.4503C26.1801 58.3595 26.1455 58.2721 26.0833 58.2059C26.0171 58.1437 25.9297 58.1091 25.8389 58.1091C25.7481 58.1091 25.6608 58.1437 25.5946 58.2059L21.7855 61.9884C21.658 62.1169 21.658 62.3231 21.7855 62.4771Z" fill="white"/>
<path d="M22.2487 58.3865C22.3763 58.5406 22.3763 58.7722 22.2222 58.9008L20.3947 60.4446C20.3195 60.5055 20.2234 60.5342 20.1271 60.5247C20.0308 60.5151 19.9422 60.468 19.8804 60.3936C19.7519 60.2385 19.7519 60.0068 19.9059 59.8783L21.7334 58.3345C21.8086 58.2734 21.9049 58.2447 22.0013 58.2544C22.0977 58.2642 22.1862 58.3117 22.2477 58.3865H22.2487Z" fill="#F3F3F3"/>
<path d="M22.2742 58.3599C22.4283 58.5405 22.4028 58.7977 22.2487 58.9262L20.4212 60.47C20.2672 60.6252 20.0101 60.5997 19.856 60.419C19.7009 60.2384 19.7264 59.9813 19.8815 59.8527L21.709 58.3089C21.862 58.1549 22.1202 58.1804 22.2742 58.361V58.3599ZM19.907 60.3935C20.0356 60.5476 20.2417 60.5476 20.3957 60.4445L22.2232 58.9007C22.2887 58.8377 22.3278 58.7521 22.3325 58.6614C22.3373 58.5706 22.3073 58.4815 22.2487 58.412C22.1202 58.2579 21.9141 58.2579 21.76 58.361L19.9325 59.9048C19.7784 60.0323 19.7784 60.2395 19.907 60.3935Z" fill="white"/>
<path d="M23.2794 54.6805C23.3097 54.72 23.3313 54.7656 23.3425 54.8141C23.3538 54.8626 23.3545 54.913 23.3446 54.9619C23.3348 55.0107 23.3145 55.0568 23.2853 55.0972C23.2561 55.1376 23.2186 55.1712 23.1753 55.1958L18.7 58.1804C18.5194 58.2834 18.2878 58.2314 18.1847 58.0773C18.1543 58.0379 18.1327 57.9924 18.1214 57.9439C18.11 57.8954 18.1092 57.845 18.119 57.7962C18.1287 57.7474 18.1489 57.7012 18.178 57.6608C18.2071 57.6204 18.2445 57.5867 18.2878 57.562L22.7651 54.5774C22.9203 54.4754 23.1508 54.5264 23.2804 54.6805H23.2794Z" fill="#F3F3F3"/>
<path d="M23.3038 54.6805C23.3641 54.7698 23.3869 54.8791 23.3674 54.985C23.348 55.0908 23.2877 55.1849 23.1997 55.2468L18.7234 58.2325C18.6784 58.2633 18.6274 58.2845 18.5738 58.2947C18.5202 58.3049 18.465 58.3038 18.4118 58.2917C18.3586 58.2795 18.3085 58.2564 18.2647 58.2239C18.2208 58.1914 18.1842 58.1502 18.1571 58.1028C18.0971 58.0138 18.0742 57.9049 18.0935 57.7992C18.1128 57.6936 18.1726 57.5997 18.2601 57.5376L22.7375 54.552C22.7824 54.5213 22.8332 54.5002 22.8867 54.49C22.9401 54.4798 22.9951 54.4808 23.0482 54.4929C23.1013 54.5049 23.1513 54.5278 23.1951 54.5601C23.2389 54.5924 23.2755 54.6334 23.3028 54.6805H23.3038ZM18.2081 58.0518C18.3111 58.2059 18.5162 58.258 18.6713 58.1549L23.1487 55.1693C23.3038 55.0673 23.3548 54.8612 23.2263 54.6805C23.1785 54.6055 23.1028 54.5525 23.016 54.5331C22.9291 54.5138 22.8381 54.5298 22.763 54.5775L18.2856 57.5631C18.2136 57.6198 18.1656 57.7017 18.1512 57.7923C18.1368 57.8829 18.1571 57.9756 18.2081 58.0518Z" fill="white"/>
<path d="M19.4438 54.1408C19.4948 54.226 19.51 54.3281 19.4859 54.4245C19.4618 54.5209 19.4004 54.6038 19.3152 54.655L17.2306 55.8386C17.0499 55.9417 16.8194 55.8641 16.7163 55.6846C16.6909 55.6423 16.674 55.5954 16.6667 55.5467C16.6594 55.4979 16.6617 55.4481 16.6737 55.4002C16.6856 55.3524 16.7069 55.3073 16.7363 55.2677C16.7656 55.2281 16.8026 55.1946 16.8449 55.1693L18.9295 53.9856C19.1101 53.8826 19.3407 53.9601 19.4438 54.1397V54.1408Z" fill="#F3F3F3"/>
<path d="M19.4703 54.1142C19.5723 54.3203 19.5213 54.5519 19.3407 54.655L17.2561 55.8386C17.0765 55.9417 16.8194 55.8641 16.7163 55.6846C16.6132 55.4784 16.6643 55.2468 16.8449 55.1438L18.9295 53.9601C19.1101 53.8571 19.3672 53.9346 19.4692 54.1142H19.4703ZM16.7418 55.6591C16.8449 55.8386 17.0499 55.8907 17.2051 55.7866L19.2897 54.6029C19.3626 54.5538 19.4155 54.4802 19.4391 54.3955C19.4627 54.3108 19.4553 54.2205 19.4182 54.1408C19.3152 53.9601 19.1101 53.9081 18.955 54.0111L16.8704 55.1948C16.7163 55.2723 16.6643 55.4784 16.7429 55.6591H16.7418Z" fill="white"/>
<path d="M21.1671 50.7174C21.2447 50.9235 21.1671 51.1296 20.961 51.2061L15.9949 53.2652C15.8142 53.3428 15.5837 53.2397 15.5061 53.0591C15.4286 52.853 15.5061 52.6479 15.7122 52.5704L20.6784 50.5123C20.859 50.4347 21.0906 50.5123 21.1671 50.7184V50.7174Z" fill="#F3F3F3"/>
<path d="M21.1926 50.6919C21.2328 50.7913 21.2339 50.9022 21.1959 51.0024C21.1579 51.1026 21.0835 51.1849 20.9876 51.2327L16.0204 53.2907C15.9215 53.328 15.8118 53.3246 15.7154 53.2812C15.619 53.2378 15.5438 53.1579 15.5061 53.0591C15.4664 52.9597 15.4655 52.849 15.5037 52.749C15.5419 52.649 15.6164 52.567 15.7123 52.5194L20.6784 50.4602C20.7773 50.423 20.887 50.4264 20.9834 50.4698C21.0797 50.5132 21.155 50.5931 21.1926 50.6919ZM15.5571 53.0336C15.6347 53.2142 15.8408 53.2907 15.9949 53.2397L20.961 51.1806C21.0036 51.1624 21.042 51.1359 21.0742 51.1026C21.1064 51.0693 21.1317 51.03 21.1485 50.9869C21.1653 50.9438 21.1733 50.8977 21.1722 50.8514C21.171 50.8052 21.1606 50.7596 21.1416 50.7174C21.106 50.6359 21.0419 50.5702 20.9613 50.5325C20.8808 50.4947 20.7893 50.4876 20.7039 50.5123L15.7378 52.5704C15.6953 52.5887 15.6569 52.6153 15.6248 52.6486C15.5927 52.6819 15.5675 52.7212 15.5507 52.7643C15.5339 52.8074 15.5258 52.8534 15.5269 52.8996C15.528 52.9458 15.5383 52.9914 15.5571 53.0336Z" fill="white"/>
<path d="M17.5408 49.4307C17.6173 49.6368 17.5143 49.843 17.3092 49.9195L15.0439 50.6664C14.8633 50.7429 14.6328 50.6154 14.5807 50.4348C14.5042 50.2286 14.6062 50.0225 14.8123 49.946L17.0776 49.1991C17.2571 49.1226 17.4633 49.2256 17.5408 49.4307Z" fill="#F3F3F3"/>
<path d="M17.5652 49.4063C17.5841 49.4568 17.5923 49.5107 17.5894 49.5645C17.5865 49.6184 17.5726 49.671 17.5485 49.7193C17.5243 49.7675 17.4906 49.8103 17.4492 49.8449C17.4079 49.8795 17.3598 49.9052 17.3081 49.9205L15.0439 50.6664C14.8378 50.7429 14.6062 50.6154 14.5286 50.4093C14.5096 50.3586 14.5013 50.3046 14.5042 50.2505C14.5071 50.1965 14.5211 50.1437 14.5453 50.0953C14.5695 50.0469 14.6035 50.0041 14.645 49.9694C14.6866 49.9348 14.7349 49.9091 14.7868 49.8939L17.0499 49.1481C17.1524 49.1214 17.2611 49.1327 17.3558 49.18C17.4506 49.2272 17.525 49.3073 17.5652 49.4052V49.4063ZM14.5796 50.3838C14.6327 50.5644 14.8378 50.6664 15.0184 50.6154L17.2816 49.8685C17.4622 49.8175 17.5397 49.6113 17.4887 49.4318C17.4367 49.2511 17.2306 49.1481 17.051 49.2001L14.7868 49.946C14.7034 49.9794 14.6358 50.0431 14.5976 50.1243C14.5593 50.2055 14.5533 50.2983 14.5807 50.3838H14.5796Z" fill="white"/>
<path d="M19.8571 46.3696C19.9081 46.5747 19.7795 46.7808 19.5734 46.8063L14.2981 47.8359C14.093 47.888 13.9124 47.7328 13.8614 47.5278C13.8093 47.3216 13.9379 47.1155 14.144 47.089L19.4193 46.0605C19.6254 46.035 19.8316 46.1635 19.8571 46.3686V46.3696Z" fill="#F3F3F3"/>
<path d="M19.9091 46.3696C19.9315 46.4751 19.9118 46.5853 19.8543 46.6765C19.7968 46.7678 19.7059 46.833 19.601 46.8584L14.3246 47.8869C14.1196 47.9389 13.9134 47.7849 13.8624 47.5522C13.8401 47.4466 13.8597 47.3365 13.9173 47.2452C13.9748 47.154 14.0657 47.0887 14.1706 47.0634L19.4459 46.0349C19.652 45.9829 19.8571 46.1369 19.9091 46.3696ZM13.9134 47.5277C13.9389 47.7073 14.1196 47.8359 14.2991 47.8104L19.5744 46.7808C19.7551 46.7553 19.8826 46.5492 19.8316 46.3685C19.8162 46.2808 19.7674 46.2023 19.6955 46.1497C19.6237 46.097 19.5342 46.0742 19.4459 46.0859L14.1706 47.1155C13.9899 47.1665 13.8624 47.3471 13.9134 47.5267V47.5277Z" fill="white"/>
<path d="M16.5633 44.3881C16.5888 44.5931 16.4602 44.7738 16.2552 44.7993L13.8869 45.083C13.8378 45.0881 13.7882 45.0835 13.7409 45.0694C13.6936 45.0552 13.6496 45.0319 13.6114 45.0007C13.5732 44.9695 13.5415 44.931 13.5182 44.8875C13.4949 44.844 13.4805 44.7963 13.4757 44.7472C13.4679 44.6998 13.4697 44.6514 13.4811 44.6048C13.4925 44.5581 13.5133 44.5143 13.542 44.4759C13.5708 44.4375 13.6071 44.4053 13.6486 44.3813C13.6902 44.3572 13.7362 44.3418 13.7838 44.336L16.1511 44.0534C16.3317 44.0268 16.5378 44.1809 16.5633 44.3881Z" fill="#F3F3F3"/>
<path d="M16.5877 44.3881C16.6132 44.6197 16.4581 44.8248 16.2531 44.8503L13.8858 45.1339C13.8334 45.1391 13.7805 45.1338 13.7301 45.1185C13.6798 45.1032 13.6329 45.0781 13.5923 45.0446C13.5516 45.0111 13.5179 44.97 13.4932 44.9235C13.4685 44.8771 13.4531 44.8262 13.4481 44.7738C13.4226 44.5421 13.5756 44.336 13.7827 44.3105L16.15 44.0268C16.2024 44.0218 16.2553 44.0272 16.3056 44.0427C16.3559 44.0582 16.4027 44.0834 16.4432 44.1169C16.4838 44.1505 16.5173 44.1917 16.5419 44.2382C16.5665 44.2848 16.5818 44.3357 16.5867 44.3881H16.5877ZM13.4736 44.7483C13.4991 44.9289 13.6797 45.0829 13.8592 45.0564L16.2265 44.7738C16.3145 44.7586 16.3931 44.71 16.446 44.6381C16.4989 44.5662 16.5219 44.4766 16.5102 44.3881C16.4847 44.2074 16.3041 44.0534 16.1245 44.0789L13.7562 44.3626C13.6684 44.378 13.59 44.4267 13.5373 44.4986C13.4846 44.5705 13.4618 44.6599 13.4736 44.7483Z" fill="white"/>
<path d="M19.4437 41.8912C19.4437 42.0973 19.2897 42.2779 19.0836 42.2779H13.7063C13.5001 42.2779 13.345 42.0973 13.345 41.8922C13.345 41.6861 13.5001 41.5055 13.7063 41.5055H19.0836C19.2897 41.5055 19.4448 41.6861 19.4448 41.8922H19.4437V41.8912Z" fill="#F3F3F3"/>
<path d="M19.4703 41.8912C19.4703 42.1228 19.2897 42.3034 19.0846 42.3034H13.7062C13.5012 42.3034 13.3206 42.1228 13.3206 41.8912C13.3206 41.6595 13.5012 41.48 13.7062 41.48H19.0846C19.2907 41.48 19.4703 41.6606 19.4703 41.8912ZM13.3716 41.8657C13.3716 42.0463 13.5267 42.2269 13.7062 42.2269H19.0846C19.2652 42.2269 19.4193 42.0718 19.4193 41.8657C19.4193 41.685 19.2642 41.5055 19.0846 41.5055H13.7062C13.5256 41.531 13.3726 41.6861 13.3726 41.8667L13.3716 41.8657Z" fill="white"/>
<path d="M16.5888 39.2923C16.5633 39.4984 16.4082 39.6536 16.2021 39.6536L13.8093 39.4729C13.7603 39.4679 13.7127 39.4532 13.6693 39.4298C13.6259 39.4063 13.5875 39.3745 13.5565 39.3362C13.5254 39.2979 13.5021 39.2539 13.4881 39.2066C13.4741 39.1593 13.4695 39.1097 13.4746 39.0607C13.5001 38.8546 13.6553 38.7005 13.8614 38.7005L16.2541 38.8811C16.4348 38.9066 16.5888 39.0872 16.5888 39.2923Z" fill="#E2E2E2"/>
<path d="M16.6143 39.2923C16.6064 39.3963 16.5597 39.4936 16.4836 39.565C16.4075 39.6364 16.3075 39.6767 16.2031 39.678L13.8093 39.4984C13.6043 39.4729 13.4236 39.2923 13.4502 39.0607C13.4581 38.9566 13.5048 38.8593 13.5809 38.788C13.657 38.7166 13.757 38.6763 13.8614 38.675L16.2541 38.8556C16.4603 38.8811 16.6154 39.0872 16.6154 39.2923H16.6143ZM13.4757 39.0607C13.4502 39.2413 13.6032 39.4219 13.7838 39.4219L16.1776 39.6015C16.3583 39.6015 16.5123 39.4729 16.5378 39.2668C16.5427 39.2226 16.5384 39.178 16.5253 39.1355C16.5122 39.0931 16.4906 39.0538 16.4617 39.02C16.4328 38.9863 16.3973 38.9588 16.3574 38.9393C16.3175 38.9198 16.2741 38.9087 16.2297 38.9066L13.8359 38.726C13.6553 38.726 13.5012 38.8811 13.4746 39.0617L13.4757 39.0607Z" fill="white"/>
<path d="M19.9091 37.4138C19.8881 37.5108 19.8315 37.5963 19.7504 37.6536C19.6694 37.7108 19.5698 37.7356 19.4714 37.723L14.1961 36.6424C13.9899 36.5904 13.8614 36.4108 13.9134 36.2047C13.9344 36.108 13.991 36.0227 14.0718 35.9656C14.1527 35.9086 14.252 35.8839 14.3501 35.8965L19.6254 36.9516C19.8061 37.0026 19.9336 37.2087 19.9091 37.4138Z" fill="#F3F3F3"/>
<path d="M19.9336 37.4138C19.9129 37.5178 19.8536 37.6101 19.7677 37.6722C19.6818 37.7343 19.5755 37.7615 19.4703 37.7485L14.1961 36.6934C14.091 36.6684 13.9999 36.6032 13.9421 36.5119C13.8843 36.4206 13.8645 36.3104 13.8869 36.2047C13.9075 36.1007 13.9668 36.0084 14.0527 35.9463C14.1387 35.8842 14.2449 35.857 14.3501 35.87L19.6254 36.9251C19.8316 36.9771 19.9591 37.1822 19.9336 37.4138ZM13.9379 36.2047C13.9238 36.2927 13.942 36.3829 13.9893 36.4585C14.0366 36.5341 14.1097 36.59 14.195 36.6159L19.4714 37.6709C19.563 37.685 19.6565 37.6635 19.7329 37.611C19.8093 37.5585 19.8628 37.4789 19.8826 37.3883C19.8967 37.3001 19.8785 37.2098 19.8312 37.134C19.784 37.0583 19.7109 37.0021 19.6254 36.9761L14.3501 35.9221C14.144 35.8966 13.9899 36.0251 13.9379 36.2047Z" fill="white"/>
<path d="M17.5907 34.3262C17.5792 34.3754 17.5579 34.4217 17.5283 34.4626C17.4987 34.5035 17.4613 34.5382 17.4182 34.5646C17.3752 34.5909 17.3273 34.6085 17.2774 34.6163C17.2275 34.6241 17.1766 34.6219 17.1275 34.6099L14.8112 33.966C14.6051 33.914 14.5031 33.7089 14.5541 33.5028C14.5658 33.4537 14.5871 33.4075 14.6168 33.3667C14.6465 33.3259 14.6839 33.2913 14.727 33.2651C14.77 33.2388 14.8178 33.2213 14.8677 33.2136C14.9175 33.2059 14.9684 33.2081 15.0174 33.2201L17.3336 33.863C17.5387 33.915 17.6417 34.1201 17.5907 34.3262Z" fill="#F3F3F3"/>
<path d="M17.6173 34.3262C17.5663 34.5323 17.3347 34.6874 17.1286 34.6099L14.8123 33.966C14.7117 33.936 14.6264 33.8687 14.5739 33.7778C14.5213 33.6869 14.5055 33.5794 14.5297 33.4772C14.5807 33.2711 14.8123 33.116 15.0184 33.1935L17.3347 33.8374C17.5408 33.8884 17.6694 34.0945 17.6173 34.3262ZM14.6073 33.4762C14.5552 33.6568 14.6583 33.8629 14.8389 33.9139L17.1551 34.5578C17.3347 34.6088 17.5143 34.5057 17.5663 34.3007C17.6173 34.12 17.5143 33.9139 17.3347 33.8629L15.0184 33.2201C14.9304 33.206 14.8402 33.2243 14.7646 33.2715C14.689 33.3188 14.6331 33.3919 14.6073 33.4772V33.4762Z" fill="white"/>
<path d="M21.2181 33.0916C21.2003 33.1377 21.1733 33.1798 21.1388 33.2153C21.1044 33.2508 21.0631 33.279 21.0174 33.2981C20.9718 33.3173 20.9227 33.327 20.8732 33.3268C20.8237 33.3265 20.7748 33.3163 20.7294 33.2966L15.7622 31.2386C15.5816 31.161 15.4796 30.9304 15.5561 30.7498C15.5739 30.7036 15.6009 30.6615 15.6353 30.626C15.6698 30.5905 15.7111 30.5622 15.7567 30.543C15.8023 30.5238 15.8513 30.5139 15.9008 30.514C15.9503 30.5142 15.9993 30.5242 16.0448 30.5437L21.012 32.6028C21.2181 32.6793 21.2957 32.9109 21.2181 33.0916Z" fill="#F3F3F3"/>
<path d="M21.2447 33.117C21.2068 33.2157 21.1315 33.2953 21.0352 33.3387C20.9389 33.3821 20.8294 33.3857 20.7304 33.3487L15.7643 31.2895C15.5582 31.213 15.4806 30.9814 15.5582 30.7498C15.596 30.6512 15.6713 30.5715 15.7676 30.5281C15.8639 30.4848 15.9735 30.4812 16.0724 30.5182L21.0396 32.5762C21.1354 32.6242 21.2096 32.7065 21.2476 32.8066C21.2856 32.9068 21.2846 33.0176 21.2447 33.117ZM15.6092 30.7753C15.5327 30.9559 15.6092 31.161 15.7898 31.2385L20.7559 33.2966C20.9366 33.3742 21.1172 33.2711 21.1937 33.0905C21.2125 33.0483 21.2227 33.0028 21.2238 32.9567C21.2249 32.9105 21.2168 32.8646 21.2 32.8216C21.1832 32.7786 21.158 32.7394 21.1259 32.7062C21.0938 32.673 21.0555 32.6465 21.0131 32.6283L16.0469 30.5692C15.8663 30.5182 15.6612 30.5947 15.6092 30.7753Z" fill="white"/>
<path d="M19.5447 29.6172C19.4427 29.7978 19.2366 29.8743 19.0559 29.7978L16.9203 28.7162C16.7397 28.6397 16.6632 28.4081 16.7662 28.2019C16.8693 28.0213 17.0744 27.9448 17.255 28.0213L19.3906 29.1029C19.5712 29.206 19.6477 29.4376 19.5447 29.6172Z" fill="#F3F3F3"/>
<path d="M19.5713 29.6437C19.5486 29.6918 19.5164 29.7348 19.4766 29.7701C19.4368 29.8054 19.3903 29.8322 19.3398 29.849C19.2894 29.8658 19.236 29.8722 19.183 29.8678C19.13 29.8633 19.0785 29.8482 19.0315 29.8233L16.8959 28.7427C16.8476 28.7201 16.8043 28.688 16.7688 28.6481C16.7334 28.6083 16.7063 28.5617 16.6894 28.5111C16.6725 28.4605 16.6661 28.407 16.6706 28.3539C16.675 28.3007 16.6902 28.249 16.7153 28.2019C16.7378 28.1536 16.77 28.1104 16.8098 28.0749C16.8497 28.0394 16.8963 28.0124 16.9469 27.9955C16.9975 27.9786 17.051 27.9721 17.1041 27.9766C17.1573 27.981 17.209 27.9962 17.2561 28.0213L19.3917 29.1029C19.5978 29.1794 19.6743 29.4376 19.5723 29.6427L19.5713 29.6437ZM16.7928 28.2274C16.7153 28.408 16.7673 28.6131 16.9469 28.6907L19.0825 29.7712C19.2376 29.8488 19.4438 29.7712 19.5458 29.6172C19.6233 29.4365 19.5713 29.2315 19.3917 29.1539L17.2295 28.0733C17.1909 28.0532 17.1486 28.0413 17.1052 28.0382C17.0618 28.0351 17.0182 28.0409 16.9772 28.0554C16.9362 28.0698 16.8985 28.0926 16.8666 28.1222C16.8347 28.1517 16.8092 28.1876 16.7918 28.2274H16.7928Z" fill="white"/>
<path d="M23.3304 29.1285C23.2029 29.3091 22.9967 29.3601 22.8161 29.2315L18.3642 26.2725C18.1836 26.1694 18.1592 25.9378 18.2612 25.7571C18.2859 25.7139 18.3196 25.6765 18.36 25.6474C18.4004 25.6183 18.4466 25.5981 18.4954 25.5884C18.5442 25.5786 18.5946 25.5794 18.6431 25.5908C18.6916 25.6021 18.7371 25.6237 18.7765 25.6541L23.2539 28.6397C23.4079 28.7428 23.46 28.9744 23.3304 29.1285Z" fill="#F3F3F3"/>
<path d="M23.3537 29.154C23.2905 29.2395 23.1987 29.2996 23.095 29.3232C22.9912 29.3468 22.8825 29.3323 22.7885 29.2825L18.3366 26.2969C18.2481 26.2355 18.1876 26.1415 18.1683 26.0356C18.149 25.9296 18.1724 25.8203 18.2336 25.7316C18.2969 25.646 18.3889 25.5859 18.4929 25.5623C18.5968 25.5387 18.7057 25.5532 18.7999 25.6031L23.2517 28.5887C23.4568 28.7162 23.4834 28.9744 23.3537 29.154ZM18.2856 25.7571C18.1826 25.9112 18.2081 26.1428 18.3621 26.2459L22.8395 29.2315C22.8766 29.2553 22.9181 29.2715 22.9615 29.2792C23.005 29.2868 23.0495 29.2859 23.0925 29.2763C23.1356 29.2667 23.1763 29.2487 23.2124 29.2234C23.2485 29.198 23.2792 29.1657 23.3027 29.1285C23.4058 28.9744 23.3803 28.7428 23.2262 28.6397L18.7478 25.6541C18.6727 25.6064 18.5817 25.5904 18.4948 25.6097C18.408 25.6291 18.3323 25.6821 18.2846 25.7571H18.2856Z" fill="white"/>
<path d="M22.3763 25.3969C22.2477 25.5521 22.015 25.6031 21.862 25.4745L19.9835 24.0083C19.9086 23.9466 19.8611 23.8578 19.8513 23.7613C19.8416 23.6648 19.8704 23.5683 19.9314 23.4929C20.06 23.3389 20.2927 23.2868 20.4468 23.4154L22.3242 24.8816C22.4793 25.0113 22.5048 25.2429 22.3763 25.3969Z" fill="#F3F3F3"/>
<path d="M22.4039 25.4224C22.2753 25.6031 22.0182 25.6286 21.8376 25.5L19.9591 24.0337C19.7784 23.9052 19.7529 23.647 19.8815 23.4674C20.0111 23.2868 20.2683 23.2613 20.4478 23.3909L22.3263 24.8572C22.5069 24.9857 22.5324 25.2429 22.4039 25.4235V25.4224ZM19.9336 23.4929C19.805 23.647 19.8305 23.8531 19.9846 23.9817L21.8631 25.4479C21.9392 25.499 22.0318 25.5195 22.1224 25.5053C22.213 25.4911 22.2949 25.4433 22.3518 25.3714C22.4814 25.2174 22.4549 25.0112 22.3008 24.8827L20.4223 23.4164C20.3462 23.3654 20.2536 23.3449 20.163 23.359C20.0724 23.3732 19.9905 23.421 19.9336 23.4929Z" fill="white"/>
<path d="M26.2119 25.6541C26.0568 25.8092 25.8251 25.8092 25.6966 25.6541L21.8631 21.8716C21.7951 21.8033 21.7569 21.7108 21.7569 21.6144C21.7569 21.5181 21.7951 21.4256 21.8631 21.3573C22.0171 21.2032 22.2488 21.2032 22.3773 21.3573L26.1853 25.1398C26.2565 25.2048 26.2991 25.2952 26.3041 25.3915C26.3091 25.4877 26.2759 25.5821 26.2119 25.6541Z" fill="#F3F3F3"/>
<path d="M26.2097 25.6807C26.1342 25.755 26.0325 25.7966 25.9266 25.7966C25.8207 25.7966 25.719 25.755 25.6434 25.6807L21.8344 21.8982C21.7598 21.8226 21.7179 21.7207 21.7179 21.6145C21.7179 21.5083 21.7598 21.4063 21.8344 21.3308C21.9099 21.2565 22.0116 21.2148 22.1175 21.2148C22.2235 21.2148 22.3252 21.2565 22.4007 21.3308L26.2097 25.1133C26.3904 25.2684 26.3904 25.5255 26.2097 25.6796V25.6807ZM21.8864 21.3828C21.8243 21.449 21.7897 21.5364 21.7897 21.6272C21.7897 21.718 21.8243 21.8054 21.8864 21.8716L25.6955 25.6541C25.7617 25.7162 25.8491 25.7508 25.9399 25.7508C26.0307 25.7508 26.1181 25.7162 26.1842 25.6541C26.2464 25.5879 26.281 25.5005 26.281 25.4097C26.281 25.3189 26.2464 25.2315 26.1842 25.1653L22.3762 21.3573C22.2477 21.2288 22.0405 21.2288 21.8875 21.3828H21.8864Z" fill="white"/>
<path d="M25.9792 21.8206C25.8251 21.9491 25.5935 21.9491 25.4649 21.7951L23.8946 19.9931C23.8337 19.9177 23.8051 19.8214 23.815 19.725C23.825 19.6286 23.8727 19.5401 23.9477 19.4788C24.1007 19.3503 24.3323 19.3503 24.4609 19.5043L26.0312 21.3053C26.1587 21.4349 26.1343 21.6665 25.9792 21.8206Z" fill="#F3F3F3"/>
<path d="M26.0047 21.8205C25.9259 21.8915 25.8223 21.9287 25.7163 21.9239C25.6103 21.9191 25.5105 21.8728 25.4384 21.795L23.8691 19.993C23.7139 19.839 23.7394 19.5819 23.9201 19.4278C23.9989 19.3568 24.1025 19.3197 24.2084 19.3244C24.3144 19.3292 24.4143 19.3755 24.4864 19.4533L26.0557 21.2542C26.1843 21.4349 26.1843 21.692 26.0047 21.8205ZM23.9456 19.4788C23.7915 19.6074 23.7915 19.8135 23.8946 19.9675L25.4639 21.7685C25.5268 21.8342 25.6124 21.8734 25.7032 21.8782C25.794 21.8829 25.8832 21.8528 25.9526 21.794C26.1078 21.6665 26.1078 21.4604 26.0047 21.3052L24.4343 19.5043C24.3068 19.3502 24.0996 19.3502 23.9456 19.4788Z" fill="white"/>
<path d="M29.6852 22.7981C29.6457 22.8285 29.6003 22.8501 29.5518 22.8614C29.5033 22.8728 29.4529 22.8736 29.4041 22.8638C29.3553 22.854 29.3091 22.8339 29.2687 22.8048C29.2283 22.7757 29.1946 22.7383 29.1699 22.695L26.1598 18.2431C26.0567 18.0625 26.1077 17.832 26.2629 17.7289C26.3023 17.6987 26.3477 17.6772 26.3961 17.666C26.4445 17.6548 26.4947 17.654 26.5434 17.6638C26.5921 17.6735 26.6381 17.6936 26.6784 17.7226C26.7187 17.7516 26.7524 17.7889 26.7771 17.832L29.7627 22.2838C29.792 22.3225 29.8132 22.3666 29.8252 22.4135C29.8371 22.4605 29.8395 22.5094 29.8323 22.5573C29.8251 22.6052 29.8083 22.6512 29.7831 22.6926C29.7578 22.7339 29.7245 22.7698 29.6852 22.7981Z" fill="#F3F3F3"/>
<path d="M29.6862 22.8236C29.5971 22.8842 29.4876 22.9074 29.3815 22.8881C29.2753 22.8689 29.181 22.8087 29.1189 22.7205L26.1343 18.2686C26.1036 18.2237 26.0825 18.1729 26.0723 18.1194C26.0622 18.066 26.0631 18.011 26.0752 17.9579C26.0873 17.9049 26.1102 17.8549 26.1425 17.8111C26.1748 17.7673 26.2157 17.7306 26.2629 17.7034C26.352 17.643 26.4612 17.62 26.5671 17.6393C26.6729 17.6585 26.767 17.7186 26.8292 17.8064L29.8148 22.2583C29.8459 22.3031 29.8674 22.354 29.8777 22.4076C29.8881 22.4612 29.8871 22.5164 29.8749 22.5696C29.8627 22.6228 29.8395 22.6729 29.8069 22.7166C29.7742 22.7603 29.7327 22.7968 29.6852 22.8236H29.6862ZM26.2884 17.7554C26.2512 17.779 26.2191 17.8096 26.1938 17.8456C26.1686 17.8816 26.1506 17.9222 26.1411 17.9652C26.1315 18.0081 26.1305 18.0525 26.1381 18.0958C26.1456 18.1391 26.1617 18.1805 26.1853 18.2176L29.1709 22.6695C29.274 22.8236 29.4791 22.8501 29.6597 22.7471C29.697 22.7235 29.7292 22.6928 29.7546 22.6567C29.7799 22.6206 29.7979 22.5799 29.8075 22.5368C29.8171 22.4938 29.8181 22.4493 29.8104 22.4059C29.8027 22.3624 29.7865 22.3209 29.7627 22.2838L26.7771 17.8574C26.7238 17.7816 26.6437 17.7289 26.553 17.7098C26.4623 17.6906 26.3678 17.7066 26.2884 17.7544V17.7554Z" fill="white"/>
<path d="M30.2249 18.9901C30.1827 19.0155 30.1358 19.0324 30.087 19.0397C30.0382 19.0471 29.9885 19.0447 29.9406 19.0327C29.8927 19.0208 29.8477 18.9995 29.8081 18.9701C29.7684 18.9408 29.735 18.9039 29.7096 18.8615L28.526 16.7769C28.4229 16.5963 28.5005 16.3657 28.6811 16.2627C28.7663 16.2115 28.8682 16.1962 28.9646 16.2201C29.061 16.244 29.144 16.3051 29.1954 16.3902L30.379 18.4748C30.4566 18.6554 30.4045 18.887 30.2249 18.9901Z" fill="#F3F3F3"/>
<path d="M30.226 19.0155C30.0209 19.1186 29.7893 19.0676 29.6863 18.887L28.5026 16.8024C28.3996 16.6217 28.4506 16.3646 28.6567 16.2626C28.8628 16.1595 29.0944 16.2105 29.1975 16.3901L30.3811 18.4747C30.4842 18.6554 30.4321 18.887 30.2271 19.0155H30.226ZM28.6822 16.2881C28.5281 16.3912 28.4506 16.5962 28.5547 16.7514L29.7373 18.8349C29.8403 18.989 30.0454 19.041 30.2005 18.9645C30.3556 18.8615 30.4321 18.6554 30.3291 18.5013L29.1454 16.4167C29.0689 16.2626 28.8373 16.185 28.6822 16.2881Z" fill="white"/>
<path d="M33.6483 20.688C33.4422 20.7655 33.2361 20.688 33.1596 20.5073L31.0749 15.5412C30.9974 15.3606 31.1004 15.13 31.2811 15.0525C31.4872 14.976 31.6922 15.0525 31.7698 15.2331L33.8544 20.1992C33.9309 20.3798 33.8289 20.6104 33.6483 20.688Z" fill="#F3F3F3"/>
<path d="M33.6472 20.7135C33.5478 20.753 33.4372 20.7537 33.3372 20.7155C33.2373 20.6773 33.1553 20.6031 33.1075 20.5073L31.0229 15.5423C30.9853 15.4432 30.9885 15.3333 31.032 15.2367C31.0754 15.14 31.1554 15.0646 31.2545 15.027C31.3541 14.9872 31.4649 14.9863 31.5651 15.0245C31.6653 15.0627 31.7475 15.1371 31.7953 15.2331L33.8789 20.1992C33.9564 20.3798 33.8534 20.6104 33.6483 20.7145L33.6472 20.7135ZM31.3066 15.078C31.1259 15.1555 31.0484 15.3617 31.1259 15.5157L33.2106 20.4818C33.2871 20.6625 33.4932 20.739 33.6727 20.6625C33.8534 20.5849 33.9309 20.3788 33.8534 20.2247L31.7687 15.2586C31.6657 15.078 31.4861 15.0004 31.3055 15.078H31.3066Z" fill="white"/>
<path d="M34.9095 17.034C34.7034 17.1116 34.4973 17.0085 34.4208 16.8024L33.6738 14.5382C33.5973 14.3576 33.7259 14.126 33.9054 14.075C34.0861 14.0229 34.3177 14.1005 34.3942 14.3066L35.1411 16.5708C35.2176 16.7514 35.1156 16.9575 34.9095 17.034Z" fill="#F3F3F3"/>
<path d="M34.935 17.0595C34.8361 17.0965 34.7265 17.0929 34.6302 17.0495C34.5339 17.0061 34.4586 16.9265 34.4208 16.8279L33.6738 14.5637C33.5973 14.3575 33.7259 14.1259 33.932 14.0494C34.0309 14.0124 34.1405 14.016 34.2368 14.0594C34.3331 14.1028 34.4084 14.1824 34.4463 14.281L35.1921 16.5452C35.2186 16.6475 35.2071 16.756 35.1598 16.8505C35.1126 16.945 35.0327 17.0192 34.935 17.0595ZM33.9309 14.1004C33.7503 14.1514 33.6483 14.3575 33.6993 14.5382L34.4463 16.8024C34.4973 16.983 34.7034 17.0595 34.884 17.0085C35.0646 16.9575 35.1666 16.7514 35.1146 16.5707L34.3687 14.3065C34.3557 14.2627 34.3336 14.2222 34.3039 14.1875C34.2741 14.1528 34.2374 14.1248 34.196 14.1054C34.1547 14.0859 34.1097 14.0754 34.064 14.0745C34.0183 14.0737 33.973 14.0825 33.9309 14.1004Z" fill="white"/>
<path d="M37.9461 19.3757C37.74 19.4278 37.5339 19.2982 37.5084 19.092L36.4278 13.8178C36.3757 13.6117 36.5309 13.431 36.7359 13.38C36.9421 13.328 37.1482 13.4565 37.1737 13.6637L38.2543 18.939C38.2631 19.0366 38.237 19.1341 38.1805 19.2141C38.1241 19.2941 38.041 19.3514 37.9461 19.3757Z" fill="#F3F3F3"/>
<path d="M37.9461 19.4013C37.8406 19.4237 37.7305 19.404 37.6392 19.3464C37.5479 19.2889 37.4827 19.198 37.4574 19.0932L36.3758 13.8178C36.3248 13.6117 36.4788 13.3801 36.6839 13.3546C36.7894 13.3322 36.8995 13.3519 36.9908 13.4094C37.0821 13.467 37.1473 13.5578 37.1726 13.6627L38.2543 18.9391C38.3063 19.1442 38.1778 19.3503 37.9461 19.4013ZM36.7359 13.4056C36.5553 13.4311 36.4278 13.6117 36.4533 13.8178L37.5339 19.0932C37.5594 19.2727 37.7655 19.4013 37.9461 19.3503C38.1257 19.3248 38.2543 19.1442 38.2288 18.938L37.1482 13.6627C37.1221 13.5773 37.066 13.5042 36.9902 13.4569C36.9144 13.4097 36.8241 13.3914 36.7359 13.4056Z" fill="white"/>
<path d="M39.9001 16.031C39.8016 16.0439 39.7019 16.0192 39.6208 15.9619C39.5397 15.9046 39.4831 15.8189 39.4623 15.7218L39.1542 13.3546C39.1438 13.2556 39.1731 13.1567 39.2356 13.0793C39.2982 13.002 39.3889 12.9527 39.4878 12.9423C39.5863 12.9294 39.686 12.9541 39.7671 13.0114C39.8482 13.0687 39.9048 13.1544 39.9256 13.2515L40.2337 15.6187C40.2441 15.7176 40.2148 15.8166 40.1522 15.8939C40.0897 15.9713 39.999 16.0206 39.9001 16.031Z" fill="#F3F3F3"/>
<path d="M39.9001 16.0565C39.6684 16.082 39.4634 15.928 39.4368 15.7218L39.1287 13.3546C39.1235 13.3022 39.1288 13.2493 39.1441 13.1989C39.1595 13.1485 39.1846 13.1017 39.218 13.061C39.2515 13.0204 39.2926 12.9867 39.3391 12.962C39.3856 12.9372 39.4365 12.9219 39.4889 12.9168C39.7205 12.8913 39.9266 13.0454 39.9521 13.2515L40.2602 15.6188C40.2654 15.6712 40.2601 15.7241 40.2448 15.7744C40.2295 15.8248 40.2044 15.8717 40.1709 15.9123C40.1374 15.953 40.0963 15.9866 40.0498 16.0114C40.0034 16.0361 39.9525 16.0515 39.9001 16.0565ZM39.5144 12.9689C39.3337 12.9944 39.1797 13.174 39.2062 13.3546L39.5144 15.7218C39.5399 15.9025 39.7205 16.03 39.9001 16.0045C40.0807 15.979 40.2347 15.7983 40.2092 15.6188L39.9011 13.2515C39.8857 13.1635 39.8368 13.0849 39.7647 13.0322C39.6926 12.9795 39.6029 12.9568 39.5144 12.9689Z" fill="white"/>
<path d="M42.6817 72.4094C59.5085 72.4094 73.1489 58.769 73.1489 41.9433C73.1489 25.1165 59.5085 11.4761 42.6817 11.4761C25.8549 11.4761 12.2145 25.1165 12.2145 41.9433C12.2145 58.7701 25.8549 72.4104 42.6817 72.4104V72.4094Z" fill="url(#paint2_linear_18_266)" fill-opacity="0.2"/>
<g filter="url(#filter2_d_18_266)">
<path d="M63.7798 22.6185L39.2041 38.3658H39.1786V38.3913L39.1531 38.4179L23.817 63.7128L46.359 45.5717L46.3845 45.5462V45.5207L63.7798 22.6185Z" fill="black" fill-opacity="0.05"/>
</g>
<path d="M63.3176 21.1512L39.0256 38.4168L46.2315 45.5717L63.3176 21.1512Z" fill="#CD151E"/>
<path d="M39.0511 38.3669L42.6796 41.9432L63.3165 21.1512L39.0511 38.3658V38.3669Z" fill="#FA5153"/>
<path d="M39.0522 38.3669L46.257 45.5197L21.9661 62.7863L39.0522 38.3658V38.3669Z" fill="#ACACAC"/>
<path d="M21.9661 62.7863L42.6806 41.9433L39.0522 38.3658L21.9661 62.7863Z" fill="#EEEEEE"/>
</g>
<defs>
<filter id="filter0_i_18_266" x="0" y="-1.0625" width="85" height="86.0625" filterUnits="userSpaceOnUse" color-interpolation-filters="sRGB">
<feFlood flood-opacity="0" result="BackgroundImageFix"/>
<feBlend mode="normal" in="SourceGraphic" in2="BackgroundImageFix" result="shape"/>
<feColorMatrix in="SourceAlpha" type="matrix" values="0 0 0 0 0 0 0 0 0 0 0 0 0 0 0 0 0 0 127 0" result="hardAlpha"/>
<feOffset dy="-1.0625"/>
<feGaussianBlur stdDeviation="0.53125"/>
<feComposite in2="hardAlpha" operator="arithmetic" k2="-1" k3="1"/>
<feColorMatrix type="matrix" values="0 0 0 0 0 0 0 0 0 0 0 0 0 0 0 0 0 0 0.12 0"/>
<feBlend mode="normal" in2="shape" result="effect1_innerShadow_18_266"/>
</filter>
<filter id="filter1_d_18_266" x="8.5" y="8.5" width="68" height="68" filterUnits="userSpaceOnUse" color-interpolation-filters="sRGB">
<feFlood flood-opacity="0" result="BackgroundImageFix"/>
<feColorMatrix in="SourceAlpha" type="matrix" values="0 0 0 0 0 0 0 0 0 0 0 0 0 0 0 0 0 0 127 0" result="hardAlpha"/>
<feOffset dy="0.53125"/>
<feGaussianBlur stdDeviation="0.53125"/>
<feColorMatrix type="matrix" values="0 0 0 0 0 0 0 0 0 0 0 0 0 0 0 0 0 0 0.266007 0"/>
<feBlend mode="normal" in2="BackgroundImageFix" result="effect1_dropShadow_18_266"/>
<feBlend mode="normal" in="SourceGraphic" in2="effect1_dropShadow_18_266" result="shape"/>
</filter>
<filter id="filter2_d_18_266" x="22.7545" y="21.8217" width="42.0878" height="43.2193" filterUnits="userSpaceOnUse" color-interpolation-filters="sRGB">
<feFlood flood-opacity="0" result="BackgroundImageFix"/>
<feColorMatrix in="SourceAlpha" type="matrix" values="0 0 0 0 0 0 0 0 0 0 0 0 0 0 0 0 0 0 127 0" result="hardAlpha"/>
<feOffset dy="0.265625"/>
<feGaussianBlur stdDeviation="0.53125"/>
<feColorMatrix type="matrix" values="0 0 0 0 0 0 0 0 0 0 0 0 0 0 0 0 0 0 1 0"/>
<feBlend mode="normal" in2="BackgroundImageFix" result="effect1_dropShadow_18_266"/>
<feBlend mode="normal" in="SourceGraphic" in2="effect1_dropShadow_18_266" result="shape"/>
</filter>
<linearGradient id="paint0_linear_18_266" x1="42.5" y1="74.9062" x2="42.5" y2="9.03125" gradientUnits="userSpaceOnUse">
<stop offset="0.25" stop-color="#DBDBDA"/>
<stop offset="1" stop-color="white"/>
</linearGradient>
<radialGradient id="paint1_radial_18_266" cx="0" cy="0" r="1" gradientUnits="userSpaceOnUse" gradientTransform="translate(46.7798 35.2761) scale(37.1895)">
<stop stop-color="#2ABCE1"/>
<stop offset="0.114" stop-color="#2ABBE1"/>
<stop offset="1" stop-color="#3375F8"/>
</radialGradient>
<linearGradient id="paint2_linear_18_266" x1="42.1026" y1="33.2308" x2="27.8821" y2="58.7435" gradientUnits="userSpaceOnUse">
<stop stop-opacity="0"/>
<stop offset="1"/>
</linearGradient>
</defs>
</svg>
