<svg width="85" height="85" viewBox="0 0 85 85" fill="none" xmlns="http://www.w3.org/2000/svg">
<g clip-path="url(#clip0_12_239)">
<g filter="url(#filter0_i_12_239)">
<path d="M19.2259 0H65.7741C76.3991 0 85 8.60094 85 19.2259V65.7741C85 76.3991 76.3991 85 65.7741 85H19.2259C8.60094 85 0 76.3991 0 65.7741V19.2259C0 8.60094 8.60094 0 19.2259 0Z" fill="#FFFC00"/>
<path d="M71.1599 57.0711C70.9091 56.2424 69.7106 55.658 69.7106 55.658C69.598 55.5985 69.496 55.5443 69.4131 55.5029C67.4146 54.536 65.6434 53.3736 64.1516 52.0551C62.9531 50.9926 61.9278 49.8238 61.1044 48.5839C60.0961 47.0688 59.6254 45.8044 59.4224 45.1191C59.3087 44.6707 59.3268 44.4922 59.4224 44.2595C59.5 44.0629 59.7327 43.877 59.84 43.7888C60.6391 43.2367 61.4485 42.6997 62.2678 42.1781C62.8458 41.8019 63.3409 41.48 63.6331 41.2771C64.5692 40.6215 65.2141 39.9532 65.5892 39.2318C66.0779 38.301 66.1385 37.2757 65.756 36.2674C65.2439 34.9074 63.9731 34.0967 62.356 34.0967C61.999 34.0967 61.6292 34.1381 61.2595 34.2157C60.3351 34.4176 59.4586 34.7469 58.7244 35.0338C58.712 35.0394 58.6985 35.0415 58.685 35.0401C58.6716 35.0387 58.6587 35.0337 58.6478 35.0257C58.6369 35.0177 58.6283 35.007 58.6229 34.9946C58.6175 34.9822 58.6155 34.9686 58.6171 34.9552C58.6946 33.1362 58.7839 30.6903 58.5809 28.3709C58.4024 26.2714 57.9668 24.5002 57.2634 22.9553C56.5537 21.4041 55.6293 20.2587 54.9068 19.4299C54.2215 18.6437 53.0103 17.4803 51.1859 16.4358C48.6211 14.9696 45.6981 14.2237 42.5011 14.2237C39.3104 14.2237 36.3938 14.9685 33.8236 16.4358C31.8899 17.5398 30.6563 18.7861 30.0953 19.4299C29.3728 20.2587 28.4484 21.4041 27.7397 22.9553C27.03 24.5002 26.6007 26.265 26.4222 28.3709C26.2182 30.7031 26.3022 32.9503 26.3861 34.9552C26.3861 35.0147 26.3319 35.0572 26.2724 35.0328C25.5393 34.7459 24.6617 34.4186 23.7373 34.2157C23.3766 34.1378 23.0088 34.0979 22.6397 34.0967C21.0301 34.0967 19.7593 34.9074 19.2397 36.2674C18.8583 37.2757 18.9178 38.301 19.4076 39.2318C19.7891 39.9543 20.4276 40.6215 21.3637 41.2771C21.6506 41.48 22.151 41.8019 22.729 42.1781C23.3792 42.602 24.4354 43.2873 25.1154 43.7591C25.1982 43.8186 25.4851 44.0332 25.5744 44.2595C25.67 44.4986 25.6881 44.6771 25.5627 45.1541C25.3534 45.8458 24.8827 47.0985 23.8924 48.5839C23.033 49.8694 22.0085 51.0364 20.8452 52.0551C19.3534 53.3726 17.5822 54.536 15.5847 55.5029C15.4891 55.5507 15.3754 55.6038 15.2554 55.675C15.2554 55.675 14.0632 56.2838 13.8369 57.0711C13.5022 58.2346 14.3916 59.3258 15.2926 59.9101C16.7716 60.8643 18.5725 61.3774 19.6169 61.6579C19.9081 61.7355 20.1705 61.8067 20.4096 61.8789C20.5583 61.9257 20.9344 62.0702 21.0949 62.2784C21.2978 62.5409 21.3222 62.8628 21.3934 63.2262C21.5071 63.8403 21.7632 64.5979 22.5207 65.1228C23.3559 65.6965 24.412 65.7369 25.7529 65.7911C27.1554 65.8442 28.8968 65.9101 30.8954 66.572C31.8197 66.8769 32.6602 67.3954 33.626 67.9915C35.6543 69.2389 38.1777 70.7891 42.483 70.7891C46.7957 70.7891 49.3361 69.2325 51.3761 67.9798C52.343 67.3891 53.1717 66.8769 54.0781 66.5773C56.0756 65.9164 57.8181 65.8506 59.2195 65.7974C60.5614 65.7433 61.6176 65.7071 62.4527 65.1281C63.2634 64.5681 63.4961 63.733 63.6034 63.1072C63.6629 62.7969 63.699 62.5164 63.8775 62.2891C64.0326 62.0936 64.379 61.9565 64.5394 61.9023C64.7838 61.8248 65.059 61.7536 65.3629 61.6696C66.4062 61.3891 67.7184 61.0608 69.3111 60.1609C71.2321 59.0686 71.3628 57.7331 71.1599 57.0711Z" fill="white"/>
<path d="M72.8174 56.4273C72.3945 55.2691 71.5828 54.655 70.6648 54.1429C70.5138 54.0537 70.3585 53.9721 70.1994 53.8985C69.9252 53.7551 69.6447 53.618 69.3642 53.4735C66.4955 51.9541 64.2536 50.0331 62.7024 47.7604C62.2624 47.1189 61.8791 46.4402 61.557 45.7321C61.4263 45.3507 61.4316 45.1371 61.5273 44.9395C61.5984 44.7908 61.7897 44.6356 61.897 44.557C62.3921 44.2298 62.8989 43.9014 63.2453 43.6804C63.8594 43.2809 64.3482 42.9654 64.6584 42.7508C65.8399 41.9273 66.6623 41.0508 67.1755 40.0733C67.9033 38.6952 67.9926 37.1195 67.4316 35.6405C66.6559 33.5899 64.7116 32.3128 62.3624 32.3128C61.8736 32.3128 61.3785 32.3659 60.8887 32.4743L60.5073 32.5635C60.5348 31.1146 60.4887 29.6653 60.3691 28.2211C59.9292 23.0924 58.1336 20.4011 56.2604 18.2612C55.4795 17.3666 54.1195 16.0597 52.0795 14.8909C49.2352 13.2568 46.0137 12.4334 42.5011 12.4334C39.0001 12.4334 35.7786 13.2568 32.9343 14.8846C30.8826 16.0533 29.5226 17.3666 28.7481 18.2548C26.8738 20.3958 25.0793 23.086 24.6373 28.2158C24.5211 29.6598 24.4753 31.1086 24.5002 32.5571L24.1188 32.4679C23.6347 32.3615 23.1407 32.3073 22.6451 32.3064C20.2959 32.3064 18.3515 33.5835 17.5759 35.6352C17.0149 37.1142 17.1041 38.6888 17.8319 40.0658C18.3451 41.0444 19.1739 41.9209 20.3501 42.7444C20.6656 42.9654 21.148 43.2809 21.7632 43.6751C22.0968 43.8898 22.5803 44.2064 23.0573 44.5219C23.1285 44.5698 23.3846 44.7599 23.4749 44.9395C23.5758 45.1414 23.5758 45.3624 23.4271 45.7683C23.1096 46.462 22.7324 47.1268 22.2998 47.7551C20.7783 49.9789 18.6023 51.8638 15.8291 53.3673C14.3554 54.1482 12.8286 54.6678 12.1848 56.4209C11.6949 57.7448 12.0169 59.2535 13.2515 60.5243C13.6574 60.9599 14.1706 61.3477 14.8134 61.7047C16.3296 62.5398 17.6184 62.9521 18.6309 63.2326C18.8105 63.2857 19.2217 63.4174 19.4013 63.5779C19.8539 63.971 19.7891 64.5681 20.3904 65.4394C20.7549 65.9813 21.1724 66.351 21.5188 66.5901C22.7768 67.4613 24.1963 67.5144 25.6998 67.5739C27.0534 67.6271 28.5919 67.6876 30.3461 68.2656C31.0728 68.5047 31.8304 68.9701 32.7016 69.5066C34.8011 70.8008 37.6816 72.5666 42.4947 72.5666C47.3142 72.5666 50.2074 70.7891 52.3239 69.4949C53.1951 68.9637 53.9463 68.4983 54.6507 68.2656C56.4039 67.6876 57.9424 67.6281 59.2971 67.575C60.7994 67.5144 62.2136 67.4603 63.478 66.5901C63.8711 66.3159 64.3726 65.8676 64.7658 65.1876C65.195 64.4544 65.1897 63.9359 65.5945 63.5832C65.7624 63.4408 66.1258 63.3154 66.3223 63.2559C67.3423 62.9754 68.6492 62.5643 70.193 61.7111C70.8794 61.3349 71.4106 60.9248 71.8335 60.4531L71.8516 60.435C73.0023 59.1813 73.2944 57.7214 72.8184 56.4262L72.8174 56.4273ZM68.5408 58.7223C65.9292 60.1673 64.1931 60.0111 62.8458 60.8759C61.7004 61.6154 62.3741 63.2081 61.5453 63.7808C60.5189 64.4906 57.4951 63.733 53.5882 65.0218C50.3689 66.0886 48.3098 69.1486 42.5064 69.1486C36.6913 69.1486 34.6938 66.1013 31.4245 65.0218C27.5188 63.733 24.4885 64.4906 23.4685 63.7808C22.6398 63.2081 23.3134 61.6154 22.168 60.8759C20.8208 60.0047 19.0846 60.1609 16.473 58.7233C14.8081 57.8043 15.7505 57.2379 16.3051 56.9702C25.7646 52.3951 27.268 45.3209 27.3392 44.7908C27.4231 44.1575 27.5124 43.6571 26.8143 43.0068C26.1407 42.3799 23.1402 40.5259 22.3114 39.9468C20.9334 38.9874 20.3309 38.0269 20.7783 36.8454C21.0885 36.0283 21.8514 35.7244 22.6578 35.7244C22.9075 35.7244 23.1646 35.7542 23.409 35.8084C24.9178 36.1356 26.3851 36.8932 27.2319 37.0961C27.3519 37.1259 27.4529 37.1386 27.5421 37.1386C27.9958 37.1386 28.1509 36.9113 28.1212 36.3928C28.0256 34.7406 27.7865 31.5191 28.0489 28.5079C28.407 24.3684 29.7436 22.3168 31.3299 20.4967C32.0928 19.6265 35.6713 15.8451 42.5128 15.8451C49.3723 15.8451 52.9327 19.6276 53.6956 20.4978C55.2829 22.3104 56.6185 24.3621 56.9766 28.5079C57.239 31.5201 57.0116 34.7406 56.9043 36.3917C56.8692 36.9357 57.0361 37.1376 57.4834 37.1376C57.5726 37.1376 57.6799 37.1269 57.7936 37.0961C58.6404 36.8943 60.1077 36.1356 61.6165 35.8084C61.8609 35.7553 62.118 35.7244 62.3688 35.7244C63.1731 35.7244 63.937 36.0347 64.2472 36.8454C64.6935 38.0269 64.0858 38.9874 62.7141 39.9479C61.8853 40.5259 58.8848 42.381 58.2112 43.0079C57.5131 43.6507 57.6024 44.1522 57.6863 44.7908C57.7522 45.322 59.2609 52.3951 68.7204 56.9691C69.2569 57.2379 70.2058 57.8043 68.5408 58.7223Z" fill="black"/>
</g>
</g>
<defs>
<filter id="filter0_i_12_239" x="0" y="-1.0625" width="85" height="86.0625" filterUnits="userSpaceOnUse" color-interpolation-filters="sRGB">
<feFlood flood-opacity="0" result="BackgroundImageFix"/>
<feBlend mode="normal" in="SourceGraphic" in2="BackgroundImageFix" result="shape"/>
<feColorMatrix in="SourceAlpha" type="matrix" values="0 0 0 0 0 0 0 0 0 0 0 0 0 0 0 0 0 0 127 0" result="hardAlpha"/>
<feOffset dy="-1.0625"/>
<feGaussianBlur stdDeviation="0.53125"/>
<feComposite in2="hardAlpha" operator="arithmetic" k2="-1" k3="1"/>
<feColorMatrix type="matrix" values="0 0 0 0 0 0 0 0 0 0 0 0 0 0 0 0 0 0 0.12 0"/>
<feBlend mode="normal" in2="shape" result="effect1_innerShadow_12_239"/>
</filter>
<clipPath id="clip0_12_239">
<rect width="85" height="85" fill="white"/>
</clipPath>
</defs>
</svg>
