<svg width="85" height="85" viewBox="0 0 85 85" fill="none" xmlns="http://www.w3.org/2000/svg">
<g clip-path="url(#clip0_18_407)">
<g filter="url(#filter0_i_18_407)">
<path d="M19.2259 0H65.7741C76.3991 0 85 8.60094 85 19.2259V65.7741C85 76.3991 76.3991 85 65.7741 85H19.2259C8.60094 85 0 76.3991 0 65.7741V19.2259C0 8.60094 8.60094 0 19.2259 0Z" fill="#151418"/>
<path d="M42.5 11.6875C25.483 11.6875 11.6875 25.483 11.6875 42.5C11.6875 59.5181 25.483 73.3125 42.5 73.3125C59.5181 73.3125 73.3125 59.5181 73.3125 42.5C73.3125 25.4841 59.5181 11.6886 42.5 11.6886V11.6875ZM56.6302 56.1287C56.4987 56.344 56.326 56.5313 56.122 56.6799C55.918 56.8285 55.6868 56.9353 55.4414 56.9945C55.1961 57.0536 54.9415 57.0637 54.6923 57.0244C54.443 56.985 54.204 56.8969 53.9888 56.7651C46.7532 52.3451 37.6476 51.3453 26.9216 53.7954C26.4275 53.9022 25.9111 53.8098 25.4846 53.5384C25.0581 53.267 24.7558 52.8383 24.6432 52.3454C24.5306 51.8526 24.6169 51.3352 24.8833 50.9055C25.1497 50.4758 25.5748 50.1685 26.0663 50.0501C37.8038 47.3662 47.872 48.5223 55.9938 53.4863C56.2091 53.6179 56.3965 53.7907 56.545 53.9947C56.6936 54.1988 56.8005 54.4302 56.8596 54.6756C56.9187 54.921 56.9289 55.1756 56.8895 55.425C56.8501 55.6743 56.762 55.9134 56.6302 56.1287ZM60.4021 47.7371C60.2373 48.0062 60.0211 48.2403 59.7658 48.4258C59.5105 48.6114 59.2211 48.7448 58.9142 48.8184C58.6073 48.892 58.2889 48.9044 57.9772 48.8548C57.6655 48.8053 57.3666 48.6948 57.0977 48.5297C48.8155 43.4382 36.1898 41.9634 26.3936 44.9384C25.7836 45.1232 25.1253 45.0583 24.5631 44.7581C24.001 44.4579 23.5809 43.9469 23.3952 43.3372C23.2111 42.7275 23.2765 42.0696 23.5768 41.5079C23.8772 40.9462 24.3881 40.5265 24.9974 40.341C36.1877 36.9452 50.099 38.59 59.6105 44.4348C60.1534 44.7678 60.5417 45.3027 60.6902 45.922C60.8386 46.5413 60.735 47.1942 60.4021 47.7371ZM60.7251 39.0001C50.7949 33.1022 34.4101 32.5592 24.9294 35.4376C24.5673 35.5474 24.187 35.5849 23.8104 35.5478C23.4338 35.5108 23.0681 35.3999 22.7344 35.2215C22.4006 35.0431 22.1052 34.8007 21.8651 34.5082C21.625 34.2157 21.4449 33.8787 21.335 33.5166C21.2251 33.1544 21.1876 32.7742 21.2247 32.3975C21.2618 32.0209 21.3727 31.6553 21.5511 31.3215C21.7294 30.9877 21.9718 30.6923 22.2644 30.4522C22.5569 30.2121 22.8939 30.032 23.256 29.9221C34.1403 26.6178 52.2336 27.2552 63.6671 34.0446C63.9927 34.2376 64.277 34.4928 64.5039 34.7957C64.7307 35.0986 64.8957 35.4433 64.9892 35.8099C65.0828 36.1766 65.1031 36.5582 65.0491 36.9327C64.9951 37.3073 64.8677 37.6676 64.6744 37.9929C64.4814 38.3183 64.2263 38.6025 63.9235 38.8293C63.6206 39.056 63.2761 39.2209 62.9095 39.3144C62.5429 39.408 62.1615 39.4284 61.7871 39.3744C61.4126 39.3205 61.0525 39.1933 60.7272 39.0001H60.7251Z" fill="#1ED760"/>
</g>
</g>
<defs>
<filter id="filter0_i_18_407" x="0" y="-1.0625" width="85" height="86.0625" filterUnits="userSpaceOnUse" color-interpolation-filters="sRGB">
<feFlood flood-opacity="0" result="BackgroundImageFix"/>
<feBlend mode="normal" in="SourceGraphic" in2="BackgroundImageFix" result="shape"/>
<feColorMatrix in="SourceAlpha" type="matrix" values="0 0 0 0 0 0 0 0 0 0 0 0 0 0 0 0 0 0 127 0" result="hardAlpha"/>
<feOffset dy="-1.0625"/>
<feGaussianBlur stdDeviation="0.53125"/>
<feComposite in2="hardAlpha" operator="arithmetic" k2="-1" k3="1"/>
<feColorMatrix type="matrix" values="0 0 0 0 0 0 0 0 0 0 0 0 0 0 0 0 0 0 0.12 0"/>
<feBlend mode="normal" in2="shape" result="effect1_innerShadow_18_407"/>
</filter>
<clipPath id="clip0_18_407">
<rect width="85" height="85" fill="white"/>
</clipPath>
</defs>
</svg>
