<svg width="85" height="85" viewBox="0 0 85 85" fill="none" xmlns="http://www.w3.org/2000/svg">
<g clip-path="url(#clip0_12_244)">
<g filter="url(#filter0_i_12_244)">
<path d="M19.2259 0H65.7741C76.3991 0 85 8.60094 85 19.2259V65.7741C85 76.3991 76.3991 85 65.7741 85H19.2259C8.60094 85 0 76.3991 0 65.7741V19.2259C0 8.60094 8.60094 0 19.2259 0Z" fill="#020002"/>
<path d="M55.5751 34.3804C59.7071 37.3422 64.665 38.9314 69.7489 38.9236V28.7364C68.7491 28.7364 67.7514 28.6322 66.7728 28.425V36.4437C61.4879 36.4437 56.5941 34.7607 52.5991 31.9005V52.6894C52.5991 63.0891 44.1819 71.5201 33.7992 71.5201C30.071 71.5259 26.4263 70.4166 23.3336 68.3347C25.081 70.13 27.171 71.5565 29.4797 72.5296C31.7883 73.5027 34.2688 74.0027 36.7742 73.9999C47.158 73.9999 55.5762 65.57 55.5762 55.1692V34.3804H55.5751ZM59.2471 24.1028C57.1461 21.8085 55.8561 18.888 55.5751 15.7898V14.4797H52.7542C53.1013 16.4493 53.8587 18.3239 54.9773 19.9817C56.0959 21.6396 57.5507 23.0436 59.2471 24.1028ZM29.9009 60.3553C28.7598 58.8562 28.1434 57.0234 28.1467 55.1395C28.1467 50.3827 31.9961 46.5269 36.7455 46.5269C37.6306 46.5265 38.5104 46.6627 39.3539 46.9306V36.5149C38.3683 36.3799 37.3736 36.3227 36.3789 36.3439V44.4507C35.5351 44.1825 34.6549 44.0463 33.7694 44.047C29.0201 44.047 25.1696 47.9039 25.1696 52.6596C25.1685 54.2545 25.6103 55.8183 26.4457 57.1769C27.2811 58.5354 28.4772 59.6354 29.9009 60.3542V60.3553Z" fill="#FF004F"/>
<path d="M52.5991 31.9005C56.7313 34.8617 61.6891 36.4505 66.7728 36.4427V28.424C63.8753 27.8028 61.2442 26.2921 59.2471 24.1028C57.5509 23.0435 56.0963 21.6394 54.9779 19.9816C53.8595 18.3237 53.1022 16.4492 52.7552 14.4797H45.3454V55.1692C45.3284 59.9122 41.4853 63.7542 36.7455 63.7542C35.4193 63.7549 34.111 63.4483 32.9233 62.8584C31.7355 62.2684 30.7006 61.4113 29.8998 60.3542C28.4766 59.6352 27.2808 58.5353 26.4457 57.177C25.6105 55.8187 25.1688 54.2552 25.1696 52.6607C25.1696 47.9039 29.019 44.047 33.7684 44.047C34.6789 44.047 35.5555 44.1883 36.3789 44.4507V36.3439C26.1789 36.5553 17.9754 44.9023 17.9754 55.1692C17.9754 60.2947 20.0186 64.94 23.3336 68.3347C26.4263 70.4165 30.071 71.5259 33.7992 71.5201C44.1819 71.5201 52.5991 63.0891 52.5991 52.6894V31.9005Z" fill="#FFFEFF"/>
<path d="M66.7728 28.424V26.2565C64.112 26.2601 61.5041 25.5137 59.2482 24.1028C61.2445 26.2926 63.8754 27.8034 66.7728 28.424ZM52.7552 14.4798C52.6875 14.0924 52.6354 13.7025 52.5991 13.311V11.9999H42.3682V52.6894C42.3523 57.4324 38.5093 61.2744 33.7694 61.2744C32.4252 61.276 31.0995 60.9608 29.8998 60.3543C30.7006 61.4113 31.7355 62.2685 32.9233 62.8584C34.111 63.4483 35.4193 63.7549 36.7455 63.7543C41.4842 63.7543 45.3294 59.9133 45.3454 55.1693V14.4798H52.7552ZM36.38 36.3439V34.0351C35.5251 33.9179 34.6632 33.8594 33.8003 33.8598C23.4164 33.8598 14.9993 42.2907 14.9993 52.6894C14.9993 59.2089 18.3079 64.9549 23.3346 68.3347C19.8928 64.8176 17.9688 60.0902 17.9764 55.1693C17.9764 44.9023 26.1789 36.5543 36.3789 36.3439H36.38Z" fill="#00F2EA"/>
</g>
</g>
<defs>
<filter id="filter0_i_12_244" x="0" y="-1.0625" width="85" height="86.0625" filterUnits="userSpaceOnUse" color-interpolation-filters="sRGB">
<feFlood flood-opacity="0" result="BackgroundImageFix"/>
<feBlend mode="normal" in="SourceGraphic" in2="BackgroundImageFix" result="shape"/>
<feColorMatrix in="SourceAlpha" type="matrix" values="0 0 0 0 0 0 0 0 0 0 0 0 0 0 0 0 0 0 127 0" result="hardAlpha"/>
<feOffset dy="-1.0625"/>
<feGaussianBlur stdDeviation="0.53125"/>
<feComposite in2="hardAlpha" operator="arithmetic" k2="-1" k3="1"/>
<feColorMatrix type="matrix" values="0 0 0 0 0 0 0 0 0 0 0 0 0 0 0 0 0 0 0.12 0"/>
<feBlend mode="normal" in2="shape" result="effect1_innerShadow_12_244"/>
</filter>
<clipPath id="clip0_12_244">
<rect width="85" height="85" fill="white"/>
</clipPath>
</defs>
</svg>
