<svg width="85" height="85" viewBox="0 0 85 85" fill="none" xmlns="http://www.w3.org/2000/svg">
<g clip-path="url(#clip0_12_256)">
<g filter="url(#filter0_i_12_256)">
<path d="M19.2259 0H65.7741C76.3991 0 85 8.60094 85 19.2259V65.7741C85 76.3991 76.3991 85 65.7741 85H19.2259C8.60094 85 0 76.3991 0 65.7741V19.2259C0 8.60094 8.60094 0 19.2259 0Z" fill="#1DA1F2"/>
<path d="M32.0344 64.9857C52.4737 64.9857 63.6523 48.0643 63.6523 33.3923C63.6523 32.9109 63.6416 32.4328 63.6204 31.9568C65.7949 30.3845 67.672 28.4373 69.1634 26.2066C67.1357 27.1051 64.9846 27.6942 62.7821 27.9544C65.102 26.5676 66.8389 24.3851 67.6696 21.8131C65.4876 23.1065 63.101 24.0181 60.6124 24.5087C59.5725 23.3997 58.3159 22.516 56.9205 21.9125C55.5251 21.309 54.0206 20.9986 52.5002 21.0003C46.3632 21.0003 41.3865 25.9728 41.3865 32.1034C41.3865 32.9747 41.4853 33.8215 41.6755 34.6343C32.4392 34.17 24.2505 29.7511 18.768 23.0329C17.7809 24.7272 17.2617 26.6533 17.2635 28.6142C17.262 30.4431 17.7128 32.2441 18.5758 33.8566C19.4387 35.4692 20.687 36.8434 22.2094 37.8569C20.4448 37.8032 18.7188 37.327 17.1764 36.4682C17.1743 36.5149 17.1743 36.5606 17.1743 36.6095C17.1743 41.9879 21.0056 46.4769 26.0897 47.4948C24.4533 47.9398 22.737 48.0053 21.0715 47.6861C21.7821 49.8931 23.1647 51.8229 25.0259 53.2055C26.8871 54.5882 29.1339 55.3547 31.4521 55.3977C27.5148 58.4851 22.6537 60.1589 17.6503 60.1502C16.7546 60.1502 15.8695 60.0993 14.9993 59.9972C20.0816 63.2596 25.9951 64.9909 32.0344 64.9846" fill="white"/>
</g>
</g>
<defs>
<filter id="filter0_i_12_256" x="0" y="-1.0625" width="85" height="86.0625" filterUnits="userSpaceOnUse" color-interpolation-filters="sRGB">
<feFlood flood-opacity="0" result="BackgroundImageFix"/>
<feBlend mode="normal" in="SourceGraphic" in2="BackgroundImageFix" result="shape"/>
<feColorMatrix in="SourceAlpha" type="matrix" values="0 0 0 0 0 0 0 0 0 0 0 0 0 0 0 0 0 0 127 0" result="hardAlpha"/>
<feOffset dy="-1.0625"/>
<feGaussianBlur stdDeviation="0.53125"/>
<feComposite in2="hardAlpha" operator="arithmetic" k2="-1" k3="1"/>
<feColorMatrix type="matrix" values="0 0 0 0 0 0 0 0 0 0 0 0 0 0 0 0 0 0 0.12 0"/>
<feBlend mode="normal" in2="shape" result="effect1_innerShadow_12_256"/>
</filter>
<clipPath id="clip0_12_256">
<rect width="85" height="85" fill="white"/>
</clipPath>
</defs>
</svg>
