<svg width="85" height="85" viewBox="0 0 85 85" fill="none" xmlns="http://www.w3.org/2000/svg">
<g clip-path="url(#clip0_31_32)">
<g filter="url(#filter0_i_31_32)">
<path d="M19.2259 0H65.7741C76.3991 0 85 8.60094 85 19.2259V65.7741C85 76.3991 76.3991 85 65.7741 85H19.2259C8.60094 85 0 76.3991 0 65.7741V19.2259C0 8.60094 8.60094 0 19.2259 0Z" fill="#008CFF"/>
<path d="M63.9668 17.0627C65.8389 20.1621 66.6825 23.3538 66.6825 27.3871C66.6825 40.2497 55.7313 56.9575 46.8435 68.6907H26.5413L18.3993 19.8794L36.1749 18.1869L40.4802 52.92C44.5018 46.3495 49.4658 36.0252 49.4658 28.9861C49.4658 25.1335 48.807 22.5091 47.7785 20.348L63.9657 17.0627H63.9668Z" fill="white"/>
</g>
</g>
<defs>
<filter id="filter0_i_31_32" x="0" y="-1.0625" width="85" height="86.0625" filterUnits="userSpaceOnUse" color-interpolation-filters="sRGB">
<feFlood flood-opacity="0" result="BackgroundImageFix"/>
<feBlend mode="normal" in="SourceGraphic" in2="BackgroundImageFix" result="shape"/>
<feColorMatrix in="SourceAlpha" type="matrix" values="0 0 0 0 0 0 0 0 0 0 0 0 0 0 0 0 0 0 127 0" result="hardAlpha"/>
<feOffset dy="-1.0625"/>
<feGaussianBlur stdDeviation="0.53125"/>
<feComposite in2="hardAlpha" operator="arithmetic" k2="-1" k3="1"/>
<feColorMatrix type="matrix" values="0 0 0 0 0 0 0 0 0 0 0 0 0 0 0 0 0 0 0.12 0"/>
<feBlend mode="normal" in2="shape" result="effect1_innerShadow_31_32"/>
</filter>
<clipPath id="clip0_31_32">
<rect width="85" height="85" fill="white"/>
</clipPath>
</defs>
</svg>
