<svg width="85" height="85" viewBox="0 0 85 85" fill="none" xmlns="http://www.w3.org/2000/svg">
<g clip-path="url(#clip0_7_232)">
<g filter="url(#filter0_i_7_232)">
<path d="M19.2259 0H65.7741C76.3991 0 85 8.60094 85 19.2259V65.7741C85 76.3991 76.3991 85 65.7741 85H19.2259C8.60094 85 0 76.3991 0 65.7741V19.2259C0 8.60094 8.60094 0 19.2259 0Z" fill="url(#paint0_linear_7_232)"/>
<path d="M12.5014 72.4997C12.7011 71.7007 12.9009 71.1004 13.0007 70.5001C14.2014 66.3 15.3011 62.0999 16.4007 57.8999C16.5006 57.5004 16.5006 56.9999 16.3009 56.6992C14.2014 53.0007 13.1006 49.0004 12.7011 44.7004C12.3006 40.0998 13.0007 35.6001 14.7007 31.3002C17.4006 24.6999 21.9013 19.6998 28.101 16.1999C32.1013 14.0006 36.4013 12.7999 41.0008 12.6002C48.9005 12.3006 55.8014 14.5998 61.8014 19.7997C67.3009 24.6001 70.8008 30.6 71.8006 37.8006C73.1011 46.7001 70.9006 54.5998 65.1015 61.5007C60.2012 67.2998 53.9006 70.7997 46.3006 71.8006C40.4005 72.5996 34.7012 71.8006 29.3006 68.9998C28.4006 68.6003 27.7004 68.5004 26.7006 68.7002C22.3019 69.9008 17.901 71.0005 13.5012 72.2001C13.4013 72.2999 13.0018 72.3998 12.5014 72.4997ZM41.8009 17.4006C41.0008 17.5004 39.4007 17.6003 37.9015 17.8001C32.3011 18.8998 27.5007 21.5996 23.7012 25.9006C19.3014 31.0006 17.2008 37.0005 17.6014 43.7006C17.8011 48.0994 19.2015 52.0997 21.6006 55.8004C21.8014 56.1 21.8014 56.5006 21.7005 56.9001C21.1012 59.2004 20.5009 61.5007 19.8007 63.7999C19.7009 64.2005 19.601 64.5001 19.5011 64.9007C19.5011 65.0006 19.8007 65.3002 19.9006 65.3002C20.1014 65.3002 20.4 65.2003 20.7007 65.1004C23.1019 64.5001 25.6009 63.7999 28.0001 63.2007C28.5005 63.0998 29.1008 63.2007 29.5014 63.4004C34.3007 66.2001 39.5006 67.3997 45.0011 66.8004C51.8011 66.0992 57.4005 62.9999 61.6006 57.8011C65.7018 52.7011 67.6005 46.8998 67.1011 40.2996C66.7006 34.6003 64.6011 29.6002 60.7006 25.4001C56.0012 20.2003 49.8004 17.5004 41.8009 17.3995V17.4006Z" fill="white"/>
<path d="M50.3019 56.4995C48.0016 56.6004 46.002 55.6994 44.0013 54.9004C40.5014 53.5999 37.502 51.4006 34.9021 48.6997C32.6017 46.4004 30.5022 43.9004 29.002 40.9997C27.5017 38.3998 26.9014 35.6001 27.9023 32.6995C28.4017 31.3002 29.3016 30.0996 30.4013 29.0997C31.5021 28.1998 32.8026 28.3996 34.102 28.7002C34.4016 28.8001 34.6014 29.0997 34.8022 29.4004C35.7021 31.4001 36.6021 33.3997 37.4021 35.4992C37.6019 35.8997 37.502 36.5001 37.2024 36.8996C36.8018 37.6008 36.2015 38.2999 35.6022 38.9002C34.901 39.7003 34.8022 39.9999 35.4014 40.8999C37.8027 45.0001 41.2027 47.8996 45.6014 49.5996C46.2017 49.8004 46.6023 49.6995 47.0018 49.3C47.702 48.4001 48.5021 47.5001 49.2012 46.7001C49.8015 45.9 50.1022 45.8001 51.102 46.2007C51.9021 46.5003 52.6022 46.8998 53.4023 47.1994C54.502 47.6999 55.6017 48.3002 56.7014 48.7996C57.4026 49.1002 57.6024 49.6995 57.6024 50.3997C57.3017 53.7997 54.6019 56.2997 51.102 56.3996C50.8024 56.4995 50.5017 56.4995 50.3019 56.4995Z" fill="white"/>
</g>
</g>
<defs>
<filter id="filter0_i_7_232" x="0" y="-1.0625" width="85" height="86.0625" filterUnits="userSpaceOnUse" color-interpolation-filters="sRGB">
<feFlood flood-opacity="0" result="BackgroundImageFix"/>
<feBlend mode="normal" in="SourceGraphic" in2="BackgroundImageFix" result="shape"/>
<feColorMatrix in="SourceAlpha" type="matrix" values="0 0 0 0 0 0 0 0 0 0 0 0 0 0 0 0 0 0 127 0" result="hardAlpha"/>
<feOffset dy="-1.0625"/>
<feGaussianBlur stdDeviation="0.53125"/>
<feComposite in2="hardAlpha" operator="arithmetic" k2="-1" k3="1"/>
<feColorMatrix type="matrix" values="0 0 0 0 0 0 0 0 0 0 0 0 0 0 0 0 0 0 0.12 0"/>
<feBlend mode="normal" in2="shape" result="effect1_innerShadow_7_232"/>
</filter>
<linearGradient id="paint0_linear_7_232" x1="42.5" y1="0" x2="42.5" y2="85" gradientUnits="userSpaceOnUse">
<stop stop-color="#00FF6A"/>
<stop offset="1" stop-color="#00D31D"/>
</linearGradient>
<clipPath id="clip0_7_232">
<rect width="85" height="85" fill="white"/>
</clipPath>
</defs>
</svg>
