<svg width="85" height="85" viewBox="0 0 85 85" fill="none" xmlns="http://www.w3.org/2000/svg">
<g clip-path="url(#clip0_19_922)">
<g filter="url(#filter0_i_19_922)">
<path d="M19.2259 0H65.7741C76.3991 0 85 8.60094 85 19.2259V65.7741C85 76.3991 76.3991 85 65.7741 85H19.2259C8.60094 85 0 76.3991 0 65.7741V19.2259C0 8.60094 8.60094 0 19.2259 0Z" fill="url(#paint0_linear_19_922)"/>
<path fill-rule="evenodd" clip-rule="evenodd" d="M39.2519 32.8918C39.5688 33.1101 39.9259 33.2632 40.3024 33.3422C40.679 33.4213 41.0675 33.4247 41.4453 33.3524C41.8232 33.28 42.183 33.1332 42.5037 32.9206C42.8243 32.7081 43.0996 32.4338 43.3134 32.114C43.5272 31.7941 43.6753 31.4349 43.749 31.0573C43.8228 30.6797 43.8208 30.2912 43.7432 29.9143C43.6655 29.5375 43.5138 29.1798 43.2967 28.8622C43.0796 28.5445 42.8016 28.2731 42.4788 28.0638C41.8384 27.6487 41.0604 27.5023 40.3131 27.6563C39.5657 27.8104 38.9089 28.2524 38.4849 28.8868C38.0609 29.5213 37.9036 30.2971 38.0472 31.0466C38.1907 31.7961 38.6235 32.4589 39.2519 32.8918ZM24.6638 32.8918C24.9806 33.1127 25.3383 33.2683 25.7159 33.3493C26.0935 33.4303 26.4835 33.4351 26.863 33.3636C27.2426 33.292 27.604 33.1454 27.9262 32.9324C28.2484 32.7195 28.5248 32.4444 28.7394 32.1232C28.954 31.8021 29.1023 31.4414 29.1758 31.0622C29.2492 30.6831 29.2463 30.293 29.1671 29.915C29.088 29.537 28.9342 29.1786 28.7149 28.8607C28.4955 28.5428 28.2149 28.2719 27.8896 28.0638C27.2492 27.6487 26.4713 27.5023 25.7239 27.6563C24.9765 27.8104 24.3197 28.2524 23.8957 28.8868C23.4717 29.5213 23.3144 30.2971 23.458 31.0466C23.6015 31.7961 24.0343 32.4589 24.6628 32.8918H24.6638ZM11.6875 36.3131C11.6875 26.231 21.4848 18.0625 33.5729 18.0625C44.4901 18.0625 53.5373 24.7244 55.1884 33.4432C54.7942 33.4103 54.4128 33.4103 53.9984 33.4103C42.976 33.4103 34.0372 40.8521 34.0414 50.0395C34.0436 51.5589 34.2933 53.0676 34.7799 54.5073C34.3814 54.536 33.9915 54.536 33.5771 54.536C31.1611 54.5381 28.7567 54.2019 26.4339 53.5373C26.2257 53.4735 26.0089 53.4416 25.7911 53.4416C25.3782 53.4468 24.9741 53.5627 24.6213 53.7774L19.8263 56.5441C19.7018 56.6232 19.5591 56.6689 19.4119 56.6769C19.3162 56.6775 19.2213 56.6591 19.1327 56.6229C19.0441 56.5867 18.9635 56.5334 18.8956 56.466C18.8277 56.3985 18.7738 56.3184 18.7369 56.23C18.7001 56.1417 18.681 56.047 18.6809 55.9512C18.6968 55.7685 18.7361 55.5889 18.7977 55.4157L19.5861 52.4769L19.7848 51.7363C19.8316 51.5854 19.8581 51.4292 19.8634 51.272C19.8633 51.0395 19.8075 50.8104 19.7006 50.604C19.5938 50.3975 19.439 50.2196 19.2493 50.0852C14.637 46.7426 11.6875 41.7934 11.6875 36.3141V36.3131ZM58.7286 47.1962C58.9938 47.383 59.2936 47.5147 59.6104 47.5838C59.9272 47.6529 60.2547 47.6579 60.5735 47.5985C60.8923 47.5391 61.196 47.4165 61.4667 47.238C61.7374 47.0595 61.9696 46.8286 62.1498 46.5589C62.3299 46.2893 62.4542 45.9863 62.5155 45.6679C62.5768 45.3494 62.5737 45.0219 62.5065 44.7047C62.4393 44.3875 62.3093 44.0869 62.1241 43.8207C61.939 43.5544 61.7024 43.3279 61.4284 43.1545C60.8924 42.8152 60.245 42.6989 59.6244 42.8304C59.0038 42.9619 58.4592 43.3308 58.1068 43.8583C57.7544 44.3858 57.6222 45.0302 57.7384 45.6538C57.8546 46.2775 58.2099 46.831 58.7286 47.1962ZM46.5672 47.1941C46.8324 47.3718 47.1299 47.4956 47.4428 47.5583C47.7557 47.621 48.0779 47.6214 48.391 47.5596C48.7041 47.4978 49.002 47.3749 49.2676 47.198C49.5332 47.0211 49.7614 46.7936 49.9391 46.5285C50.1168 46.2634 50.2405 45.9659 50.3032 45.6529C50.3659 45.34 50.3664 45.0178 50.3046 44.7047C50.2428 44.3916 50.1199 44.0937 49.943 43.8281C49.7661 43.5625 49.5385 43.3343 49.2734 43.1566C48.738 42.7978 48.082 42.6663 47.4497 42.7911C46.8173 42.916 46.2605 43.2869 45.9016 43.8223C45.5427 44.3577 45.4113 45.0137 45.5361 45.6461C45.6609 46.2784 46.0318 46.8353 46.5672 47.1941ZM72.25 50.0406C72.25 54.6157 69.7616 58.7382 65.9324 61.5262H65.9249C65.7669 61.6387 65.6382 61.7874 65.5495 61.9599C65.4607 62.1323 65.4146 62.3235 65.4149 62.5175C65.4181 62.6482 65.4404 62.7789 65.4808 62.9032C65.6997 63.6969 66.0014 64.8221 66.1746 65.4659C66.2511 65.7507 66.3021 65.9419 66.3106 65.9685C66.3606 66.1119 66.3924 66.2617 66.4062 66.4126C66.4074 66.5244 66.3774 66.6344 66.3196 66.7301C66.2619 66.8259 66.1787 66.9038 66.0793 66.955C65.9799 67.0062 65.8682 67.0288 65.7568 67.0203C65.6453 67.0118 65.5383 66.9725 65.4479 66.9067L61.4571 64.6043C61.1649 64.4236 60.8302 64.3269 60.486 64.3216C60.3054 64.3216 60.1247 64.3503 59.9516 64.4045C58.0156 64.9576 56.0118 65.2369 53.9984 65.2343C43.911 65.2343 35.7478 58.4354 35.7478 50.0406C35.7478 41.6447 43.9152 34.8415 53.9984 34.8415C64.0815 34.8415 72.25 41.6447 72.25 50.0395V50.0406Z" fill="white"/>
</g>
</g>
<defs>
<filter id="filter0_i_19_922" x="0" y="-1.0625" width="85" height="86.0625" filterUnits="userSpaceOnUse" color-interpolation-filters="sRGB">
<feFlood flood-opacity="0" result="BackgroundImageFix"/>
<feBlend mode="normal" in="SourceGraphic" in2="BackgroundImageFix" result="shape"/>
<feColorMatrix in="SourceAlpha" type="matrix" values="0 0 0 0 0 0 0 0 0 0 0 0 0 0 0 0 0 0 127 0" result="hardAlpha"/>
<feOffset dy="-1.0625"/>
<feGaussianBlur stdDeviation="0.53125"/>
<feComposite in2="hardAlpha" operator="arithmetic" k2="-1" k3="1"/>
<feColorMatrix type="matrix" values="0 0 0 0 0 0 0 0 0 0 0 0 0 0 0 0 0 0 0.12 0"/>
<feBlend mode="normal" in2="shape" result="effect1_innerShadow_19_922"/>
</filter>
<linearGradient id="paint0_linear_19_922" x1="42.5" y1="0" x2="42.5" y2="85" gradientUnits="userSpaceOnUse">
<stop stop-color="#00DF62"/>
<stop offset="1" stop-color="#0ABB56"/>
</linearGradient>
<clipPath id="clip0_19_922">
<rect width="85" height="85" fill="white"/>
</clipPath>
</defs>
</svg>
